<ttFont>
    <TTGlyph name=".notdef" xMin="26" yMin="15" xMax="956" yMax="1395">
      <contour>
        <pt x="26" y="1395" on="1"/>
        <pt x="956" y="1395" on="1"/>
        <pt x="956" y="15" on="1"/>
        <pt x="26" y="15" on="1"/>
      </contour>
      <contour>
        <pt x="89" y="1326" on="1"/>
        <pt x="89" y="66" on="1"/>
        <pt x="896" y="66" on="1"/>
        <pt x="896" y="1326" on="1"/>
      </contour>
      <contour>
        <pt x="565" y="251" on="0"/>
        <pt x="565" y="173" on="0"/>
        <pt x="534" y="142" on="1"/>
        <pt x="504" y="112" on="0"/>
        <pt x="424" y="112" on="0"/>
        <pt x="394" y="142" on="1"/>
        <pt x="361" y="175" on="0"/>
        <pt x="361" y="213" on="1"/>
        <pt x="361" y="249" on="0"/>
        <pt x="394" y="281" on="1"/>
        <pt x="424" y="310" on="0"/>
        <pt x="463" y="310" on="1"/>
        <pt x="504" y="310" on="0"/>
        <pt x="534" y="281" on="1"/>
      </contour>
      <contour>
        <pt x="786" y="838" on="1"/>
        <pt x="737" y="753" on="0"/>
        <pt x="650" y="685" on="1"/>
        <pt x="539" y="610" on="1"/>
        <pt x="537" y="370" on="1"/>
        <pt x="402" y="370" on="1"/>
        <pt x="407" y="682" on="1"/>
        <pt x="573" y="743" on="0"/>
        <pt x="632" y="834" on="1"/>
        <pt x="680" y="908" on="0"/>
        <pt x="680" y="960" on="1"/>
        <pt x="680" y="1049" on="0"/>
        <pt x="542" y="1078" on="1"/>
        <pt x="422" y="1048" on="1"/>
        <pt x="352" y="998" on="0"/>
        <pt x="304" y="998" on="1"/>
        <pt x="267" y="998" on="0"/>
        <pt x="245" y="1027" on="1"/>
        <pt x="232" y="1044" on="0"/>
        <pt x="232" y="1058" on="1"/>
        <pt x="232" y="1103" on="0"/>
        <pt x="341" y="1149" on="1"/>
        <pt x="474" y="1205" on="0"/>
        <pt x="567" y="1205" on="1"/>
        <pt x="596" y="1205" on="0"/>
        <pt x="620" y="1200" on="1"/>
        <pt x="757" y="1172" on="0"/>
        <pt x="802" y="1041" on="1"/>
        <pt x="817" y="997" on="0"/>
        <pt x="817" y="955" on="1"/>
        <pt x="817" y="891" on="0"/>
      </contour>
    </TTGlyph>
    <TTGlyph name="A" xMin="0" yMin="0" xMax="1298" yMax="1352">
      <contour>
        <pt x="418" y="623" on="1"/>
        <pt x="739" y="627" on="1"/>
        <pt x="606" y="1005" on="1"/>
        <pt x="561" y="1005" on="1"/>
      </contour>
      <contour>
        <pt x="629" y="1352" on="1"/>
        <pt x="704" y="1352" on="0"/>
        <pt x="733" y="1288" on="1"/>
        <pt x="1231" y="176" on="1"/>
        <pt x="1298" y="176" on="0"/>
        <pt x="1298" y="125" on="1"/>
        <pt x="1298" y="51" on="1"/>
        <pt x="1298" y="0" on="0"/>
        <pt x="1249" y="0" on="1"/>
        <pt x="1143" y="0" on="1"/>
        <pt x="1114" y="28" on="0"/>
        <pt x="1087" y="28" on="1"/>
        <pt x="1061" y="27" on="0"/>
        <pt x="1036" y="4" on="1"/>
        <pt x="928" y="5" on="1"/>
        <pt x="880" y="5" on="0"/>
        <pt x="880" y="52" on="1"/>
        <pt x="880" y="145" on="1"/>
        <pt x="880" y="176" on="0"/>
        <pt x="944" y="176" on="1"/>
        <pt x="823" y="467" on="1"/>
        <pt x="440" y="463" on="1"/>
        <pt x="321" y="176" on="1"/>
        <pt x="389" y="176" on="0"/>
        <pt x="389" y="137" on="1"/>
        <pt x="389" y="51" on="1"/>
        <pt x="389" y="0" on="0"/>
        <pt x="344" y="0" on="1"/>
        <pt x="340" y="0" on="1"/>
        <pt x="248" y="0" on="1"/>
        <pt x="221" y="28" on="0"/>
        <pt x="193" y="28" on="1"/>
        <pt x="168" y="29" on="0"/>
        <pt x="141" y="3" on="1"/>
        <pt x="43" y="1" on="1"/>
        <pt x="0" y="0" on="0"/>
        <pt x="0" y="45" on="1"/>
        <pt x="0" y="127" on="1"/>
        <pt x="0" y="176" on="0"/>
        <pt x="63" y="176" on="1"/>
        <pt x="495" y="1292" on="1"/>
        <pt x="518" y="1352" on="0"/>
      </contour>
    </TTGlyph>
    <TTGlyph name="AE" xMin="0" yMin="0" xMax="1574" yMax="1350">
      <contour>
        <pt x="442" y="542" on="1"/>
        <pt x="507" y="542" on="1"/>
        <pt x="546" y="546" on="0"/>
        <pt x="650" y="546" on="1"/>
        <pt x="716" y="546" on="1"/>
        <pt x="715" y="1147" on="1"/>
        <pt x="619" y="1146" on="1"/>
      </contour>
      <contour>
        <pt x="1373" y="877" on="1"/>
        <pt x="1406" y="885" on="0"/>
        <pt x="1416" y="885" on="1"/>
        <pt x="1459" y="885" on="0"/>
        <pt x="1459" y="823" on="1"/>
        <pt x="1459" y="733" on="1"/>
        <pt x="1459" y="631" on="1"/>
        <pt x="1459" y="551" on="1"/>
        <pt x="1459" y="535" on="0"/>
        <pt x="1445" y="520" on="1"/>
        <pt x="1433" y="508" on="0"/>
        <pt x="1395" y="508" on="0"/>
        <pt x="1383" y="512" on="1"/>
        <pt x="1365" y="518" on="1"/>
        <pt x="1358" y="522" on="1"/>
        <pt x="1328" y="555" on="1"/>
        <pt x="1294" y="592" on="0"/>
        <pt x="1277" y="594" on="1"/>
        <pt x="1246" y="598" on="0"/>
        <pt x="1113" y="598" on="1"/>
        <pt x="1072" y="598" on="0"/>
        <pt x="992" y="588" on="1"/>
        <pt x="944" y="582" on="0"/>
        <pt x="944" y="466" on="1"/>
        <pt x="944" y="466" on="0"/>
        <pt x="944" y="457" on="1"/>
        <pt x="946" y="325" on="1"/>
        <pt x="948" y="181" on="1"/>
        <pt x="948" y="117" on="0"/>
        <pt x="1041" y="117" on="1"/>
        <pt x="1041" y="117" on="0"/>
        <pt x="1052" y="117" on="1"/>
        <pt x="1181" y="113" on="1"/>
        <pt x="1181" y="113" on="0"/>
        <pt x="1210" y="113" on="1"/>
        <pt x="1210" y="113" on="0"/>
        <pt x="1232" y="113" on="1"/>
        <pt x="1280" y="111" on="0"/>
        <pt x="1295" y="121" on="1"/>
        <pt x="1298" y="123" on="0"/>
        <pt x="1345" y="150" on="1"/>
        <pt x="1391" y="178" on="0"/>
        <pt x="1399" y="184" on="1"/>
        <pt x="1416" y="196" on="0"/>
        <pt x="1437" y="231" on="1"/>
        <pt x="1455" y="260" on="0"/>
        <pt x="1459" y="262" on="1"/>
        <pt x="1498" y="285" on="0"/>
        <pt x="1526" y="285" on="1"/>
        <pt x="1546" y="285" on="0"/>
        <pt x="1574" y="244" on="0"/>
        <pt x="1574" y="215" on="1"/>
        <pt x="1574" y="163" on="0"/>
        <pt x="1553" y="125" on="1"/>
        <pt x="1535" y="92" on="0"/>
        <pt x="1514" y="75" on="1"/>
        <pt x="1480" y="47" on="0"/>
        <pt x="1455" y="37" on="1"/>
        <pt x="1359" y="0" on="0"/>
        <pt x="1346" y="0" on="1"/>
        <pt x="1162" y="0" on="1"/>
        <pt x="1136" y="0" on="1"/>
        <pt x="1132" y="0" on="1"/>
        <pt x="999" y="0" on="1"/>
        <pt x="992" y="0" on="1"/>
        <pt x="869" y="0" on="1"/>
        <pt x="861" y="8" on="1"/>
        <pt x="822" y="8" on="1"/>
        <pt x="822" y="0" on="1"/>
        <pt x="822" y="2" on="0"/>
        <pt x="775" y="0" on="1"/>
        <pt x="762" y="0" on="1"/>
        <pt x="711" y="0" on="0"/>
        <pt x="674" y="16" on="1"/>
        <pt x="651" y="26" on="0"/>
        <pt x="652" y="57" on="1"/>
        <pt x="652" y="63" on="0"/>
        <pt x="656" y="98" on="0"/>
        <pt x="656" y="109" on="1"/>
        <pt x="656" y="115" on="0"/>
        <pt x="697" y="129" on="1"/>
        <pt x="703" y="131" on="0"/>
        <pt x="707" y="176" on="1"/>
        <pt x="716" y="293" on="0"/>
        <pt x="719" y="366" on="1"/>
        <pt x="711" y="383" on="0"/>
        <pt x="706" y="386" on="1"/>
        <pt x="694" y="394" on="0"/>
        <pt x="618" y="394" on="1"/>
        <pt x="445" y="394" on="0"/>
        <pt x="421" y="382" on="1"/>
        <pt x="402" y="373" on="0"/>
        <pt x="397" y="357" on="1"/>
        <pt x="342" y="221" on="1"/>
        <pt x="325" y="176" on="1"/>
        <pt x="393" y="176" on="0"/>
        <pt x="393" y="137" on="1"/>
        <pt x="393" y="51" on="1"/>
        <pt x="393" y="0" on="0"/>
        <pt x="348" y="0" on="1"/>
        <pt x="344" y="0" on="1"/>
        <pt x="252" y="0" on="1"/>
        <pt x="225" y="27" on="0"/>
        <pt x="198" y="35" on="1"/>
        <pt x="145" y="8" on="1"/>
        <pt x="51" y="8" on="1"/>
        <pt x="47" y="6" on="1"/>
        <pt x="0" y="6" on="0"/>
        <pt x="0" y="51" on="1"/>
        <pt x="4" y="55" on="1"/>
        <pt x="4" y="145" on="1"/>
        <pt x="4" y="176" on="0"/>
        <pt x="67" y="176" on="1"/>
        <pt x="499" y="1278" on="1"/>
        <pt x="523" y="1338" on="0"/>
        <pt x="633" y="1338" on="1"/>
        <pt x="693" y="1340" on="1"/>
        <pt x="695" y="1340" on="0"/>
        <pt x="733" y="1342" on="1"/>
        <pt x="838" y="1344" on="1"/>
        <pt x="861" y="1350" on="0"/>
        <pt x="992" y="1350" on="1"/>
        <pt x="1275" y="1350" on="1"/>
        <pt x="1381" y="1350" on="1"/>
        <pt x="1477" y="1350" on="1"/>
        <pt x="1524" y="1350" on="0"/>
        <pt x="1538" y="1336" on="1"/>
        <pt x="1555" y="1319" on="0"/>
        <pt x="1555" y="1284" on="1"/>
        <pt x="1555" y="1065" on="1"/>
        <pt x="1555" y="1014" on="0"/>
        <pt x="1500" y="1014" on="1"/>
        <pt x="1409" y="1014" on="0"/>
        <pt x="1385" y="1032" on="1"/>
        <pt x="1369" y="1044" on="0"/>
        <pt x="1356" y="1083" on="1"/>
        <pt x="1342" y="1126" on="1"/>
        <pt x="1321" y="1191" on="0"/>
        <pt x="1293" y="1192" on="1"/>
        <pt x="1177" y="1198" on="0"/>
        <pt x="1152" y="1199" on="1"/>
        <pt x="1146" y="1199" on="0"/>
        <pt x="1146" y="1198" on="1"/>
        <pt x="1062" y="1198" on="0"/>
        <pt x="971" y="1155" on="1"/>
        <pt x="930" y="1136" on="0"/>
        <pt x="930" y="1034" on="1"/>
        <pt x="930" y="1006" on="1"/>
        <pt x="931" y="986" on="0"/>
        <pt x="933" y="883" on="0"/>
        <pt x="933" y="852" on="1"/>
        <pt x="933" y="803" on="0"/>
        <pt x="1119" y="784" on="1"/>
        <pt x="1129" y="783" on="0"/>
        <pt x="1189" y="782" on="0"/>
        <pt x="1203" y="782" on="1"/>
        <pt x="1250" y="782" on="0"/>
        <pt x="1277" y="793" on="1"/>
        <pt x="1297" y="801" on="0"/>
        <pt x="1329" y="839" on="1"/>
        <pt x="1357" y="873" on="0"/>
      </contour>
    </TTGlyph>
    <TTGlyph name="Alpha-grek" xMin="0" yMin="0" xMax="1298" yMax="1352">
      <contour>
        <pt x="418" y="623" on="1"/>
        <pt x="739" y="627" on="1"/>
        <pt x="606" y="1005" on="1"/>
        <pt x="561" y="1005" on="1"/>
      </contour>
      <contour>
        <pt x="629" y="1352" on="1"/>
        <pt x="705" y="1352" on="0"/>
        <pt x="733" y="1288" on="1"/>
        <pt x="1231" y="176" on="1"/>
        <pt x="1298" y="176" on="0"/>
        <pt x="1298" y="125" on="1"/>
        <pt x="1298" y="51" on="1"/>
        <pt x="1298" y="0" on="0"/>
        <pt x="1249" y="0" on="1"/>
        <pt x="1143" y="0" on="1"/>
        <pt x="1114" y="29" on="0"/>
        <pt x="1087" y="28" on="1"/>
        <pt x="1066" y="26" on="0"/>
        <pt x="1035" y="0" on="1"/>
        <pt x="927" y="0" on="1"/>
        <pt x="880" y="0" on="0"/>
        <pt x="880" y="52" on="1"/>
        <pt x="880" y="145" on="1"/>
        <pt x="880" y="176" on="0"/>
        <pt x="944" y="176" on="1"/>
        <pt x="823" y="467" on="1"/>
        <pt x="440" y="463" on="1"/>
        <pt x="321" y="176" on="1"/>
        <pt x="389" y="176" on="0"/>
        <pt x="389" y="137" on="1"/>
        <pt x="389" y="51" on="1"/>
        <pt x="389" y="0" on="0"/>
        <pt x="344" y="0" on="1"/>
        <pt x="340" y="0" on="1"/>
        <pt x="248" y="0" on="1"/>
        <pt x="223" y="26" on="0"/>
        <pt x="193" y="28" on="1"/>
        <pt x="173" y="29" on="0"/>
        <pt x="141" y="0" on="1"/>
        <pt x="43" y="0" on="1"/>
        <pt x="23" y="0" on="0"/>
        <pt x="10" y="11" on="1"/>
        <pt x="0" y="23" on="0"/>
        <pt x="0" y="45" on="1"/>
        <pt x="0" y="127" on="1"/>
        <pt x="0" y="176" on="0"/>
        <pt x="63" y="176" on="1"/>
        <pt x="495" y="1292" on="1"/>
        <pt x="518" y="1352" on="0"/>
      </contour>
    </TTGlyph>
    <TTGlyph name="Alphadasia-grek" xMin="0" yMin="0" xMax="1574" yMax="1640">
      <contour>
        <pt x="694" y="623" on="1"/>
        <pt x="1015" y="627" on="1"/>
        <pt x="882" y="1005" on="1"/>
        <pt x="837" y="1005" on="1"/>
      </contour>
      <contour>
        <pt x="905" y="1352" on="1"/>
        <pt x="980" y="1352" on="0"/>
        <pt x="1009" y="1288" on="1"/>
        <pt x="1507" y="176" on="1"/>
        <pt x="1574" y="176" on="0"/>
        <pt x="1574" y="125" on="1"/>
        <pt x="1574" y="51" on="1"/>
        <pt x="1574" y="0" on="0"/>
        <pt x="1525" y="0" on="1"/>
        <pt x="1419" y="0" on="1"/>
        <pt x="1390" y="29" on="0"/>
        <pt x="1363" y="28" on="1"/>
        <pt x="1343" y="27" on="0"/>
        <pt x="1311" y="0" on="1"/>
        <pt x="1203" y="0" on="1"/>
        <pt x="1156" y="0" on="0"/>
        <pt x="1156" y="52" on="1"/>
        <pt x="1156" y="145" on="1"/>
        <pt x="1156" y="176" on="0"/>
        <pt x="1220" y="176" on="1"/>
        <pt x="1099" y="467" on="1"/>
        <pt x="716" y="463" on="1"/>
        <pt x="597" y="176" on="1"/>
        <pt x="665" y="176" on="0"/>
        <pt x="665" y="137" on="1"/>
        <pt x="665" y="51" on="1"/>
        <pt x="665" y="0" on="0"/>
        <pt x="620" y="0" on="1"/>
        <pt x="616" y="0" on="1"/>
        <pt x="524" y="0" on="1"/>
        <pt x="498" y="27" on="0"/>
        <pt x="469" y="28" on="1"/>
        <pt x="448" y="29" on="0"/>
        <pt x="417" y="0" on="1"/>
        <pt x="319" y="0" on="1"/>
        <pt x="297" y="0" on="0"/>
        <pt x="276" y="22" on="0"/>
        <pt x="276" y="45" on="1"/>
        <pt x="276" y="127" on="1"/>
        <pt x="276" y="176" on="0"/>
        <pt x="339" y="176" on="1"/>
        <pt x="771" y="1292" on="1"/>
        <pt x="794" y="1352" on="0"/>
      </contour>
      <contour>
        <pt x="473" y="1466" on="1"/>
        <pt x="427" y="1440" on="0"/>
        <pt x="414" y="1439" on="1"/>
        <pt x="360" y="1427" on="1"/>
        <pt x="318" y="1417" on="0"/>
        <pt x="300" y="1393" on="1"/>
        <pt x="272" y="1356" on="0"/>
        <pt x="272" y="1337" on="1"/>
        <pt x="272" y="1247" on="0"/>
        <pt x="308" y="1195" on="1"/>
        <pt x="326" y="1169" on="0"/>
        <pt x="378" y="1153" on="1"/>
        <pt x="441" y="1133" on="0"/>
        <pt x="525" y="1071" on="1"/>
        <pt x="581" y="1030" on="0"/>
        <pt x="581" y="1004" on="1"/>
        <pt x="581" y="976" on="0"/>
        <pt x="554" y="964" on="1"/>
        <pt x="490" y="936" on="0"/>
        <pt x="436" y="936" on="1"/>
        <pt x="344" y="936" on="0"/>
        <pt x="275" y="963" on="1"/>
        <pt x="196" y="994" on="0"/>
        <pt x="124" y="1052" on="1"/>
        <pt x="63" y="1101" on="0"/>
        <pt x="42" y="1158" on="1"/>
        <pt x="0" y="1272" on="0"/>
        <pt x="0" y="1329" on="1"/>
        <pt x="0" y="1403" on="0"/>
        <pt x="62" y="1536" on="1"/>
        <pt x="89" y="1594" on="0"/>
        <pt x="236" y="1622" on="1"/>
        <pt x="330" y="1640" on="0"/>
        <pt x="429" y="1640" on="1"/>
        <pt x="430" y="1640" on="0"/>
        <pt x="503" y="1629" on="1"/>
        <pt x="587" y="1617" on="0"/>
        <pt x="587" y="1580" on="1"/>
        <pt x="587" y="1531" on="0"/>
      </contour>
    </TTGlyph>
    <TTGlyph name="Alphadasiaoxia-grek" xMin="0" yMin="0" xMax="1914" yMax="1634">
      <contour>
        <pt x="1034" y="623" on="1"/>
        <pt x="1355" y="627" on="1"/>
        <pt x="1222" y="1005" on="1"/>
        <pt x="1177" y="1005" on="1"/>
      </contour>
      <contour>
        <pt x="1245" y="1352" on="1"/>
        <pt x="1320" y="1352" on="0"/>
        <pt x="1349" y="1288" on="1"/>
        <pt x="1847" y="176" on="1"/>
        <pt x="1914" y="176" on="0"/>
        <pt x="1914" y="125" on="1"/>
        <pt x="1914" y="51" on="1"/>
        <pt x="1914" y="0" on="0"/>
        <pt x="1865" y="0" on="1"/>
        <pt x="1759" y="0" on="1"/>
        <pt x="1730" y="29" on="0"/>
        <pt x="1703" y="28" on="1"/>
        <pt x="1683" y="27" on="0"/>
        <pt x="1651" y="0" on="1"/>
        <pt x="1543" y="0" on="1"/>
        <pt x="1496" y="0" on="0"/>
        <pt x="1496" y="52" on="1"/>
        <pt x="1496" y="145" on="1"/>
        <pt x="1496" y="176" on="0"/>
        <pt x="1560" y="176" on="1"/>
        <pt x="1439" y="467" on="1"/>
        <pt x="1056" y="463" on="1"/>
        <pt x="937" y="176" on="1"/>
        <pt x="1005" y="176" on="0"/>
        <pt x="1005" y="137" on="1"/>
        <pt x="1005" y="51" on="1"/>
        <pt x="1005" y="0" on="0"/>
        <pt x="960" y="0" on="1"/>
        <pt x="956" y="0" on="1"/>
        <pt x="864" y="0" on="1"/>
        <pt x="838" y="27" on="0"/>
        <pt x="809" y="28" on="1"/>
        <pt x="788" y="29" on="0"/>
        <pt x="757" y="0" on="1"/>
        <pt x="659" y="0" on="1"/>
        <pt x="637" y="0" on="0"/>
        <pt x="616" y="22" on="0"/>
        <pt x="616" y="45" on="1"/>
        <pt x="616" y="127" on="1"/>
        <pt x="616" y="176" on="0"/>
        <pt x="679" y="176" on="1"/>
        <pt x="1111" y="1292" on="1"/>
        <pt x="1134" y="1352" on="0"/>
      </contour>
      <contour>
        <pt x="828" y="1504" on="1"/>
        <pt x="873" y="1606" on="0"/>
        <pt x="981" y="1606" on="1"/>
        <pt x="1126" y="1606" on="0"/>
        <pt x="1126" y="1466" on="0"/>
        <pt x="953" y="1088" on="1"/>
        <pt x="878" y="924" on="0"/>
        <pt x="768" y="924" on="1"/>
        <pt x="730" y="924" on="0"/>
        <pt x="672" y="944" on="1"/>
        <pt x="602" y="968" on="0"/>
        <pt x="602" y="1028" on="0"/>
        <pt x="672" y="1154" on="1"/>
      </contour>
      <contour>
        <pt x="473" y="1460" on="1"/>
        <pt x="427" y="1434" on="0"/>
        <pt x="414" y="1433" on="1"/>
        <pt x="360" y="1421" on="1"/>
        <pt x="318" y="1411" on="0"/>
        <pt x="300" y="1387" on="1"/>
        <pt x="272" y="1350" on="0"/>
        <pt x="272" y="1331" on="1"/>
        <pt x="272" y="1241" on="0"/>
        <pt x="308" y="1189" on="1"/>
        <pt x="326" y="1163" on="0"/>
        <pt x="378" y="1147" on="1"/>
        <pt x="441" y="1127" on="0"/>
        <pt x="525" y="1065" on="1"/>
        <pt x="581" y="1024" on="0"/>
        <pt x="581" y="998" on="1"/>
        <pt x="581" y="970" on="0"/>
        <pt x="554" y="958" on="1"/>
        <pt x="490" y="930" on="0"/>
        <pt x="436" y="930" on="1"/>
        <pt x="344" y="930" on="0"/>
        <pt x="275" y="957" on="1"/>
        <pt x="196" y="988" on="0"/>
        <pt x="124" y="1046" on="1"/>
        <pt x="63" y="1095" on="0"/>
        <pt x="42" y="1152" on="1"/>
        <pt x="0" y="1266" on="0"/>
        <pt x="0" y="1323" on="1"/>
        <pt x="0" y="1397" on="0"/>
        <pt x="62" y="1530" on="1"/>
        <pt x="89" y="1588" on="0"/>
        <pt x="236" y="1616" on="1"/>
        <pt x="330" y="1634" on="0"/>
        <pt x="429" y="1634" on="1"/>
        <pt x="430" y="1634" on="0"/>
        <pt x="503" y="1623" on="1"/>
        <pt x="587" y="1611" on="0"/>
        <pt x="587" y="1574" on="1"/>
        <pt x="587" y="1525" on="0"/>
      </contour>
    </TTGlyph>
    <TTGlyph name="Alphadasiaoxiaprosgegrammeni-grek" xMin="0" yMin="-413" xMax="1914" yMax="1634">
      <contour>
        <pt x="1318" y="-184" on="1"/>
        <pt x="1356" y="-224" on="0"/>
        <pt x="1356" y="-279" on="1"/>
        <pt x="1356" y="-332" on="0"/>
        <pt x="1318" y="-372" on="1"/>
        <pt x="1280" y="-413" on="0"/>
        <pt x="1223" y="-413" on="1"/>
        <pt x="1173" y="-413" on="0"/>
        <pt x="1133" y="-372" on="1"/>
        <pt x="1094" y="-332" on="0"/>
        <pt x="1094" y="-277" on="1"/>
        <pt x="1094" y="-224" on="0"/>
        <pt x="1133" y="-184" on="1"/>
        <pt x="1173" y="-143" on="0"/>
        <pt x="1223" y="-143" on="1"/>
        <pt x="1280" y="-143" on="0"/>
      </contour>
      <contour>
        <pt x="1034" y="623" on="1"/>
        <pt x="1355" y="627" on="1"/>
        <pt x="1222" y="1005" on="1"/>
        <pt x="1177" y="1005" on="1"/>
      </contour>
      <contour>
        <pt x="1245" y="1352" on="1"/>
        <pt x="1320" y="1352" on="0"/>
        <pt x="1349" y="1288" on="1"/>
        <pt x="1847" y="176" on="1"/>
        <pt x="1914" y="176" on="0"/>
        <pt x="1914" y="125" on="1"/>
        <pt x="1914" y="51" on="1"/>
        <pt x="1914" y="0" on="0"/>
        <pt x="1865" y="0" on="1"/>
        <pt x="1759" y="0" on="1"/>
        <pt x="1730" y="29" on="0"/>
        <pt x="1703" y="28" on="1"/>
        <pt x="1683" y="27" on="0"/>
        <pt x="1651" y="0" on="1"/>
        <pt x="1543" y="0" on="1"/>
        <pt x="1496" y="0" on="0"/>
        <pt x="1496" y="52" on="1"/>
        <pt x="1496" y="145" on="1"/>
        <pt x="1496" y="176" on="0"/>
        <pt x="1560" y="176" on="1"/>
        <pt x="1439" y="467" on="1"/>
        <pt x="1056" y="463" on="1"/>
        <pt x="937" y="176" on="1"/>
        <pt x="1005" y="176" on="0"/>
        <pt x="1005" y="137" on="1"/>
        <pt x="1005" y="51" on="1"/>
        <pt x="1005" y="0" on="0"/>
        <pt x="960" y="0" on="1"/>
        <pt x="956" y="0" on="1"/>
        <pt x="864" y="0" on="1"/>
        <pt x="838" y="27" on="0"/>
        <pt x="809" y="28" on="1"/>
        <pt x="788" y="29" on="0"/>
        <pt x="757" y="0" on="1"/>
        <pt x="659" y="0" on="1"/>
        <pt x="637" y="0" on="0"/>
        <pt x="616" y="22" on="0"/>
        <pt x="616" y="45" on="1"/>
        <pt x="616" y="127" on="1"/>
        <pt x="616" y="176" on="0"/>
        <pt x="679" y="176" on="1"/>
        <pt x="1111" y="1292" on="1"/>
        <pt x="1134" y="1352" on="0"/>
      </contour>
      <contour>
        <pt x="828" y="1504" on="1"/>
        <pt x="873" y="1606" on="0"/>
        <pt x="981" y="1606" on="1"/>
        <pt x="1126" y="1606" on="0"/>
        <pt x="1126" y="1466" on="0"/>
        <pt x="953" y="1088" on="1"/>
        <pt x="878" y="924" on="0"/>
        <pt x="768" y="924" on="1"/>
        <pt x="730" y="924" on="0"/>
        <pt x="672" y="944" on="1"/>
        <pt x="602" y="968" on="0"/>
        <pt x="602" y="1028" on="0"/>
        <pt x="672" y="1154" on="1"/>
      </contour>
      <contour>
        <pt x="473" y="1460" on="1"/>
        <pt x="427" y="1434" on="0"/>
        <pt x="414" y="1433" on="1"/>
        <pt x="360" y="1421" on="1"/>
        <pt x="318" y="1411" on="0"/>
        <pt x="300" y="1387" on="1"/>
        <pt x="272" y="1350" on="0"/>
        <pt x="272" y="1331" on="1"/>
        <pt x="272" y="1241" on="0"/>
        <pt x="308" y="1189" on="1"/>
        <pt x="326" y="1163" on="0"/>
        <pt x="378" y="1147" on="1"/>
        <pt x="441" y="1127" on="0"/>
        <pt x="525" y="1065" on="1"/>
        <pt x="581" y="1024" on="0"/>
        <pt x="581" y="998" on="1"/>
        <pt x="581" y="970" on="0"/>
        <pt x="554" y="958" on="1"/>
        <pt x="490" y="930" on="0"/>
        <pt x="436" y="930" on="1"/>
        <pt x="344" y="930" on="0"/>
        <pt x="275" y="957" on="1"/>
        <pt x="196" y="988" on="0"/>
        <pt x="124" y="1046" on="1"/>
        <pt x="63" y="1095" on="0"/>
        <pt x="42" y="1152" on="1"/>
        <pt x="0" y="1266" on="0"/>
        <pt x="0" y="1323" on="1"/>
        <pt x="0" y="1397" on="0"/>
        <pt x="62" y="1530" on="1"/>
        <pt x="89" y="1588" on="0"/>
        <pt x="236" y="1616" on="1"/>
        <pt x="330" y="1634" on="0"/>
        <pt x="429" y="1634" on="1"/>
        <pt x="430" y="1634" on="0"/>
        <pt x="503" y="1623" on="1"/>
        <pt x="587" y="1611" on="0"/>
        <pt x="587" y="1574" on="1"/>
        <pt x="587" y="1525" on="0"/>
      </contour>
    </TTGlyph>
    <TTGlyph name="Alphadasiaperispomeni-grek" xMin="0" yMin="0" xMax="1718" yMax="2224">
      <contour>
        <pt x="838" y="623" on="1"/>
        <pt x="1159" y="627" on="1"/>
        <pt x="1026" y="1005" on="1"/>
        <pt x="981" y="1005" on="1"/>
      </contour>
      <contour>
        <pt x="1049" y="1352" on="1"/>
        <pt x="1124" y="1352" on="0"/>
        <pt x="1153" y="1288" on="1"/>
        <pt x="1651" y="176" on="1"/>
        <pt x="1718" y="176" on="0"/>
        <pt x="1718" y="125" on="1"/>
        <pt x="1718" y="51" on="1"/>
        <pt x="1718" y="0" on="0"/>
        <pt x="1669" y="0" on="1"/>
        <pt x="1563" y="0" on="1"/>
        <pt x="1534" y="29" on="0"/>
        <pt x="1507" y="28" on="1"/>
        <pt x="1487" y="27" on="0"/>
        <pt x="1455" y="0" on="1"/>
        <pt x="1347" y="0" on="1"/>
        <pt x="1300" y="0" on="0"/>
        <pt x="1300" y="52" on="1"/>
        <pt x="1300" y="145" on="1"/>
        <pt x="1300" y="176" on="0"/>
        <pt x="1364" y="176" on="1"/>
        <pt x="1243" y="467" on="1"/>
        <pt x="860" y="463" on="1"/>
        <pt x="741" y="176" on="1"/>
        <pt x="809" y="176" on="0"/>
        <pt x="809" y="137" on="1"/>
        <pt x="809" y="51" on="1"/>
        <pt x="809" y="0" on="0"/>
        <pt x="764" y="0" on="1"/>
        <pt x="760" y="0" on="1"/>
        <pt x="668" y="0" on="1"/>
        <pt x="642" y="27" on="0"/>
        <pt x="613" y="28" on="1"/>
        <pt x="592" y="29" on="0"/>
        <pt x="561" y="0" on="1"/>
        <pt x="463" y="0" on="1"/>
        <pt x="441" y="0" on="0"/>
        <pt x="420" y="22" on="0"/>
        <pt x="420" y="45" on="1"/>
        <pt x="420" y="127" on="1"/>
        <pt x="420" y="176" on="0"/>
        <pt x="483" y="176" on="1"/>
        <pt x="915" y="1292" on="1"/>
        <pt x="938" y="1352" on="0"/>
      </contour>
      <contour>
        <pt x="16" y="1991" on="1"/>
        <pt x="85" y="2095" on="0"/>
        <pt x="233" y="2191" on="1"/>
        <pt x="284" y="2224" on="0"/>
        <pt x="353" y="2224" on="1"/>
        <pt x="499" y="2224" on="0"/>
        <pt x="561" y="2117" on="1"/>
        <pt x="614" y="2026" on="0"/>
        <pt x="674" y="2026" on="1"/>
        <pt x="721" y="2026" on="0"/>
        <pt x="742" y="2065" on="1"/>
        <pt x="780" y="2137" on="0"/>
        <pt x="834" y="2137" on="1"/>
        <pt x="942" y="2137" on="0"/>
        <pt x="942" y="2017" on="1"/>
        <pt x="942" y="1968" on="0"/>
        <pt x="913" y="1913" on="1"/>
        <pt x="881" y="1852" on="0"/>
        <pt x="773" y="1808" on="1"/>
        <pt x="682" y="1771" on="0"/>
        <pt x="603" y="1771" on="1"/>
        <pt x="520" y="1771" on="0"/>
        <pt x="450" y="1879" on="1"/>
        <pt x="388" y="1974" on="0"/>
        <pt x="343" y="1974" on="1"/>
        <pt x="322" y="1974" on="0"/>
        <pt x="309" y="1954" on="1"/>
        <pt x="265" y="1889" on="0"/>
        <pt x="260" y="1884" on="1"/>
        <pt x="145" y="1785" on="0"/>
        <pt x="112" y="1785" on="1"/>
        <pt x="72" y="1785" on="0"/>
        <pt x="36" y="1841" on="1"/>
        <pt x="0" y="1898" on="0"/>
        <pt x="0" y="1967" on="0"/>
      </contour>
      <contour>
        <pt x="642" y="1467" on="1"/>
        <pt x="596" y="1441" on="0"/>
        <pt x="583" y="1440" on="1"/>
        <pt x="529" y="1428" on="1"/>
        <pt x="487" y="1418" on="0"/>
        <pt x="469" y="1394" on="1"/>
        <pt x="441" y="1357" on="0"/>
        <pt x="441" y="1338" on="1"/>
        <pt x="441" y="1248" on="0"/>
        <pt x="477" y="1196" on="1"/>
        <pt x="495" y="1170" on="0"/>
        <pt x="547" y="1154" on="1"/>
        <pt x="610" y="1134" on="0"/>
        <pt x="694" y="1072" on="1"/>
        <pt x="750" y="1031" on="0"/>
        <pt x="750" y="1005" on="1"/>
        <pt x="750" y="977" on="0"/>
        <pt x="723" y="965" on="1"/>
        <pt x="659" y="937" on="0"/>
        <pt x="605" y="937" on="1"/>
        <pt x="513" y="937" on="0"/>
        <pt x="444" y="964" on="1"/>
        <pt x="365" y="995" on="0"/>
        <pt x="293" y="1053" on="1"/>
        <pt x="232" y="1102" on="0"/>
        <pt x="211" y="1159" on="1"/>
        <pt x="169" y="1273" on="0"/>
        <pt x="169" y="1330" on="1"/>
        <pt x="169" y="1404" on="0"/>
        <pt x="231" y="1537" on="1"/>
        <pt x="258" y="1595" on="0"/>
        <pt x="405" y="1623" on="1"/>
        <pt x="499" y="1641" on="0"/>
        <pt x="598" y="1641" on="1"/>
        <pt x="599" y="1641" on="0"/>
        <pt x="672" y="1630" on="1"/>
        <pt x="756" y="1618" on="0"/>
        <pt x="756" y="1581" on="1"/>
        <pt x="756" y="1532" on="0"/>
      </contour>
    </TTGlyph>
    <TTGlyph name="Alphadasiaperispomeniprosgegrammeni-grek" xMin="0" yMin="-404" xMax="1718" yMax="2224">
      <contour>
        <pt x="1139" y="-175" on="1"/>
        <pt x="1177" y="-215" on="0"/>
        <pt x="1177" y="-270" on="1"/>
        <pt x="1177" y="-323" on="0"/>
        <pt x="1139" y="-363" on="1"/>
        <pt x="1101" y="-404" on="0"/>
        <pt x="1044" y="-404" on="1"/>
        <pt x="994" y="-404" on="0"/>
        <pt x="954" y="-363" on="1"/>
        <pt x="915" y="-323" on="0"/>
        <pt x="915" y="-268" on="1"/>
        <pt x="915" y="-215" on="0"/>
        <pt x="954" y="-175" on="1"/>
        <pt x="994" y="-134" on="0"/>
        <pt x="1044" y="-134" on="1"/>
        <pt x="1101" y="-134" on="0"/>
      </contour>
      <contour>
        <pt x="838" y="623" on="1"/>
        <pt x="1159" y="627" on="1"/>
        <pt x="1026" y="1005" on="1"/>
        <pt x="981" y="1005" on="1"/>
      </contour>
      <contour>
        <pt x="1049" y="1352" on="1"/>
        <pt x="1124" y="1352" on="0"/>
        <pt x="1153" y="1288" on="1"/>
        <pt x="1651" y="176" on="1"/>
        <pt x="1718" y="176" on="0"/>
        <pt x="1718" y="125" on="1"/>
        <pt x="1718" y="51" on="1"/>
        <pt x="1718" y="0" on="0"/>
        <pt x="1669" y="0" on="1"/>
        <pt x="1563" y="0" on="1"/>
        <pt x="1534" y="29" on="0"/>
        <pt x="1507" y="28" on="1"/>
        <pt x="1487" y="27" on="0"/>
        <pt x="1455" y="0" on="1"/>
        <pt x="1347" y="0" on="1"/>
        <pt x="1300" y="0" on="0"/>
        <pt x="1300" y="52" on="1"/>
        <pt x="1300" y="145" on="1"/>
        <pt x="1300" y="176" on="0"/>
        <pt x="1364" y="176" on="1"/>
        <pt x="1243" y="467" on="1"/>
        <pt x="860" y="463" on="1"/>
        <pt x="741" y="176" on="1"/>
        <pt x="809" y="176" on="0"/>
        <pt x="809" y="137" on="1"/>
        <pt x="809" y="51" on="1"/>
        <pt x="809" y="0" on="0"/>
        <pt x="764" y="0" on="1"/>
        <pt x="760" y="0" on="1"/>
        <pt x="668" y="0" on="1"/>
        <pt x="642" y="27" on="0"/>
        <pt x="613" y="28" on="1"/>
        <pt x="592" y="29" on="0"/>
        <pt x="561" y="0" on="1"/>
        <pt x="463" y="0" on="1"/>
        <pt x="441" y="0" on="0"/>
        <pt x="420" y="22" on="0"/>
        <pt x="420" y="45" on="1"/>
        <pt x="420" y="127" on="1"/>
        <pt x="420" y="176" on="0"/>
        <pt x="483" y="176" on="1"/>
        <pt x="915" y="1292" on="1"/>
        <pt x="938" y="1352" on="0"/>
      </contour>
      <contour>
        <pt x="16" y="1991" on="1"/>
        <pt x="85" y="2095" on="0"/>
        <pt x="233" y="2191" on="1"/>
        <pt x="284" y="2224" on="0"/>
        <pt x="353" y="2224" on="1"/>
        <pt x="499" y="2224" on="0"/>
        <pt x="561" y="2117" on="1"/>
        <pt x="614" y="2026" on="0"/>
        <pt x="674" y="2026" on="1"/>
        <pt x="721" y="2026" on="0"/>
        <pt x="742" y="2065" on="1"/>
        <pt x="780" y="2137" on="0"/>
        <pt x="834" y="2137" on="1"/>
        <pt x="942" y="2137" on="0"/>
        <pt x="942" y="2017" on="1"/>
        <pt x="942" y="1968" on="0"/>
        <pt x="913" y="1913" on="1"/>
        <pt x="881" y="1852" on="0"/>
        <pt x="773" y="1808" on="1"/>
        <pt x="682" y="1771" on="0"/>
        <pt x="603" y="1771" on="1"/>
        <pt x="520" y="1771" on="0"/>
        <pt x="450" y="1879" on="1"/>
        <pt x="388" y="1974" on="0"/>
        <pt x="343" y="1974" on="1"/>
        <pt x="322" y="1974" on="0"/>
        <pt x="309" y="1954" on="1"/>
        <pt x="265" y="1889" on="0"/>
        <pt x="260" y="1884" on="1"/>
        <pt x="145" y="1785" on="0"/>
        <pt x="112" y="1785" on="1"/>
        <pt x="72" y="1785" on="0"/>
        <pt x="36" y="1841" on="1"/>
        <pt x="0" y="1898" on="0"/>
        <pt x="0" y="1967" on="0"/>
      </contour>
      <contour>
        <pt x="642" y="1467" on="1"/>
        <pt x="596" y="1441" on="0"/>
        <pt x="583" y="1440" on="1"/>
        <pt x="529" y="1428" on="1"/>
        <pt x="487" y="1418" on="0"/>
        <pt x="469" y="1394" on="1"/>
        <pt x="441" y="1357" on="0"/>
        <pt x="441" y="1338" on="1"/>
        <pt x="441" y="1248" on="0"/>
        <pt x="477" y="1196" on="1"/>
        <pt x="495" y="1170" on="0"/>
        <pt x="547" y="1154" on="1"/>
        <pt x="610" y="1134" on="0"/>
        <pt x="694" y="1072" on="1"/>
        <pt x="750" y="1031" on="0"/>
        <pt x="750" y="1005" on="1"/>
        <pt x="750" y="977" on="0"/>
        <pt x="723" y="965" on="1"/>
        <pt x="659" y="937" on="0"/>
        <pt x="605" y="937" on="1"/>
        <pt x="513" y="937" on="0"/>
        <pt x="444" y="964" on="1"/>
        <pt x="365" y="995" on="0"/>
        <pt x="293" y="1053" on="1"/>
        <pt x="232" y="1102" on="0"/>
        <pt x="211" y="1159" on="1"/>
        <pt x="169" y="1273" on="0"/>
        <pt x="169" y="1330" on="1"/>
        <pt x="169" y="1404" on="0"/>
        <pt x="231" y="1537" on="1"/>
        <pt x="258" y="1595" on="0"/>
        <pt x="405" y="1623" on="1"/>
        <pt x="499" y="1641" on="0"/>
        <pt x="598" y="1641" on="1"/>
        <pt x="599" y="1641" on="0"/>
        <pt x="672" y="1630" on="1"/>
        <pt x="756" y="1618" on="0"/>
        <pt x="756" y="1581" on="1"/>
        <pt x="756" y="1532" on="0"/>
      </contour>
    </TTGlyph>
    <TTGlyph name="Alphadasiaprosgegrammeni-grek" xMin="0" yMin="-407" xMax="1574" yMax="1640">
      <contour>
        <pt x="976" y="-178" on="1"/>
        <pt x="1014" y="-218" on="0"/>
        <pt x="1014" y="-273" on="1"/>
        <pt x="1014" y="-326" on="0"/>
        <pt x="976" y="-366" on="1"/>
        <pt x="938" y="-407" on="0"/>
        <pt x="881" y="-407" on="1"/>
        <pt x="831" y="-407" on="0"/>
        <pt x="791" y="-366" on="1"/>
        <pt x="752" y="-326" on="0"/>
        <pt x="752" y="-271" on="1"/>
        <pt x="752" y="-218" on="0"/>
        <pt x="791" y="-178" on="1"/>
        <pt x="831" y="-137" on="0"/>
        <pt x="881" y="-137" on="1"/>
        <pt x="938" y="-137" on="0"/>
      </contour>
      <contour>
        <pt x="694" y="623" on="1"/>
        <pt x="1015" y="627" on="1"/>
        <pt x="882" y="1005" on="1"/>
        <pt x="837" y="1005" on="1"/>
      </contour>
      <contour>
        <pt x="905" y="1352" on="1"/>
        <pt x="980" y="1352" on="0"/>
        <pt x="1009" y="1288" on="1"/>
        <pt x="1507" y="176" on="1"/>
        <pt x="1574" y="176" on="0"/>
        <pt x="1574" y="125" on="1"/>
        <pt x="1574" y="51" on="1"/>
        <pt x="1574" y="0" on="0"/>
        <pt x="1525" y="0" on="1"/>
        <pt x="1419" y="0" on="1"/>
        <pt x="1390" y="29" on="0"/>
        <pt x="1363" y="28" on="1"/>
        <pt x="1343" y="27" on="0"/>
        <pt x="1311" y="0" on="1"/>
        <pt x="1203" y="0" on="1"/>
        <pt x="1156" y="0" on="0"/>
        <pt x="1156" y="52" on="1"/>
        <pt x="1156" y="145" on="1"/>
        <pt x="1156" y="176" on="0"/>
        <pt x="1220" y="176" on="1"/>
        <pt x="1099" y="467" on="1"/>
        <pt x="716" y="463" on="1"/>
        <pt x="597" y="176" on="1"/>
        <pt x="665" y="176" on="0"/>
        <pt x="665" y="137" on="1"/>
        <pt x="665" y="51" on="1"/>
        <pt x="665" y="0" on="0"/>
        <pt x="620" y="0" on="1"/>
        <pt x="616" y="0" on="1"/>
        <pt x="524" y="0" on="1"/>
        <pt x="498" y="27" on="0"/>
        <pt x="469" y="28" on="1"/>
        <pt x="448" y="29" on="0"/>
        <pt x="417" y="0" on="1"/>
        <pt x="319" y="0" on="1"/>
        <pt x="297" y="0" on="0"/>
        <pt x="276" y="22" on="0"/>
        <pt x="276" y="45" on="1"/>
        <pt x="276" y="127" on="1"/>
        <pt x="276" y="176" on="0"/>
        <pt x="339" y="176" on="1"/>
        <pt x="771" y="1292" on="1"/>
        <pt x="794" y="1352" on="0"/>
      </contour>
      <contour>
        <pt x="473" y="1466" on="1"/>
        <pt x="427" y="1440" on="0"/>
        <pt x="414" y="1439" on="1"/>
        <pt x="360" y="1427" on="1"/>
        <pt x="318" y="1417" on="0"/>
        <pt x="300" y="1393" on="1"/>
        <pt x="272" y="1356" on="0"/>
        <pt x="272" y="1337" on="1"/>
        <pt x="272" y="1247" on="0"/>
        <pt x="308" y="1195" on="1"/>
        <pt x="326" y="1169" on="0"/>
        <pt x="378" y="1153" on="1"/>
        <pt x="441" y="1133" on="0"/>
        <pt x="525" y="1071" on="1"/>
        <pt x="581" y="1030" on="0"/>
        <pt x="581" y="1004" on="1"/>
        <pt x="581" y="976" on="0"/>
        <pt x="554" y="964" on="1"/>
        <pt x="490" y="936" on="0"/>
        <pt x="436" y="936" on="1"/>
        <pt x="344" y="936" on="0"/>
        <pt x="275" y="963" on="1"/>
        <pt x="196" y="994" on="0"/>
        <pt x="124" y="1052" on="1"/>
        <pt x="63" y="1101" on="0"/>
        <pt x="42" y="1158" on="1"/>
        <pt x="0" y="1272" on="0"/>
        <pt x="0" y="1329" on="1"/>
        <pt x="0" y="1403" on="0"/>
        <pt x="62" y="1536" on="1"/>
        <pt x="89" y="1594" on="0"/>
        <pt x="236" y="1622" on="1"/>
        <pt x="330" y="1640" on="0"/>
        <pt x="429" y="1640" on="1"/>
        <pt x="430" y="1640" on="0"/>
        <pt x="503" y="1629" on="1"/>
        <pt x="587" y="1617" on="0"/>
        <pt x="587" y="1580" on="1"/>
        <pt x="587" y="1531" on="0"/>
      </contour>
    </TTGlyph>
    <TTGlyph name="Alphadasiavaria-grek" xMin="0" yMin="0" xMax="2089" yMax="1642">
      <contour>
        <pt x="1209" y="623" on="1"/>
        <pt x="1530" y="627" on="1"/>
        <pt x="1397" y="1005" on="1"/>
        <pt x="1352" y="1005" on="1"/>
      </contour>
      <contour>
        <pt x="1420" y="1352" on="1"/>
        <pt x="1495" y="1352" on="0"/>
        <pt x="1524" y="1288" on="1"/>
        <pt x="2022" y="176" on="1"/>
        <pt x="2089" y="176" on="0"/>
        <pt x="2089" y="125" on="1"/>
        <pt x="2089" y="51" on="1"/>
        <pt x="2089" y="0" on="0"/>
        <pt x="2040" y="0" on="1"/>
        <pt x="1934" y="0" on="1"/>
        <pt x="1905" y="29" on="0"/>
        <pt x="1878" y="28" on="1"/>
        <pt x="1858" y="27" on="0"/>
        <pt x="1826" y="0" on="1"/>
        <pt x="1718" y="0" on="1"/>
        <pt x="1671" y="0" on="0"/>
        <pt x="1671" y="52" on="1"/>
        <pt x="1671" y="145" on="1"/>
        <pt x="1671" y="176" on="0"/>
        <pt x="1735" y="176" on="1"/>
        <pt x="1614" y="467" on="1"/>
        <pt x="1231" y="463" on="1"/>
        <pt x="1112" y="176" on="1"/>
        <pt x="1180" y="176" on="0"/>
        <pt x="1180" y="137" on="1"/>
        <pt x="1180" y="51" on="1"/>
        <pt x="1180" y="0" on="0"/>
        <pt x="1135" y="0" on="1"/>
        <pt x="1131" y="0" on="1"/>
        <pt x="1039" y="0" on="1"/>
        <pt x="1013" y="27" on="0"/>
        <pt x="984" y="28" on="1"/>
        <pt x="963" y="29" on="0"/>
        <pt x="932" y="0" on="1"/>
        <pt x="834" y="0" on="1"/>
        <pt x="812" y="0" on="0"/>
        <pt x="791" y="22" on="0"/>
        <pt x="791" y="45" on="1"/>
        <pt x="791" y="127" on="1"/>
        <pt x="791" y="176" on="0"/>
        <pt x="854" y="176" on="1"/>
        <pt x="1286" y="1292" on="1"/>
        <pt x="1309" y="1352" on="0"/>
      </contour>
      <contour>
        <pt x="909" y="1536" on="1"/>
        <pt x="909" y="1536" on="0"/>
        <pt x="1065" y="1186" on="1"/>
        <pt x="1135" y="1060" on="0"/>
        <pt x="1135" y="1000" on="0"/>
        <pt x="1065" y="976" on="1"/>
        <pt x="1007" y="956" on="0"/>
        <pt x="969" y="956" on="1"/>
        <pt x="859" y="956" on="0"/>
        <pt x="784" y="1120" on="1"/>
        <pt x="611" y="1498" on="0"/>
        <pt x="611" y="1638" on="0"/>
        <pt x="756" y="1638" on="1"/>
        <pt x="864" y="1638" on="0"/>
      </contour>
      <contour>
        <pt x="473" y="1468" on="1"/>
        <pt x="427" y="1442" on="0"/>
        <pt x="414" y="1441" on="1"/>
        <pt x="360" y="1429" on="1"/>
        <pt x="318" y="1419" on="0"/>
        <pt x="300" y="1395" on="1"/>
        <pt x="272" y="1358" on="0"/>
        <pt x="272" y="1339" on="1"/>
        <pt x="272" y="1249" on="0"/>
        <pt x="308" y="1197" on="1"/>
        <pt x="326" y="1171" on="0"/>
        <pt x="378" y="1155" on="1"/>
        <pt x="441" y="1135" on="0"/>
        <pt x="525" y="1073" on="1"/>
        <pt x="581" y="1032" on="0"/>
        <pt x="581" y="1006" on="1"/>
        <pt x="581" y="978" on="0"/>
        <pt x="554" y="966" on="1"/>
        <pt x="490" y="938" on="0"/>
        <pt x="436" y="938" on="1"/>
        <pt x="344" y="938" on="0"/>
        <pt x="275" y="965" on="1"/>
        <pt x="196" y="996" on="0"/>
        <pt x="124" y="1054" on="1"/>
        <pt x="63" y="1103" on="0"/>
        <pt x="42" y="1160" on="1"/>
        <pt x="0" y="1274" on="0"/>
        <pt x="0" y="1331" on="1"/>
        <pt x="0" y="1405" on="0"/>
        <pt x="62" y="1538" on="1"/>
        <pt x="89" y="1596" on="0"/>
        <pt x="236" y="1624" on="1"/>
        <pt x="330" y="1642" on="0"/>
        <pt x="429" y="1642" on="1"/>
        <pt x="430" y="1642" on="0"/>
        <pt x="503" y="1631" on="1"/>
        <pt x="587" y="1619" on="0"/>
        <pt x="587" y="1582" on="1"/>
        <pt x="587" y="1533" on="0"/>
      </contour>
    </TTGlyph>
    <TTGlyph name="Alphadasiavariaprosgegrammeni-grek" xMin="0" yMin="-406" xMax="2089" yMax="1642">
      <contour>
        <pt x="1472" y="-177" on="1"/>
        <pt x="1510" y="-217" on="0"/>
        <pt x="1510" y="-272" on="1"/>
        <pt x="1510" y="-325" on="0"/>
        <pt x="1472" y="-365" on="1"/>
        <pt x="1434" y="-406" on="0"/>
        <pt x="1377" y="-406" on="1"/>
        <pt x="1327" y="-406" on="0"/>
        <pt x="1287" y="-365" on="1"/>
        <pt x="1248" y="-325" on="0"/>
        <pt x="1248" y="-270" on="1"/>
        <pt x="1248" y="-217" on="0"/>
        <pt x="1287" y="-177" on="1"/>
        <pt x="1327" y="-136" on="0"/>
        <pt x="1377" y="-136" on="1"/>
        <pt x="1434" y="-136" on="0"/>
      </contour>
      <contour>
        <pt x="1209" y="623" on="1"/>
        <pt x="1530" y="627" on="1"/>
        <pt x="1397" y="1005" on="1"/>
        <pt x="1352" y="1005" on="1"/>
      </contour>
      <contour>
        <pt x="1420" y="1352" on="1"/>
        <pt x="1495" y="1352" on="0"/>
        <pt x="1524" y="1288" on="1"/>
        <pt x="2022" y="176" on="1"/>
        <pt x="2089" y="176" on="0"/>
        <pt x="2089" y="125" on="1"/>
        <pt x="2089" y="51" on="1"/>
        <pt x="2089" y="0" on="0"/>
        <pt x="2040" y="0" on="1"/>
        <pt x="1934" y="0" on="1"/>
        <pt x="1905" y="29" on="0"/>
        <pt x="1878" y="28" on="1"/>
        <pt x="1858" y="27" on="0"/>
        <pt x="1826" y="0" on="1"/>
        <pt x="1718" y="0" on="1"/>
        <pt x="1671" y="0" on="0"/>
        <pt x="1671" y="52" on="1"/>
        <pt x="1671" y="145" on="1"/>
        <pt x="1671" y="176" on="0"/>
        <pt x="1735" y="176" on="1"/>
        <pt x="1614" y="467" on="1"/>
        <pt x="1231" y="463" on="1"/>
        <pt x="1112" y="176" on="1"/>
        <pt x="1180" y="176" on="0"/>
        <pt x="1180" y="137" on="1"/>
        <pt x="1180" y="51" on="1"/>
        <pt x="1180" y="0" on="0"/>
        <pt x="1135" y="0" on="1"/>
        <pt x="1131" y="0" on="1"/>
        <pt x="1039" y="0" on="1"/>
        <pt x="1013" y="27" on="0"/>
        <pt x="984" y="28" on="1"/>
        <pt x="963" y="29" on="0"/>
        <pt x="932" y="0" on="1"/>
        <pt x="834" y="0" on="1"/>
        <pt x="812" y="0" on="0"/>
        <pt x="791" y="22" on="0"/>
        <pt x="791" y="45" on="1"/>
        <pt x="791" y="127" on="1"/>
        <pt x="791" y="176" on="0"/>
        <pt x="854" y="176" on="1"/>
        <pt x="1286" y="1292" on="1"/>
        <pt x="1309" y="1352" on="0"/>
      </contour>
      <contour>
        <pt x="909" y="1536" on="1"/>
        <pt x="909" y="1536" on="0"/>
        <pt x="1065" y="1186" on="1"/>
        <pt x="1135" y="1060" on="0"/>
        <pt x="1135" y="1000" on="0"/>
        <pt x="1065" y="976" on="1"/>
        <pt x="1007" y="956" on="0"/>
        <pt x="969" y="956" on="1"/>
        <pt x="859" y="956" on="0"/>
        <pt x="784" y="1120" on="1"/>
        <pt x="611" y="1498" on="0"/>
        <pt x="611" y="1638" on="0"/>
        <pt x="756" y="1638" on="1"/>
        <pt x="864" y="1638" on="0"/>
      </contour>
      <contour>
        <pt x="473" y="1468" on="1"/>
        <pt x="427" y="1442" on="0"/>
        <pt x="414" y="1441" on="1"/>
        <pt x="360" y="1429" on="1"/>
        <pt x="318" y="1419" on="0"/>
        <pt x="300" y="1395" on="1"/>
        <pt x="272" y="1358" on="0"/>
        <pt x="272" y="1339" on="1"/>
        <pt x="272" y="1249" on="0"/>
        <pt x="308" y="1197" on="1"/>
        <pt x="326" y="1171" on="0"/>
        <pt x="378" y="1155" on="1"/>
        <pt x="441" y="1135" on="0"/>
        <pt x="525" y="1073" on="1"/>
        <pt x="581" y="1032" on="0"/>
        <pt x="581" y="1006" on="1"/>
        <pt x="581" y="978" on="0"/>
        <pt x="554" y="966" on="1"/>
        <pt x="490" y="938" on="0"/>
        <pt x="436" y="938" on="1"/>
        <pt x="344" y="938" on="0"/>
        <pt x="275" y="965" on="1"/>
        <pt x="196" y="996" on="0"/>
        <pt x="124" y="1054" on="1"/>
        <pt x="63" y="1103" on="0"/>
        <pt x="42" y="1160" on="1"/>
        <pt x="0" y="1274" on="0"/>
        <pt x="0" y="1331" on="1"/>
        <pt x="0" y="1405" on="0"/>
        <pt x="62" y="1538" on="1"/>
        <pt x="89" y="1596" on="0"/>
        <pt x="236" y="1624" on="1"/>
        <pt x="330" y="1642" on="0"/>
        <pt x="429" y="1642" on="1"/>
        <pt x="430" y="1642" on="0"/>
        <pt x="503" y="1631" on="1"/>
        <pt x="587" y="1619" on="0"/>
        <pt x="587" y="1582" on="1"/>
        <pt x="587" y="1533" on="0"/>
      </contour>
    </TTGlyph>
    <TTGlyph name="Alphamacron-grek" xMin="0" yMin="0" xMax="1298" yMax="1710">
      <contour>
        <pt x="418" y="623" on="1"/>
        <pt x="739" y="627" on="1"/>
        <pt x="606" y="1005" on="1"/>
        <pt x="561" y="1005" on="1"/>
      </contour>
      <contour>
        <pt x="629" y="1352" on="1"/>
        <pt x="704" y="1352" on="0"/>
        <pt x="733" y="1288" on="1"/>
        <pt x="1231" y="176" on="1"/>
        <pt x="1298" y="176" on="0"/>
        <pt x="1298" y="125" on="1"/>
        <pt x="1298" y="51" on="1"/>
        <pt x="1298" y="0" on="0"/>
        <pt x="1249" y="0" on="1"/>
        <pt x="1143" y="0" on="1"/>
        <pt x="1114" y="29" on="0"/>
        <pt x="1087" y="28" on="1"/>
        <pt x="1067" y="27" on="0"/>
        <pt x="1035" y="0" on="1"/>
        <pt x="927" y="0" on="1"/>
        <pt x="880" y="0" on="0"/>
        <pt x="880" y="52" on="1"/>
        <pt x="880" y="145" on="1"/>
        <pt x="880" y="176" on="0"/>
        <pt x="944" y="176" on="1"/>
        <pt x="823" y="467" on="1"/>
        <pt x="440" y="463" on="1"/>
        <pt x="321" y="176" on="1"/>
        <pt x="389" y="176" on="0"/>
        <pt x="389" y="137" on="1"/>
        <pt x="389" y="51" on="1"/>
        <pt x="389" y="0" on="0"/>
        <pt x="344" y="0" on="1"/>
        <pt x="340" y="0" on="1"/>
        <pt x="248" y="0" on="1"/>
        <pt x="222" y="27" on="0"/>
        <pt x="193" y="28" on="1"/>
        <pt x="172" y="29" on="0"/>
        <pt x="141" y="0" on="1"/>
        <pt x="43" y="0" on="1"/>
        <pt x="21" y="0" on="0"/>
        <pt x="0" y="22" on="0"/>
        <pt x="0" y="45" on="1"/>
        <pt x="0" y="127" on="1"/>
        <pt x="0" y="176" on="0"/>
        <pt x="63" y="176" on="1"/>
        <pt x="495" y="1292" on="1"/>
        <pt x="518" y="1352" on="0"/>
      </contour>
      <contour>
        <pt x="1028" y="1710" on="1"/>
        <pt x="1031" y="1671" on="0"/>
        <pt x="1031" y="1631" on="1"/>
        <pt x="1030" y="1547" on="0"/>
        <pt x="1020" y="1474" on="1"/>
        <pt x="232" y="1474" on="1"/>
        <pt x="226" y="1539" on="0"/>
        <pt x="226" y="1604" on="1"/>
        <pt x="226" y="1656" on="0"/>
        <pt x="230" y="1710" on="1"/>
      </contour>
    </TTGlyph>
    <TTGlyph name="Alphaoxia-grek" xMin="0" yMin="0" xMax="1298" yMax="1641">
      <contour>
        <pt x="418" y="623" on="1"/>
        <pt x="739" y="627" on="1"/>
        <pt x="606" y="1005" on="1"/>
        <pt x="561" y="1005" on="1"/>
      </contour>
      <contour>
        <pt x="629" y="1352" on="1"/>
        <pt x="704" y="1352" on="0"/>
        <pt x="733" y="1288" on="1"/>
        <pt x="1231" y="176" on="1"/>
        <pt x="1298" y="176" on="0"/>
        <pt x="1298" y="125" on="1"/>
        <pt x="1298" y="51" on="1"/>
        <pt x="1298" y="0" on="0"/>
        <pt x="1249" y="0" on="1"/>
        <pt x="1143" y="0" on="1"/>
        <pt x="1114" y="29" on="0"/>
        <pt x="1087" y="28" on="1"/>
        <pt x="1067" y="27" on="0"/>
        <pt x="1035" y="0" on="1"/>
        <pt x="927" y="0" on="1"/>
        <pt x="880" y="0" on="0"/>
        <pt x="880" y="52" on="1"/>
        <pt x="880" y="145" on="1"/>
        <pt x="880" y="176" on="0"/>
        <pt x="944" y="176" on="1"/>
        <pt x="823" y="467" on="1"/>
        <pt x="440" y="463" on="1"/>
        <pt x="321" y="176" on="1"/>
        <pt x="389" y="176" on="0"/>
        <pt x="389" y="137" on="1"/>
        <pt x="389" y="51" on="1"/>
        <pt x="389" y="0" on="0"/>
        <pt x="344" y="0" on="1"/>
        <pt x="340" y="0" on="1"/>
        <pt x="248" y="0" on="1"/>
        <pt x="222" y="27" on="0"/>
        <pt x="193" y="28" on="1"/>
        <pt x="172" y="29" on="0"/>
        <pt x="141" y="0" on="1"/>
        <pt x="43" y="0" on="1"/>
        <pt x="21" y="0" on="0"/>
        <pt x="0" y="22" on="0"/>
        <pt x="0" y="45" on="1"/>
        <pt x="0" y="127" on="1"/>
        <pt x="0" y="176" on="0"/>
        <pt x="63" y="176" on="1"/>
        <pt x="495" y="1292" on="1"/>
        <pt x="518" y="1352" on="0"/>
      </contour>
      <contour>
        <pt x="227" y="1539" on="1"/>
        <pt x="272" y="1641" on="0"/>
        <pt x="380" y="1641" on="1"/>
        <pt x="525" y="1641" on="0"/>
        <pt x="525" y="1501" on="0"/>
        <pt x="352" y="1123" on="1"/>
        <pt x="277" y="959" on="0"/>
        <pt x="167" y="959" on="1"/>
        <pt x="129" y="959" on="0"/>
        <pt x="71" y="979" on="1"/>
        <pt x="1" y="1003" on="0"/>
        <pt x="1" y="1063" on="0"/>
        <pt x="71" y="1189" on="1"/>
      </contour>
    </TTGlyph>
    <TTGlyph name="Alphaprosgegrammeni-grek" xMin="0" yMin="-416" xMax="1298" yMax="1352">
      <contour>
        <pt x="717" y="-187" on="1"/>
        <pt x="755" y="-227" on="0"/>
        <pt x="755" y="-282" on="1"/>
        <pt x="755" y="-335" on="0"/>
        <pt x="717" y="-375" on="1"/>
        <pt x="679" y="-416" on="0"/>
        <pt x="622" y="-416" on="1"/>
        <pt x="572" y="-416" on="0"/>
        <pt x="532" y="-375" on="1"/>
        <pt x="493" y="-335" on="0"/>
        <pt x="493" y="-280" on="1"/>
        <pt x="493" y="-227" on="0"/>
        <pt x="532" y="-187" on="1"/>
        <pt x="572" y="-146" on="0"/>
        <pt x="622" y="-146" on="1"/>
        <pt x="679" y="-146" on="0"/>
      </contour>
      <contour>
        <pt x="418" y="623" on="1"/>
        <pt x="739" y="627" on="1"/>
        <pt x="606" y="1005" on="1"/>
        <pt x="561" y="1005" on="1"/>
      </contour>
      <contour>
        <pt x="629" y="1352" on="1"/>
        <pt x="704" y="1352" on="0"/>
        <pt x="733" y="1288" on="1"/>
        <pt x="1231" y="176" on="1"/>
        <pt x="1298" y="176" on="0"/>
        <pt x="1298" y="125" on="1"/>
        <pt x="1298" y="51" on="1"/>
        <pt x="1298" y="0" on="0"/>
        <pt x="1249" y="0" on="1"/>
        <pt x="1143" y="0" on="1"/>
        <pt x="1114" y="29" on="0"/>
        <pt x="1087" y="28" on="1"/>
        <pt x="1067" y="27" on="0"/>
        <pt x="1035" y="0" on="1"/>
        <pt x="927" y="0" on="1"/>
        <pt x="880" y="0" on="0"/>
        <pt x="880" y="52" on="1"/>
        <pt x="880" y="145" on="1"/>
        <pt x="880" y="176" on="0"/>
        <pt x="944" y="176" on="1"/>
        <pt x="823" y="467" on="1"/>
        <pt x="440" y="463" on="1"/>
        <pt x="321" y="176" on="1"/>
        <pt x="389" y="176" on="0"/>
        <pt x="389" y="137" on="1"/>
        <pt x="389" y="51" on="1"/>
        <pt x="389" y="0" on="0"/>
        <pt x="344" y="0" on="1"/>
        <pt x="340" y="0" on="1"/>
        <pt x="248" y="0" on="1"/>
        <pt x="222" y="27" on="0"/>
        <pt x="193" y="28" on="1"/>
        <pt x="172" y="29" on="0"/>
        <pt x="141" y="0" on="1"/>
        <pt x="43" y="0" on="1"/>
        <pt x="21" y="0" on="0"/>
        <pt x="0" y="22" on="0"/>
        <pt x="0" y="45" on="1"/>
        <pt x="0" y="127" on="1"/>
        <pt x="0" y="176" on="0"/>
        <pt x="63" y="176" on="1"/>
        <pt x="495" y="1292" on="1"/>
        <pt x="518" y="1352" on="0"/>
      </contour>
    </TTGlyph>
    <TTGlyph name="Alphapsili-grek" xMin="0" yMin="0" xMax="1454" yMax="1637">
      <contour>
        <pt x="574" y="623" on="1"/>
        <pt x="895" y="627" on="1"/>
        <pt x="762" y="1005" on="1"/>
        <pt x="717" y="1005" on="1"/>
      </contour>
      <contour>
        <pt x="785" y="1352" on="1"/>
        <pt x="860" y="1352" on="0"/>
        <pt x="889" y="1288" on="1"/>
        <pt x="1387" y="176" on="1"/>
        <pt x="1454" y="176" on="0"/>
        <pt x="1454" y="125" on="1"/>
        <pt x="1454" y="51" on="1"/>
        <pt x="1454" y="0" on="0"/>
        <pt x="1405" y="0" on="1"/>
        <pt x="1299" y="0" on="1"/>
        <pt x="1270" y="29" on="0"/>
        <pt x="1243" y="28" on="1"/>
        <pt x="1223" y="27" on="0"/>
        <pt x="1191" y="0" on="1"/>
        <pt x="1083" y="0" on="1"/>
        <pt x="1036" y="0" on="0"/>
        <pt x="1036" y="52" on="1"/>
        <pt x="1036" y="145" on="1"/>
        <pt x="1036" y="176" on="0"/>
        <pt x="1100" y="176" on="1"/>
        <pt x="979" y="467" on="1"/>
        <pt x="596" y="463" on="1"/>
        <pt x="477" y="176" on="1"/>
        <pt x="545" y="176" on="0"/>
        <pt x="545" y="137" on="1"/>
        <pt x="545" y="51" on="1"/>
        <pt x="545" y="0" on="0"/>
        <pt x="500" y="0" on="1"/>
        <pt x="496" y="0" on="1"/>
        <pt x="404" y="0" on="1"/>
        <pt x="378" y="27" on="0"/>
        <pt x="349" y="28" on="1"/>
        <pt x="328" y="29" on="0"/>
        <pt x="297" y="0" on="1"/>
        <pt x="199" y="0" on="1"/>
        <pt x="177" y="0" on="0"/>
        <pt x="156" y="22" on="0"/>
        <pt x="156" y="45" on="1"/>
        <pt x="156" y="127" on="1"/>
        <pt x="156" y="176" on="0"/>
        <pt x="219" y="176" on="1"/>
        <pt x="651" y="1292" on="1"/>
        <pt x="674" y="1352" on="0"/>
      </contour>
      <contour>
        <pt x="114" y="1463" on="1"/>
        <pt x="0" y="1528" on="0"/>
        <pt x="0" y="1577" on="1"/>
        <pt x="0" y="1614" on="0"/>
        <pt x="84" y="1626" on="1"/>
        <pt x="157" y="1637" on="0"/>
        <pt x="158" y="1637" on="1"/>
        <pt x="257" y="1637" on="0"/>
        <pt x="351" y="1619" on="1"/>
        <pt x="498" y="1591" on="0"/>
        <pt x="525" y="1533" on="1"/>
        <pt x="587" y="1400" on="0"/>
        <pt x="587" y="1326" on="1"/>
        <pt x="587" y="1269" on="0"/>
        <pt x="545" y="1155" on="1"/>
        <pt x="524" y="1098" on="0"/>
        <pt x="463" y="1049" on="1"/>
        <pt x="391" y="991" on="0"/>
        <pt x="312" y="960" on="1"/>
        <pt x="243" y="933" on="0"/>
        <pt x="151" y="933" on="1"/>
        <pt x="97" y="933" on="0"/>
        <pt x="33" y="961" on="1"/>
        <pt x="6" y="973" on="0"/>
        <pt x="6" y="1001" on="1"/>
        <pt x="6" y="1027" on="0"/>
        <pt x="62" y="1068" on="1"/>
        <pt x="146" y="1130" on="0"/>
        <pt x="209" y="1150" on="1"/>
        <pt x="261" y="1166" on="0"/>
        <pt x="279" y="1192" on="1"/>
        <pt x="315" y="1244" on="0"/>
        <pt x="315" y="1334" on="1"/>
        <pt x="315" y="1353" on="0"/>
        <pt x="287" y="1390" on="1"/>
        <pt x="269" y="1414" on="0"/>
        <pt x="227" y="1424" on="1"/>
        <pt x="173" y="1436" on="1"/>
        <pt x="160" y="1437" on="0"/>
      </contour>
    </TTGlyph>
    <TTGlyph name="Alphapsilioxia-grek" xMin="0" yMin="0" xMax="1818" yMax="1639">
      <contour>
        <pt x="938" y="623" on="1"/>
        <pt x="1259" y="627" on="1"/>
        <pt x="1126" y="1005" on="1"/>
        <pt x="1081" y="1005" on="1"/>
      </contour>
      <contour>
        <pt x="1149" y="1352" on="1"/>
        <pt x="1224" y="1352" on="0"/>
        <pt x="1253" y="1288" on="1"/>
        <pt x="1751" y="176" on="1"/>
        <pt x="1818" y="176" on="0"/>
        <pt x="1818" y="125" on="1"/>
        <pt x="1818" y="51" on="1"/>
        <pt x="1818" y="0" on="0"/>
        <pt x="1769" y="0" on="1"/>
        <pt x="1663" y="0" on="1"/>
        <pt x="1634" y="29" on="0"/>
        <pt x="1607" y="28" on="1"/>
        <pt x="1587" y="27" on="0"/>
        <pt x="1555" y="0" on="1"/>
        <pt x="1447" y="0" on="1"/>
        <pt x="1400" y="0" on="0"/>
        <pt x="1400" y="52" on="1"/>
        <pt x="1400" y="145" on="1"/>
        <pt x="1400" y="176" on="0"/>
        <pt x="1464" y="176" on="1"/>
        <pt x="1343" y="467" on="1"/>
        <pt x="960" y="463" on="1"/>
        <pt x="841" y="176" on="1"/>
        <pt x="909" y="176" on="0"/>
        <pt x="909" y="137" on="1"/>
        <pt x="909" y="51" on="1"/>
        <pt x="909" y="0" on="0"/>
        <pt x="864" y="0" on="1"/>
        <pt x="860" y="0" on="1"/>
        <pt x="768" y="0" on="1"/>
        <pt x="742" y="27" on="0"/>
        <pt x="713" y="28" on="1"/>
        <pt x="692" y="29" on="0"/>
        <pt x="661" y="0" on="1"/>
        <pt x="563" y="0" on="1"/>
        <pt x="541" y="0" on="0"/>
        <pt x="520" y="22" on="0"/>
        <pt x="520" y="45" on="1"/>
        <pt x="520" y="127" on="1"/>
        <pt x="520" y="176" on="0"/>
        <pt x="583" y="176" on="1"/>
        <pt x="1015" y="1292" on="1"/>
        <pt x="1038" y="1352" on="0"/>
      </contour>
      <contour>
        <pt x="747" y="1529" on="1"/>
        <pt x="792" y="1631" on="0"/>
        <pt x="900" y="1631" on="1"/>
        <pt x="1045" y="1631" on="0"/>
        <pt x="1045" y="1491" on="0"/>
        <pt x="872" y="1113" on="1"/>
        <pt x="797" y="949" on="0"/>
        <pt x="687" y="949" on="1"/>
        <pt x="649" y="949" on="0"/>
        <pt x="591" y="969" on="1"/>
        <pt x="521" y="993" on="0"/>
        <pt x="521" y="1053" on="0"/>
        <pt x="591" y="1179" on="1"/>
      </contour>
      <contour>
        <pt x="114" y="1465" on="1"/>
        <pt x="0" y="1530" on="0"/>
        <pt x="0" y="1579" on="1"/>
        <pt x="0" y="1616" on="0"/>
        <pt x="84" y="1628" on="1"/>
        <pt x="157" y="1639" on="0"/>
        <pt x="158" y="1639" on="1"/>
        <pt x="257" y="1639" on="0"/>
        <pt x="351" y="1621" on="1"/>
        <pt x="498" y="1593" on="0"/>
        <pt x="525" y="1535" on="1"/>
        <pt x="587" y="1402" on="0"/>
        <pt x="587" y="1328" on="1"/>
        <pt x="587" y="1271" on="0"/>
        <pt x="545" y="1157" on="1"/>
        <pt x="524" y="1100" on="0"/>
        <pt x="463" y="1051" on="1"/>
        <pt x="391" y="993" on="0"/>
        <pt x="312" y="962" on="1"/>
        <pt x="243" y="935" on="0"/>
        <pt x="151" y="935" on="1"/>
        <pt x="97" y="935" on="0"/>
        <pt x="33" y="963" on="1"/>
        <pt x="6" y="975" on="0"/>
        <pt x="6" y="1003" on="1"/>
        <pt x="6" y="1029" on="0"/>
        <pt x="62" y="1070" on="1"/>
        <pt x="146" y="1132" on="0"/>
        <pt x="209" y="1152" on="1"/>
        <pt x="261" y="1168" on="0"/>
        <pt x="279" y="1194" on="1"/>
        <pt x="315" y="1246" on="0"/>
        <pt x="315" y="1336" on="1"/>
        <pt x="315" y="1355" on="0"/>
        <pt x="287" y="1392" on="1"/>
        <pt x="269" y="1416" on="0"/>
        <pt x="227" y="1426" on="1"/>
        <pt x="173" y="1438" on="1"/>
        <pt x="160" y="1439" on="0"/>
      </contour>
    </TTGlyph>
    <TTGlyph name="Alphapsilioxiaprosgegrammeni-grek" xMin="0" yMin="-408" xMax="1818" yMax="1639">
      <contour>
        <pt x="1215" y="-179" on="1"/>
        <pt x="1253" y="-219" on="0"/>
        <pt x="1253" y="-274" on="1"/>
        <pt x="1253" y="-327" on="0"/>
        <pt x="1215" y="-367" on="1"/>
        <pt x="1177" y="-408" on="0"/>
        <pt x="1120" y="-408" on="1"/>
        <pt x="1070" y="-408" on="0"/>
        <pt x="1030" y="-367" on="1"/>
        <pt x="991" y="-327" on="0"/>
        <pt x="991" y="-272" on="1"/>
        <pt x="991" y="-219" on="0"/>
        <pt x="1030" y="-179" on="1"/>
        <pt x="1070" y="-138" on="0"/>
        <pt x="1120" y="-138" on="1"/>
        <pt x="1177" y="-138" on="0"/>
      </contour>
      <contour>
        <pt x="938" y="623" on="1"/>
        <pt x="1259" y="627" on="1"/>
        <pt x="1126" y="1005" on="1"/>
        <pt x="1081" y="1005" on="1"/>
      </contour>
      <contour>
        <pt x="1149" y="1352" on="1"/>
        <pt x="1224" y="1352" on="0"/>
        <pt x="1253" y="1288" on="1"/>
        <pt x="1751" y="176" on="1"/>
        <pt x="1818" y="176" on="0"/>
        <pt x="1818" y="125" on="1"/>
        <pt x="1818" y="51" on="1"/>
        <pt x="1818" y="0" on="0"/>
        <pt x="1769" y="0" on="1"/>
        <pt x="1663" y="0" on="1"/>
        <pt x="1634" y="29" on="0"/>
        <pt x="1607" y="28" on="1"/>
        <pt x="1587" y="27" on="0"/>
        <pt x="1555" y="0" on="1"/>
        <pt x="1447" y="0" on="1"/>
        <pt x="1400" y="0" on="0"/>
        <pt x="1400" y="52" on="1"/>
        <pt x="1400" y="145" on="1"/>
        <pt x="1400" y="176" on="0"/>
        <pt x="1464" y="176" on="1"/>
        <pt x="1343" y="467" on="1"/>
        <pt x="960" y="463" on="1"/>
        <pt x="841" y="176" on="1"/>
        <pt x="909" y="176" on="0"/>
        <pt x="909" y="137" on="1"/>
        <pt x="909" y="51" on="1"/>
        <pt x="909" y="0" on="0"/>
        <pt x="864" y="0" on="1"/>
        <pt x="860" y="0" on="1"/>
        <pt x="768" y="0" on="1"/>
        <pt x="742" y="27" on="0"/>
        <pt x="713" y="28" on="1"/>
        <pt x="692" y="29" on="0"/>
        <pt x="661" y="0" on="1"/>
        <pt x="563" y="0" on="1"/>
        <pt x="541" y="0" on="0"/>
        <pt x="520" y="22" on="0"/>
        <pt x="520" y="45" on="1"/>
        <pt x="520" y="127" on="1"/>
        <pt x="520" y="176" on="0"/>
        <pt x="583" y="176" on="1"/>
        <pt x="1015" y="1292" on="1"/>
        <pt x="1038" y="1352" on="0"/>
      </contour>
      <contour>
        <pt x="747" y="1529" on="1"/>
        <pt x="792" y="1631" on="0"/>
        <pt x="900" y="1631" on="1"/>
        <pt x="1045" y="1631" on="0"/>
        <pt x="1045" y="1491" on="0"/>
        <pt x="872" y="1113" on="1"/>
        <pt x="797" y="949" on="0"/>
        <pt x="687" y="949" on="1"/>
        <pt x="649" y="949" on="0"/>
        <pt x="591" y="969" on="1"/>
        <pt x="521" y="993" on="0"/>
        <pt x="521" y="1053" on="0"/>
        <pt x="591" y="1179" on="1"/>
      </contour>
      <contour>
        <pt x="114" y="1465" on="1"/>
        <pt x="0" y="1530" on="0"/>
        <pt x="0" y="1579" on="1"/>
        <pt x="0" y="1616" on="0"/>
        <pt x="84" y="1628" on="1"/>
        <pt x="157" y="1639" on="0"/>
        <pt x="158" y="1639" on="1"/>
        <pt x="257" y="1639" on="0"/>
        <pt x="351" y="1621" on="1"/>
        <pt x="498" y="1593" on="0"/>
        <pt x="525" y="1535" on="1"/>
        <pt x="587" y="1402" on="0"/>
        <pt x="587" y="1328" on="1"/>
        <pt x="587" y="1271" on="0"/>
        <pt x="545" y="1157" on="1"/>
        <pt x="524" y="1100" on="0"/>
        <pt x="463" y="1051" on="1"/>
        <pt x="391" y="993" on="0"/>
        <pt x="312" y="962" on="1"/>
        <pt x="243" y="935" on="0"/>
        <pt x="151" y="935" on="1"/>
        <pt x="97" y="935" on="0"/>
        <pt x="33" y="963" on="1"/>
        <pt x="6" y="975" on="0"/>
        <pt x="6" y="1003" on="1"/>
        <pt x="6" y="1029" on="0"/>
        <pt x="62" y="1070" on="1"/>
        <pt x="146" y="1132" on="0"/>
        <pt x="209" y="1152" on="1"/>
        <pt x="261" y="1168" on="0"/>
        <pt x="279" y="1194" on="1"/>
        <pt x="315" y="1246" on="0"/>
        <pt x="315" y="1336" on="1"/>
        <pt x="315" y="1355" on="0"/>
        <pt x="287" y="1392" on="1"/>
        <pt x="269" y="1416" on="0"/>
        <pt x="227" y="1426" on="1"/>
        <pt x="173" y="1438" on="1"/>
        <pt x="160" y="1439" on="0"/>
      </contour>
    </TTGlyph>
    <TTGlyph name="Alphapsiliperispomeni-grek" xMin="0" yMin="0" xMax="1642" yMax="2212">
      <contour>
        <pt x="762" y="623" on="1"/>
        <pt x="1083" y="627" on="1"/>
        <pt x="950" y="1005" on="1"/>
        <pt x="905" y="1005" on="1"/>
      </contour>
      <contour>
        <pt x="973" y="1352" on="1"/>
        <pt x="1048" y="1352" on="0"/>
        <pt x="1077" y="1288" on="1"/>
        <pt x="1575" y="176" on="1"/>
        <pt x="1642" y="176" on="0"/>
        <pt x="1642" y="125" on="1"/>
        <pt x="1642" y="51" on="1"/>
        <pt x="1642" y="0" on="0"/>
        <pt x="1593" y="0" on="1"/>
        <pt x="1487" y="0" on="1"/>
        <pt x="1458" y="29" on="0"/>
        <pt x="1431" y="28" on="1"/>
        <pt x="1411" y="27" on="0"/>
        <pt x="1379" y="0" on="1"/>
        <pt x="1271" y="0" on="1"/>
        <pt x="1224" y="0" on="0"/>
        <pt x="1224" y="52" on="1"/>
        <pt x="1224" y="145" on="1"/>
        <pt x="1224" y="176" on="0"/>
        <pt x="1288" y="176" on="1"/>
        <pt x="1167" y="467" on="1"/>
        <pt x="784" y="463" on="1"/>
        <pt x="665" y="176" on="1"/>
        <pt x="733" y="176" on="0"/>
        <pt x="733" y="137" on="1"/>
        <pt x="733" y="51" on="1"/>
        <pt x="733" y="0" on="0"/>
        <pt x="688" y="0" on="1"/>
        <pt x="684" y="0" on="1"/>
        <pt x="592" y="0" on="1"/>
        <pt x="566" y="27" on="0"/>
        <pt x="537" y="28" on="1"/>
        <pt x="516" y="29" on="0"/>
        <pt x="485" y="0" on="1"/>
        <pt x="387" y="0" on="1"/>
        <pt x="365" y="0" on="0"/>
        <pt x="344" y="22" on="0"/>
        <pt x="344" y="45" on="1"/>
        <pt x="344" y="127" on="1"/>
        <pt x="344" y="176" on="0"/>
        <pt x="407" y="176" on="1"/>
        <pt x="839" y="1292" on="1"/>
        <pt x="862" y="1352" on="0"/>
      </contour>
      <contour>
        <pt x="16" y="1979" on="1"/>
        <pt x="85" y="2083" on="0"/>
        <pt x="233" y="2179" on="1"/>
        <pt x="284" y="2212" on="0"/>
        <pt x="353" y="2212" on="1"/>
        <pt x="499" y="2212" on="0"/>
        <pt x="561" y="2105" on="1"/>
        <pt x="614" y="2014" on="0"/>
        <pt x="674" y="2014" on="1"/>
        <pt x="721" y="2014" on="0"/>
        <pt x="742" y="2053" on="1"/>
        <pt x="780" y="2125" on="0"/>
        <pt x="834" y="2125" on="1"/>
        <pt x="942" y="2125" on="0"/>
        <pt x="942" y="2005" on="1"/>
        <pt x="942" y="1956" on="0"/>
        <pt x="913" y="1901" on="1"/>
        <pt x="881" y="1840" on="0"/>
        <pt x="773" y="1796" on="1"/>
        <pt x="682" y="1759" on="0"/>
        <pt x="603" y="1759" on="1"/>
        <pt x="520" y="1759" on="0"/>
        <pt x="450" y="1867" on="1"/>
        <pt x="388" y="1962" on="0"/>
        <pt x="343" y="1962" on="1"/>
        <pt x="322" y="1962" on="0"/>
        <pt x="309" y="1942" on="1"/>
        <pt x="265" y="1877" on="0"/>
        <pt x="260" y="1872" on="1"/>
        <pt x="145" y="1773" on="0"/>
        <pt x="112" y="1773" on="1"/>
        <pt x="72" y="1773" on="0"/>
        <pt x="36" y="1829" on="1"/>
        <pt x="0" y="1886" on="0"/>
        <pt x="0" y="1955" on="0"/>
      </contour>
      <contour>
        <pt x="300" y="1466" on="1"/>
        <pt x="186" y="1531" on="0"/>
        <pt x="186" y="1580" on="1"/>
        <pt x="186" y="1617" on="0"/>
        <pt x="270" y="1629" on="1"/>
        <pt x="343" y="1640" on="0"/>
        <pt x="344" y="1640" on="1"/>
        <pt x="443" y="1640" on="0"/>
        <pt x="537" y="1622" on="1"/>
        <pt x="684" y="1594" on="0"/>
        <pt x="711" y="1536" on="1"/>
        <pt x="773" y="1403" on="0"/>
        <pt x="773" y="1329" on="1"/>
        <pt x="773" y="1272" on="0"/>
        <pt x="731" y="1158" on="1"/>
        <pt x="710" y="1101" on="0"/>
        <pt x="649" y="1052" on="1"/>
        <pt x="577" y="994" on="0"/>
        <pt x="498" y="963" on="1"/>
        <pt x="429" y="936" on="0"/>
        <pt x="337" y="936" on="1"/>
        <pt x="283" y="936" on="0"/>
        <pt x="219" y="964" on="1"/>
        <pt x="192" y="976" on="0"/>
        <pt x="192" y="1004" on="1"/>
        <pt x="192" y="1030" on="0"/>
        <pt x="248" y="1071" on="1"/>
        <pt x="332" y="1133" on="0"/>
        <pt x="395" y="1153" on="1"/>
        <pt x="447" y="1169" on="0"/>
        <pt x="465" y="1195" on="1"/>
        <pt x="501" y="1247" on="0"/>
        <pt x="501" y="1337" on="1"/>
        <pt x="501" y="1356" on="0"/>
        <pt x="473" y="1393" on="1"/>
        <pt x="455" y="1417" on="0"/>
        <pt x="413" y="1427" on="1"/>
        <pt x="359" y="1439" on="1"/>
        <pt x="346" y="1440" on="0"/>
      </contour>
    </TTGlyph>
    <TTGlyph name="Alphapsiliperispomeniprosgegrammeni-grek" xMin="0" yMin="-404" xMax="1642" yMax="2212">
      <contour>
        <pt x="1063" y="-175" on="1"/>
        <pt x="1101" y="-215" on="0"/>
        <pt x="1101" y="-270" on="1"/>
        <pt x="1101" y="-323" on="0"/>
        <pt x="1063" y="-363" on="1"/>
        <pt x="1025" y="-404" on="0"/>
        <pt x="968" y="-404" on="1"/>
        <pt x="918" y="-404" on="0"/>
        <pt x="878" y="-363" on="1"/>
        <pt x="839" y="-323" on="0"/>
        <pt x="839" y="-268" on="1"/>
        <pt x="839" y="-215" on="0"/>
        <pt x="878" y="-175" on="1"/>
        <pt x="918" y="-134" on="0"/>
        <pt x="968" y="-134" on="1"/>
        <pt x="1025" y="-134" on="0"/>
      </contour>
      <contour>
        <pt x="762" y="623" on="1"/>
        <pt x="1083" y="627" on="1"/>
        <pt x="950" y="1005" on="1"/>
        <pt x="905" y="1005" on="1"/>
      </contour>
      <contour>
        <pt x="973" y="1352" on="1"/>
        <pt x="1048" y="1352" on="0"/>
        <pt x="1077" y="1288" on="1"/>
        <pt x="1575" y="176" on="1"/>
        <pt x="1642" y="176" on="0"/>
        <pt x="1642" y="125" on="1"/>
        <pt x="1642" y="51" on="1"/>
        <pt x="1642" y="0" on="0"/>
        <pt x="1593" y="0" on="1"/>
        <pt x="1487" y="0" on="1"/>
        <pt x="1458" y="29" on="0"/>
        <pt x="1431" y="28" on="1"/>
        <pt x="1411" y="27" on="0"/>
        <pt x="1379" y="0" on="1"/>
        <pt x="1271" y="0" on="1"/>
        <pt x="1224" y="0" on="0"/>
        <pt x="1224" y="52" on="1"/>
        <pt x="1224" y="145" on="1"/>
        <pt x="1224" y="176" on="0"/>
        <pt x="1288" y="176" on="1"/>
        <pt x="1167" y="467" on="1"/>
        <pt x="784" y="463" on="1"/>
        <pt x="665" y="176" on="1"/>
        <pt x="733" y="176" on="0"/>
        <pt x="733" y="137" on="1"/>
        <pt x="733" y="51" on="1"/>
        <pt x="733" y="0" on="0"/>
        <pt x="688" y="0" on="1"/>
        <pt x="684" y="0" on="1"/>
        <pt x="592" y="0" on="1"/>
        <pt x="566" y="27" on="0"/>
        <pt x="537" y="28" on="1"/>
        <pt x="516" y="29" on="0"/>
        <pt x="485" y="0" on="1"/>
        <pt x="387" y="0" on="1"/>
        <pt x="365" y="0" on="0"/>
        <pt x="344" y="22" on="0"/>
        <pt x="344" y="45" on="1"/>
        <pt x="344" y="127" on="1"/>
        <pt x="344" y="176" on="0"/>
        <pt x="407" y="176" on="1"/>
        <pt x="839" y="1292" on="1"/>
        <pt x="862" y="1352" on="0"/>
      </contour>
      <contour>
        <pt x="16" y="1979" on="1"/>
        <pt x="85" y="2083" on="0"/>
        <pt x="233" y="2179" on="1"/>
        <pt x="284" y="2212" on="0"/>
        <pt x="353" y="2212" on="1"/>
        <pt x="499" y="2212" on="0"/>
        <pt x="561" y="2105" on="1"/>
        <pt x="614" y="2014" on="0"/>
        <pt x="674" y="2014" on="1"/>
        <pt x="721" y="2014" on="0"/>
        <pt x="742" y="2053" on="1"/>
        <pt x="780" y="2125" on="0"/>
        <pt x="834" y="2125" on="1"/>
        <pt x="942" y="2125" on="0"/>
        <pt x="942" y="2005" on="1"/>
        <pt x="942" y="1956" on="0"/>
        <pt x="913" y="1901" on="1"/>
        <pt x="881" y="1840" on="0"/>
        <pt x="773" y="1796" on="1"/>
        <pt x="682" y="1759" on="0"/>
        <pt x="603" y="1759" on="1"/>
        <pt x="520" y="1759" on="0"/>
        <pt x="450" y="1867" on="1"/>
        <pt x="388" y="1962" on="0"/>
        <pt x="343" y="1962" on="1"/>
        <pt x="322" y="1962" on="0"/>
        <pt x="309" y="1942" on="1"/>
        <pt x="265" y="1877" on="0"/>
        <pt x="260" y="1872" on="1"/>
        <pt x="145" y="1773" on="0"/>
        <pt x="112" y="1773" on="1"/>
        <pt x="72" y="1773" on="0"/>
        <pt x="36" y="1829" on="1"/>
        <pt x="0" y="1886" on="0"/>
        <pt x="0" y="1955" on="0"/>
      </contour>
      <contour>
        <pt x="300" y="1466" on="1"/>
        <pt x="186" y="1531" on="0"/>
        <pt x="186" y="1580" on="1"/>
        <pt x="186" y="1617" on="0"/>
        <pt x="270" y="1629" on="1"/>
        <pt x="343" y="1640" on="0"/>
        <pt x="344" y="1640" on="1"/>
        <pt x="443" y="1640" on="0"/>
        <pt x="537" y="1622" on="1"/>
        <pt x="684" y="1594" on="0"/>
        <pt x="711" y="1536" on="1"/>
        <pt x="773" y="1403" on="0"/>
        <pt x="773" y="1329" on="1"/>
        <pt x="773" y="1272" on="0"/>
        <pt x="731" y="1158" on="1"/>
        <pt x="710" y="1101" on="0"/>
        <pt x="649" y="1052" on="1"/>
        <pt x="577" y="994" on="0"/>
        <pt x="498" y="963" on="1"/>
        <pt x="429" y="936" on="0"/>
        <pt x="337" y="936" on="1"/>
        <pt x="283" y="936" on="0"/>
        <pt x="219" y="964" on="1"/>
        <pt x="192" y="976" on="0"/>
        <pt x="192" y="1004" on="1"/>
        <pt x="192" y="1030" on="0"/>
        <pt x="248" y="1071" on="1"/>
        <pt x="332" y="1133" on="0"/>
        <pt x="395" y="1153" on="1"/>
        <pt x="447" y="1169" on="0"/>
        <pt x="465" y="1195" on="1"/>
        <pt x="501" y="1247" on="0"/>
        <pt x="501" y="1337" on="1"/>
        <pt x="501" y="1356" on="0"/>
        <pt x="473" y="1393" on="1"/>
        <pt x="455" y="1417" on="0"/>
        <pt x="413" y="1427" on="1"/>
        <pt x="359" y="1439" on="1"/>
        <pt x="346" y="1440" on="0"/>
      </contour>
    </TTGlyph>
    <TTGlyph name="Alphapsiliprosgegrammeni-grek" xMin="0" yMin="-411" xMax="1454" yMax="1637">
      <contour>
        <pt x="833" y="-182" on="1"/>
        <pt x="871" y="-222" on="0"/>
        <pt x="871" y="-277" on="1"/>
        <pt x="871" y="-330" on="0"/>
        <pt x="833" y="-370" on="1"/>
        <pt x="795" y="-411" on="0"/>
        <pt x="738" y="-411" on="1"/>
        <pt x="688" y="-411" on="0"/>
        <pt x="648" y="-370" on="1"/>
        <pt x="609" y="-330" on="0"/>
        <pt x="609" y="-275" on="1"/>
        <pt x="609" y="-222" on="0"/>
        <pt x="648" y="-182" on="1"/>
        <pt x="688" y="-141" on="0"/>
        <pt x="738" y="-141" on="1"/>
        <pt x="795" y="-141" on="0"/>
      </contour>
      <contour>
        <pt x="574" y="623" on="1"/>
        <pt x="895" y="627" on="1"/>
        <pt x="762" y="1005" on="1"/>
        <pt x="717" y="1005" on="1"/>
      </contour>
      <contour>
        <pt x="785" y="1352" on="1"/>
        <pt x="860" y="1352" on="0"/>
        <pt x="889" y="1288" on="1"/>
        <pt x="1387" y="176" on="1"/>
        <pt x="1454" y="176" on="0"/>
        <pt x="1454" y="125" on="1"/>
        <pt x="1454" y="51" on="1"/>
        <pt x="1454" y="0" on="0"/>
        <pt x="1405" y="0" on="1"/>
        <pt x="1299" y="0" on="1"/>
        <pt x="1270" y="29" on="0"/>
        <pt x="1243" y="28" on="1"/>
        <pt x="1223" y="27" on="0"/>
        <pt x="1191" y="0" on="1"/>
        <pt x="1083" y="0" on="1"/>
        <pt x="1036" y="0" on="0"/>
        <pt x="1036" y="52" on="1"/>
        <pt x="1036" y="145" on="1"/>
        <pt x="1036" y="176" on="0"/>
        <pt x="1100" y="176" on="1"/>
        <pt x="979" y="467" on="1"/>
        <pt x="596" y="463" on="1"/>
        <pt x="477" y="176" on="1"/>
        <pt x="545" y="176" on="0"/>
        <pt x="545" y="137" on="1"/>
        <pt x="545" y="51" on="1"/>
        <pt x="545" y="0" on="0"/>
        <pt x="500" y="0" on="1"/>
        <pt x="496" y="0" on="1"/>
        <pt x="404" y="0" on="1"/>
        <pt x="378" y="27" on="0"/>
        <pt x="349" y="28" on="1"/>
        <pt x="328" y="29" on="0"/>
        <pt x="297" y="0" on="1"/>
        <pt x="199" y="0" on="1"/>
        <pt x="177" y="0" on="0"/>
        <pt x="156" y="22" on="0"/>
        <pt x="156" y="45" on="1"/>
        <pt x="156" y="127" on="1"/>
        <pt x="156" y="176" on="0"/>
        <pt x="219" y="176" on="1"/>
        <pt x="651" y="1292" on="1"/>
        <pt x="674" y="1352" on="0"/>
      </contour>
      <contour>
        <pt x="114" y="1463" on="1"/>
        <pt x="0" y="1528" on="0"/>
        <pt x="0" y="1577" on="1"/>
        <pt x="0" y="1614" on="0"/>
        <pt x="84" y="1626" on="1"/>
        <pt x="157" y="1637" on="0"/>
        <pt x="158" y="1637" on="1"/>
        <pt x="257" y="1637" on="0"/>
        <pt x="351" y="1619" on="1"/>
        <pt x="498" y="1591" on="0"/>
        <pt x="525" y="1533" on="1"/>
        <pt x="587" y="1400" on="0"/>
        <pt x="587" y="1326" on="1"/>
        <pt x="587" y="1269" on="0"/>
        <pt x="545" y="1155" on="1"/>
        <pt x="524" y="1098" on="0"/>
        <pt x="463" y="1049" on="1"/>
        <pt x="391" y="991" on="0"/>
        <pt x="312" y="960" on="1"/>
        <pt x="243" y="933" on="0"/>
        <pt x="151" y="933" on="1"/>
        <pt x="97" y="933" on="0"/>
        <pt x="33" y="961" on="1"/>
        <pt x="6" y="973" on="0"/>
        <pt x="6" y="1001" on="1"/>
        <pt x="6" y="1027" on="0"/>
        <pt x="62" y="1068" on="1"/>
        <pt x="146" y="1130" on="0"/>
        <pt x="209" y="1150" on="1"/>
        <pt x="261" y="1166" on="0"/>
        <pt x="279" y="1192" on="1"/>
        <pt x="315" y="1244" on="0"/>
        <pt x="315" y="1334" on="1"/>
        <pt x="315" y="1353" on="0"/>
        <pt x="287" y="1390" on="1"/>
        <pt x="269" y="1414" on="0"/>
        <pt x="227" y="1424" on="1"/>
        <pt x="173" y="1436" on="1"/>
        <pt x="160" y="1437" on="0"/>
      </contour>
    </TTGlyph>
    <TTGlyph name="Alphapsilivaria-grek" xMin="0" yMin="0" xMax="2034" yMax="1639">
      <contour>
        <pt x="1154" y="623" on="1"/>
        <pt x="1475" y="627" on="1"/>
        <pt x="1342" y="1005" on="1"/>
        <pt x="1297" y="1005" on="1"/>
      </contour>
      <contour>
        <pt x="1365" y="1352" on="1"/>
        <pt x="1440" y="1352" on="0"/>
        <pt x="1469" y="1288" on="1"/>
        <pt x="1967" y="176" on="1"/>
        <pt x="2034" y="176" on="0"/>
        <pt x="2034" y="125" on="1"/>
        <pt x="2034" y="51" on="1"/>
        <pt x="2034" y="0" on="0"/>
        <pt x="1985" y="0" on="1"/>
        <pt x="1879" y="0" on="1"/>
        <pt x="1850" y="29" on="0"/>
        <pt x="1823" y="28" on="1"/>
        <pt x="1803" y="27" on="0"/>
        <pt x="1771" y="0" on="1"/>
        <pt x="1663" y="0" on="1"/>
        <pt x="1616" y="0" on="0"/>
        <pt x="1616" y="52" on="1"/>
        <pt x="1616" y="145" on="1"/>
        <pt x="1616" y="176" on="0"/>
        <pt x="1680" y="176" on="1"/>
        <pt x="1559" y="467" on="1"/>
        <pt x="1176" y="463" on="1"/>
        <pt x="1057" y="176" on="1"/>
        <pt x="1125" y="176" on="0"/>
        <pt x="1125" y="137" on="1"/>
        <pt x="1125" y="51" on="1"/>
        <pt x="1125" y="0" on="0"/>
        <pt x="1080" y="0" on="1"/>
        <pt x="1076" y="0" on="1"/>
        <pt x="984" y="0" on="1"/>
        <pt x="958" y="27" on="0"/>
        <pt x="929" y="28" on="1"/>
        <pt x="908" y="29" on="0"/>
        <pt x="877" y="0" on="1"/>
        <pt x="779" y="0" on="1"/>
        <pt x="757" y="0" on="0"/>
        <pt x="736" y="22" on="0"/>
        <pt x="736" y="45" on="1"/>
        <pt x="736" y="127" on="1"/>
        <pt x="736" y="176" on="0"/>
        <pt x="799" y="176" on="1"/>
        <pt x="1231" y="1292" on="1"/>
        <pt x="1254" y="1352" on="0"/>
      </contour>
      <contour>
        <pt x="855" y="1531" on="1"/>
        <pt x="855" y="1531" on="0"/>
        <pt x="1011" y="1181" on="1"/>
        <pt x="1081" y="1055" on="0"/>
        <pt x="1081" y="995" on="0"/>
        <pt x="1011" y="971" on="1"/>
        <pt x="953" y="951" on="0"/>
        <pt x="915" y="951" on="1"/>
        <pt x="805" y="951" on="0"/>
        <pt x="730" y="1115" on="1"/>
        <pt x="557" y="1493" on="0"/>
        <pt x="557" y="1633" on="0"/>
        <pt x="702" y="1633" on="1"/>
        <pt x="810" y="1633" on="0"/>
      </contour>
      <contour>
        <pt x="114" y="1465" on="1"/>
        <pt x="0" y="1530" on="0"/>
        <pt x="0" y="1579" on="1"/>
        <pt x="0" y="1616" on="0"/>
        <pt x="84" y="1628" on="1"/>
        <pt x="157" y="1639" on="0"/>
        <pt x="158" y="1639" on="1"/>
        <pt x="257" y="1639" on="0"/>
        <pt x="351" y="1621" on="1"/>
        <pt x="498" y="1593" on="0"/>
        <pt x="525" y="1535" on="1"/>
        <pt x="587" y="1402" on="0"/>
        <pt x="587" y="1328" on="1"/>
        <pt x="587" y="1271" on="0"/>
        <pt x="545" y="1157" on="1"/>
        <pt x="524" y="1100" on="0"/>
        <pt x="463" y="1051" on="1"/>
        <pt x="391" y="993" on="0"/>
        <pt x="312" y="962" on="1"/>
        <pt x="243" y="935" on="0"/>
        <pt x="151" y="935" on="1"/>
        <pt x="97" y="935" on="0"/>
        <pt x="33" y="963" on="1"/>
        <pt x="6" y="975" on="0"/>
        <pt x="6" y="1003" on="1"/>
        <pt x="6" y="1029" on="0"/>
        <pt x="62" y="1070" on="1"/>
        <pt x="146" y="1132" on="0"/>
        <pt x="209" y="1152" on="1"/>
        <pt x="261" y="1168" on="0"/>
        <pt x="279" y="1194" on="1"/>
        <pt x="315" y="1246" on="0"/>
        <pt x="315" y="1336" on="1"/>
        <pt x="315" y="1355" on="0"/>
        <pt x="287" y="1392" on="1"/>
        <pt x="269" y="1416" on="0"/>
        <pt x="227" y="1426" on="1"/>
        <pt x="173" y="1438" on="1"/>
        <pt x="160" y="1439" on="0"/>
      </contour>
    </TTGlyph>
    <TTGlyph name="Alphapsilivariaprosgegrammeni-grek" xMin="0" yMin="-401" xMax="2034" yMax="1639">
      <contour>
        <pt x="1453" y="-172" on="1"/>
        <pt x="1491" y="-212" on="0"/>
        <pt x="1491" y="-267" on="1"/>
        <pt x="1491" y="-320" on="0"/>
        <pt x="1453" y="-360" on="1"/>
        <pt x="1415" y="-401" on="0"/>
        <pt x="1358" y="-401" on="1"/>
        <pt x="1308" y="-401" on="0"/>
        <pt x="1268" y="-360" on="1"/>
        <pt x="1229" y="-320" on="0"/>
        <pt x="1229" y="-265" on="1"/>
        <pt x="1229" y="-212" on="0"/>
        <pt x="1268" y="-172" on="1"/>
        <pt x="1308" y="-131" on="0"/>
        <pt x="1358" y="-131" on="1"/>
        <pt x="1415" y="-131" on="0"/>
      </contour>
      <contour>
        <pt x="1154" y="623" on="1"/>
        <pt x="1475" y="627" on="1"/>
        <pt x="1342" y="1005" on="1"/>
        <pt x="1297" y="1005" on="1"/>
      </contour>
      <contour>
        <pt x="1365" y="1352" on="1"/>
        <pt x="1440" y="1352" on="0"/>
        <pt x="1469" y="1288" on="1"/>
        <pt x="1967" y="176" on="1"/>
        <pt x="2034" y="176" on="0"/>
        <pt x="2034" y="125" on="1"/>
        <pt x="2034" y="51" on="1"/>
        <pt x="2034" y="0" on="0"/>
        <pt x="1985" y="0" on="1"/>
        <pt x="1879" y="0" on="1"/>
        <pt x="1850" y="29" on="0"/>
        <pt x="1823" y="28" on="1"/>
        <pt x="1803" y="27" on="0"/>
        <pt x="1771" y="0" on="1"/>
        <pt x="1663" y="0" on="1"/>
        <pt x="1616" y="0" on="0"/>
        <pt x="1616" y="52" on="1"/>
        <pt x="1616" y="145" on="1"/>
        <pt x="1616" y="176" on="0"/>
        <pt x="1680" y="176" on="1"/>
        <pt x="1559" y="467" on="1"/>
        <pt x="1176" y="463" on="1"/>
        <pt x="1057" y="176" on="1"/>
        <pt x="1125" y="176" on="0"/>
        <pt x="1125" y="137" on="1"/>
        <pt x="1125" y="51" on="1"/>
        <pt x="1125" y="0" on="0"/>
        <pt x="1080" y="0" on="1"/>
        <pt x="1076" y="0" on="1"/>
        <pt x="984" y="0" on="1"/>
        <pt x="958" y="27" on="0"/>
        <pt x="929" y="28" on="1"/>
        <pt x="908" y="29" on="0"/>
        <pt x="877" y="0" on="1"/>
        <pt x="779" y="0" on="1"/>
        <pt x="757" y="0" on="0"/>
        <pt x="736" y="22" on="0"/>
        <pt x="736" y="45" on="1"/>
        <pt x="736" y="127" on="1"/>
        <pt x="736" y="176" on="0"/>
        <pt x="799" y="176" on="1"/>
        <pt x="1231" y="1292" on="1"/>
        <pt x="1254" y="1352" on="0"/>
      </contour>
      <contour>
        <pt x="855" y="1531" on="1"/>
        <pt x="855" y="1531" on="0"/>
        <pt x="1011" y="1181" on="1"/>
        <pt x="1081" y="1055" on="0"/>
        <pt x="1081" y="995" on="0"/>
        <pt x="1011" y="971" on="1"/>
        <pt x="953" y="951" on="0"/>
        <pt x="915" y="951" on="1"/>
        <pt x="805" y="951" on="0"/>
        <pt x="730" y="1115" on="1"/>
        <pt x="557" y="1493" on="0"/>
        <pt x="557" y="1633" on="0"/>
        <pt x="702" y="1633" on="1"/>
        <pt x="810" y="1633" on="0"/>
      </contour>
      <contour>
        <pt x="114" y="1465" on="1"/>
        <pt x="0" y="1530" on="0"/>
        <pt x="0" y="1579" on="1"/>
        <pt x="0" y="1616" on="0"/>
        <pt x="84" y="1628" on="1"/>
        <pt x="157" y="1639" on="0"/>
        <pt x="158" y="1639" on="1"/>
        <pt x="257" y="1639" on="0"/>
        <pt x="351" y="1621" on="1"/>
        <pt x="498" y="1593" on="0"/>
        <pt x="525" y="1535" on="1"/>
        <pt x="587" y="1402" on="0"/>
        <pt x="587" y="1328" on="1"/>
        <pt x="587" y="1271" on="0"/>
        <pt x="545" y="1157" on="1"/>
        <pt x="524" y="1100" on="0"/>
        <pt x="463" y="1051" on="1"/>
        <pt x="391" y="993" on="0"/>
        <pt x="312" y="962" on="1"/>
        <pt x="243" y="935" on="0"/>
        <pt x="151" y="935" on="1"/>
        <pt x="97" y="935" on="0"/>
        <pt x="33" y="963" on="1"/>
        <pt x="6" y="975" on="0"/>
        <pt x="6" y="1003" on="1"/>
        <pt x="6" y="1029" on="0"/>
        <pt x="62" y="1070" on="1"/>
        <pt x="146" y="1132" on="0"/>
        <pt x="209" y="1152" on="1"/>
        <pt x="261" y="1168" on="0"/>
        <pt x="279" y="1194" on="1"/>
        <pt x="315" y="1246" on="0"/>
        <pt x="315" y="1336" on="1"/>
        <pt x="315" y="1355" on="0"/>
        <pt x="287" y="1392" on="1"/>
        <pt x="269" y="1416" on="0"/>
        <pt x="227" y="1426" on="1"/>
        <pt x="173" y="1438" on="1"/>
        <pt x="160" y="1439" on="0"/>
      </contour>
    </TTGlyph>
    <TTGlyph name="Alphatonos-grek" xMin="0" yMin="0" xMax="1298" yMax="1637">
      <contour>
        <pt x="418" y="623" on="1"/>
        <pt x="739" y="627" on="1"/>
        <pt x="606" y="1005" on="1"/>
        <pt x="561" y="1005" on="1"/>
      </contour>
      <contour>
        <pt x="629" y="1352" on="1"/>
        <pt x="705" y="1352" on="0"/>
        <pt x="733" y="1288" on="1"/>
        <pt x="1231" y="176" on="1"/>
        <pt x="1298" y="176" on="0"/>
        <pt x="1298" y="125" on="1"/>
        <pt x="1298" y="51" on="1"/>
        <pt x="1298" y="0" on="0"/>
        <pt x="1249" y="0" on="1"/>
        <pt x="1143" y="0" on="1"/>
        <pt x="1114" y="29" on="0"/>
        <pt x="1087" y="28" on="1"/>
        <pt x="1066" y="26" on="0"/>
        <pt x="1035" y="0" on="1"/>
        <pt x="927" y="0" on="1"/>
        <pt x="880" y="0" on="0"/>
        <pt x="880" y="52" on="1"/>
        <pt x="880" y="145" on="1"/>
        <pt x="880" y="176" on="0"/>
        <pt x="944" y="176" on="1"/>
        <pt x="823" y="467" on="1"/>
        <pt x="440" y="463" on="1"/>
        <pt x="321" y="176" on="1"/>
        <pt x="389" y="176" on="0"/>
        <pt x="389" y="137" on="1"/>
        <pt x="389" y="51" on="1"/>
        <pt x="389" y="0" on="0"/>
        <pt x="344" y="0" on="1"/>
        <pt x="340" y="0" on="1"/>
        <pt x="248" y="0" on="1"/>
        <pt x="223" y="26" on="0"/>
        <pt x="193" y="28" on="1"/>
        <pt x="173" y="29" on="0"/>
        <pt x="141" y="0" on="1"/>
        <pt x="43" y="0" on="1"/>
        <pt x="23" y="0" on="0"/>
        <pt x="10" y="11" on="1"/>
        <pt x="0" y="23" on="0"/>
        <pt x="0" y="45" on="1"/>
        <pt x="0" y="127" on="1"/>
        <pt x="0" y="176" on="0"/>
        <pt x="63" y="176" on="1"/>
        <pt x="495" y="1292" on="1"/>
        <pt x="518" y="1352" on="0"/>
      </contour>
      <contour>
        <pt x="226" y="1535" on="1"/>
        <pt x="271" y="1637" on="0"/>
        <pt x="379" y="1637" on="1"/>
        <pt x="524" y="1637" on="0"/>
        <pt x="524" y="1567" on="1"/>
        <pt x="524" y="1498" on="0"/>
        <pt x="351" y="1119" on="1"/>
        <pt x="276" y="955" on="0"/>
        <pt x="166" y="955" on="1"/>
        <pt x="130" y="955" on="0"/>
        <pt x="70" y="975" on="1"/>
        <pt x="0" y="999" on="0"/>
        <pt x="0" y="1029" on="1"/>
        <pt x="0" y="1060" on="0"/>
        <pt x="70" y="1185" on="1"/>
      </contour>
    </TTGlyph>
    <TTGlyph name="Alphavaria-grek" xMin="0" yMin="0" xMax="1466" yMax="1638">
      <contour>
        <pt x="586" y="623" on="1"/>
        <pt x="907" y="627" on="1"/>
        <pt x="774" y="1005" on="1"/>
        <pt x="729" y="1005" on="1"/>
      </contour>
      <contour>
        <pt x="797" y="1352" on="1"/>
        <pt x="872" y="1352" on="0"/>
        <pt x="901" y="1288" on="1"/>
        <pt x="1399" y="176" on="1"/>
        <pt x="1466" y="176" on="0"/>
        <pt x="1466" y="125" on="1"/>
        <pt x="1466" y="51" on="1"/>
        <pt x="1466" y="0" on="0"/>
        <pt x="1417" y="0" on="1"/>
        <pt x="1311" y="0" on="1"/>
        <pt x="1282" y="29" on="0"/>
        <pt x="1255" y="28" on="1"/>
        <pt x="1235" y="27" on="0"/>
        <pt x="1203" y="0" on="1"/>
        <pt x="1095" y="0" on="1"/>
        <pt x="1048" y="0" on="0"/>
        <pt x="1048" y="52" on="1"/>
        <pt x="1048" y="145" on="1"/>
        <pt x="1048" y="176" on="0"/>
        <pt x="1112" y="176" on="1"/>
        <pt x="991" y="467" on="1"/>
        <pt x="608" y="463" on="1"/>
        <pt x="489" y="176" on="1"/>
        <pt x="557" y="176" on="0"/>
        <pt x="557" y="137" on="1"/>
        <pt x="557" y="51" on="1"/>
        <pt x="557" y="0" on="0"/>
        <pt x="512" y="0" on="1"/>
        <pt x="508" y="0" on="1"/>
        <pt x="416" y="0" on="1"/>
        <pt x="390" y="27" on="0"/>
        <pt x="361" y="28" on="1"/>
        <pt x="340" y="29" on="0"/>
        <pt x="309" y="0" on="1"/>
        <pt x="211" y="0" on="1"/>
        <pt x="189" y="0" on="0"/>
        <pt x="168" y="22" on="0"/>
        <pt x="168" y="45" on="1"/>
        <pt x="168" y="127" on="1"/>
        <pt x="168" y="176" on="0"/>
        <pt x="231" y="176" on="1"/>
        <pt x="663" y="1292" on="1"/>
        <pt x="686" y="1352" on="0"/>
      </contour>
      <contour>
        <pt x="298" y="1536" on="1"/>
        <pt x="298" y="1536" on="0"/>
        <pt x="454" y="1186" on="1"/>
        <pt x="524" y="1060" on="0"/>
        <pt x="524" y="1000" on="0"/>
        <pt x="454" y="976" on="1"/>
        <pt x="396" y="956" on="0"/>
        <pt x="358" y="956" on="1"/>
        <pt x="248" y="956" on="0"/>
        <pt x="173" y="1120" on="1"/>
        <pt x="0" y="1498" on="0"/>
        <pt x="0" y="1638" on="0"/>
        <pt x="145" y="1638" on="1"/>
        <pt x="253" y="1638" on="0"/>
      </contour>
    </TTGlyph>
    <TTGlyph name="Alphavrachy-grek" xMin="0" yMin="0" xMax="1298" yMax="1912">
      <contour>
        <pt x="418" y="623" on="1"/>
        <pt x="739" y="627" on="1"/>
        <pt x="606" y="1005" on="1"/>
        <pt x="561" y="1005" on="1"/>
      </contour>
      <contour>
        <pt x="629" y="1352" on="1"/>
        <pt x="704" y="1352" on="0"/>
        <pt x="733" y="1288" on="1"/>
        <pt x="1231" y="176" on="1"/>
        <pt x="1298" y="176" on="0"/>
        <pt x="1298" y="125" on="1"/>
        <pt x="1298" y="51" on="1"/>
        <pt x="1298" y="0" on="0"/>
        <pt x="1249" y="0" on="1"/>
        <pt x="1143" y="0" on="1"/>
        <pt x="1114" y="29" on="0"/>
        <pt x="1087" y="28" on="1"/>
        <pt x="1067" y="27" on="0"/>
        <pt x="1035" y="0" on="1"/>
        <pt x="927" y="0" on="1"/>
        <pt x="880" y="0" on="0"/>
        <pt x="880" y="52" on="1"/>
        <pt x="880" y="145" on="1"/>
        <pt x="880" y="176" on="0"/>
        <pt x="944" y="176" on="1"/>
        <pt x="823" y="467" on="1"/>
        <pt x="440" y="463" on="1"/>
        <pt x="321" y="176" on="1"/>
        <pt x="389" y="176" on="0"/>
        <pt x="389" y="137" on="1"/>
        <pt x="389" y="51" on="1"/>
        <pt x="389" y="0" on="0"/>
        <pt x="344" y="0" on="1"/>
        <pt x="340" y="0" on="1"/>
        <pt x="248" y="0" on="1"/>
        <pt x="222" y="27" on="0"/>
        <pt x="193" y="28" on="1"/>
        <pt x="172" y="29" on="0"/>
        <pt x="141" y="0" on="1"/>
        <pt x="43" y="0" on="1"/>
        <pt x="21" y="0" on="0"/>
        <pt x="0" y="22" on="0"/>
        <pt x="0" y="45" on="1"/>
        <pt x="0" y="127" on="1"/>
        <pt x="0" y="176" on="0"/>
        <pt x="63" y="176" on="1"/>
        <pt x="495" y="1292" on="1"/>
        <pt x="518" y="1352" on="0"/>
      </contour>
      <contour>
        <pt x="263" y="1571" on="1"/>
        <pt x="177" y="1634" on="0"/>
        <pt x="177" y="1765" on="1"/>
        <pt x="177" y="1912" on="0"/>
        <pt x="309" y="1912" on="1"/>
        <pt x="371" y="1912" on="0"/>
        <pt x="400" y="1838" on="1"/>
        <pt x="458" y="1691" on="0"/>
        <pt x="630" y="1691" on="1"/>
        <pt x="782" y="1691" on="0"/>
        <pt x="860" y="1830" on="1"/>
        <pt x="900" y="1901" on="0"/>
        <pt x="954" y="1901" on="1"/>
        <pt x="1081" y="1901" on="0"/>
        <pt x="1081" y="1759" on="1"/>
        <pt x="1081" y="1641" on="0"/>
        <pt x="925" y="1555" on="1"/>
        <pt x="778" y="1474" on="0"/>
        <pt x="632" y="1474" on="1"/>
        <pt x="395" y="1474" on="0"/>
      </contour>
    </TTGlyph>
    <TTGlyph name="B" xMin="0" yMin="-2" xMax="915" yMax="1352">
      <contour>
        <pt x="243" y="786" on="1"/>
        <pt x="477" y="786" on="1"/>
        <pt x="608" y="837" on="0"/>
        <pt x="608" y="983" on="1"/>
        <pt x="608" y="1096" on="0"/>
        <pt x="541" y="1135" on="1"/>
        <pt x="243" y="1135" on="1"/>
        <pt x="243" y="942" on="1"/>
      </contour>
      <contour>
        <pt x="241" y="182" on="1"/>
        <pt x="609" y="182" on="1"/>
        <pt x="668" y="270" on="0"/>
        <pt x="675" y="399" on="1"/>
        <pt x="675" y="510" on="0"/>
        <pt x="609" y="596" on="1"/>
        <pt x="241" y="596" on="1"/>
      </contour>
      <contour>
        <pt x="0" y="29" on="1"/>
        <pt x="0" y="535" on="1"/>
        <pt x="0" y="942" on="1"/>
        <pt x="0" y="1249" on="1"/>
        <pt x="12" y="1319" on="0"/>
        <pt x="55" y="1329" on="1"/>
        <pt x="151" y="1352" on="0"/>
        <pt x="296" y="1352" on="1"/>
        <pt x="362" y="1352" on="1"/>
        <pt x="493" y="1352" on="0"/>
        <pt x="655" y="1327" on="1"/>
        <pt x="878" y="1292" on="0"/>
        <pt x="878" y="1061" on="1"/>
        <pt x="878" y="1010" on="0"/>
        <pt x="870" y="985" on="1"/>
        <pt x="850" y="924" on="0"/>
        <pt x="771" y="854" on="1"/>
        <pt x="732" y="819" on="0"/>
        <pt x="714" y="813" on="1"/>
        <pt x="698" y="790" on="0"/>
        <pt x="698" y="768" on="1"/>
        <pt x="698" y="715" on="0"/>
        <pt x="734" y="715" on="1"/>
        <pt x="768" y="715" on="0"/>
        <pt x="849" y="643" on="1"/>
        <pt x="915" y="584" on="0"/>
        <pt x="915" y="457" on="1"/>
        <pt x="915" y="312" on="0"/>
        <pt x="903" y="281" on="1"/>
        <pt x="862" y="181" on="0"/>
        <pt x="780" y="119" on="1"/>
        <pt x="696" y="56" on="0"/>
        <pt x="575" y="29" on="1"/>
        <pt x="436" y="-2" on="0"/>
        <pt x="386" y="-2" on="1"/>
        <pt x="373" y="-2" on="0"/>
        <pt x="366" y="0" on="1"/>
        <pt x="272" y="29" on="0"/>
      </contour>
    </TTGlyph>
    <TTGlyph name="Beta-grek" xMin="0" yMin="-2" xMax="915" yMax="1352">
      <contour>
        <pt x="243" y="786" on="1"/>
        <pt x="477" y="786" on="1"/>
        <pt x="608" y="837" on="0"/>
        <pt x="608" y="983" on="1"/>
        <pt x="608" y="1096" on="0"/>
        <pt x="541" y="1135" on="1"/>
        <pt x="243" y="1135" on="1"/>
        <pt x="243" y="942" on="1"/>
      </contour>
      <contour>
        <pt x="241" y="182" on="1"/>
        <pt x="609" y="182" on="1"/>
        <pt x="667" y="270" on="0"/>
        <pt x="675" y="399" on="1"/>
        <pt x="675" y="510" on="0"/>
        <pt x="609" y="596" on="1"/>
        <pt x="241" y="596" on="1"/>
      </contour>
      <contour>
        <pt x="0" y="29" on="1"/>
        <pt x="0" y="535" on="1"/>
        <pt x="0" y="942" on="1"/>
        <pt x="0" y="1249" on="1"/>
        <pt x="12" y="1319" on="0"/>
        <pt x="55" y="1329" on="1"/>
        <pt x="155" y="1352" on="0"/>
        <pt x="296" y="1352" on="1"/>
        <pt x="362" y="1352" on="1"/>
        <pt x="495" y="1352" on="0"/>
        <pt x="655" y="1327" on="1"/>
        <pt x="878" y="1293" on="0"/>
        <pt x="878" y="1061" on="1"/>
        <pt x="878" y="1014" on="0"/>
        <pt x="870" y="985" on="1"/>
        <pt x="853" y="926" on="0"/>
        <pt x="771" y="854" on="1"/>
        <pt x="729" y="819" on="0"/>
        <pt x="714" y="813" on="1"/>
        <pt x="698" y="791" on="0"/>
        <pt x="698" y="768" on="1"/>
        <pt x="698" y="715" on="0"/>
        <pt x="734" y="715" on="1"/>
        <pt x="768" y="715" on="0"/>
        <pt x="849" y="643" on="1"/>
        <pt x="915" y="584" on="0"/>
        <pt x="915" y="457" on="1"/>
        <pt x="915" y="312" on="0"/>
        <pt x="903" y="281" on="1"/>
        <pt x="862" y="180" on="0"/>
        <pt x="780" y="119" on="1"/>
        <pt x="694" y="56" on="0"/>
        <pt x="575" y="29" on="1"/>
        <pt x="441" y="-2" on="0"/>
        <pt x="386" y="-2" on="1"/>
        <pt x="380" y="-2" on="0"/>
        <pt x="366" y="0" on="1"/>
        <pt x="268" y="29" on="0"/>
      </contour>
    </TTGlyph>
    <TTGlyph name="C" xMin="0" yMin="-14" xMax="1165" yMax="1382">
      <contour>
        <pt x="0" y="676" on="1"/>
        <pt x="0" y="929" on="0"/>
        <pt x="194" y="1188" on="1"/>
        <pt x="400" y="1382" on="0"/>
        <pt x="724" y="1382" on="1"/>
        <pt x="790" y="1382" on="0"/>
        <pt x="860" y="1374" on="1"/>
        <pt x="879" y="1372" on="0"/>
        <pt x="970" y="1355" on="1"/>
        <pt x="1135" y="1333" on="0"/>
        <pt x="1149" y="1310" on="1"/>
        <pt x="1157" y="1298" on="0"/>
        <pt x="1157" y="1158" on="1"/>
        <pt x="1157" y="1020" on="0"/>
        <pt x="1091" y="1020" on="1"/>
        <pt x="1075" y="1020" on="0"/>
        <pt x="1030" y="1079" on="1"/>
        <pt x="972" y="1145" on="1"/>
        <pt x="927" y="1188" on="0"/>
        <pt x="536" y="1188" on="0"/>
        <pt x="395" y="1040" on="1"/>
        <pt x="279" y="918" on="0"/>
        <pt x="279" y="695" on="1"/>
        <pt x="279" y="412" on="0"/>
        <pt x="387" y="311" on="1"/>
        <pt x="509" y="197" on="0"/>
        <pt x="667" y="197" on="1"/>
        <pt x="874" y="197" on="0"/>
        <pt x="936" y="258" on="1"/>
        <pt x="1014" y="336" on="0"/>
        <pt x="1030" y="358" on="1"/>
        <pt x="1074" y="418" on="0"/>
        <pt x="1104" y="418" on="1"/>
        <pt x="1165" y="418" on="0"/>
        <pt x="1165" y="307" on="1"/>
        <pt x="1165" y="176" on="0"/>
        <pt x="1075" y="129" on="1"/>
        <pt x="800" y="-14" on="0"/>
        <pt x="581" y="-14" on="1"/>
        <pt x="497" y="-14" on="0"/>
        <pt x="435" y="10" on="1"/>
        <pt x="102" y="140" on="0"/>
        <pt x="22" y="422" on="1"/>
        <pt x="0" y="499" on="0"/>
      </contour>
    </TTGlyph>
    <TTGlyph name="Chi-grek" xMin="0" yMin="0" xMax="1669" yMax="1353">
      <contour>
        <pt x="864" y="852" on="1"/>
        <pt x="1185" y="1186" on="1"/>
        <pt x="1157" y="1196" on="0"/>
        <pt x="1157" y="1242" on="1"/>
        <pt x="1157" y="1300" on="1"/>
        <pt x="1157" y="1353" on="0"/>
        <pt x="1313" y="1353" on="1"/>
        <pt x="1338" y="1317" on="0"/>
        <pt x="1369" y="1316" on="1"/>
        <pt x="1403" y="1315" on="0"/>
        <pt x="1421" y="1352" on="1"/>
        <pt x="1611" y="1352" on="0"/>
        <pt x="1611" y="1317" on="1"/>
        <pt x="1611" y="1229" on="1"/>
        <pt x="1611" y="1187" on="0"/>
        <pt x="1466" y="1187" on="1"/>
        <pt x="983" y="698" on="1"/>
        <pt x="1456" y="172" on="1"/>
        <pt x="1582" y="172" on="0"/>
        <pt x="1583" y="171" on="1"/>
        <pt x="1669" y="169" on="0"/>
        <pt x="1669" y="133" on="1"/>
        <pt x="1669" y="39" on="1"/>
        <pt x="1669" y="0" on="0"/>
        <pt x="1587" y="0" on="1"/>
        <pt x="1364" y="0" on="1"/>
        <pt x="1335" y="35" on="0"/>
        <pt x="1308" y="35" on="1"/>
        <pt x="1284" y="35" on="0"/>
        <pt x="1255" y="0" on="1"/>
        <pt x="1116" y="0" on="1"/>
        <pt x="1050" y="0" on="0"/>
        <pt x="1050" y="51" on="1"/>
        <pt x="1050" y="131" on="1"/>
        <pt x="1050" y="174" on="0"/>
        <pt x="1136" y="174" on="1"/>
        <pt x="792" y="553" on="1"/>
        <pt x="420" y="174" on="1"/>
        <pt x="524" y="174" on="1"/>
        <pt x="524" y="39" on="1"/>
        <pt x="524" y="0" on="0"/>
        <pt x="442" y="0" on="1"/>
        <pt x="334" y="0" on="1"/>
        <pt x="302" y="39" on="0"/>
        <pt x="269" y="39" on="1"/>
        <pt x="239" y="39" on="0"/>
        <pt x="209" y="0" on="1"/>
        <pt x="139" y="0" on="1"/>
        <pt x="16" y="0" on="0"/>
        <pt x="16" y="55" on="1"/>
        <pt x="16" y="176" on="1"/>
        <pt x="135" y="176" on="1"/>
        <pt x="667" y="696" on="1"/>
        <pt x="168" y="1186" on="1"/>
        <pt x="0" y="1186" on="0"/>
        <pt x="0" y="1225" on="1"/>
        <pt x="0" y="1311" on="1"/>
        <pt x="0" y="1352" on="0"/>
        <pt x="41" y="1352" on="1"/>
        <pt x="262" y="1352" on="1"/>
        <pt x="289" y="1319" on="0"/>
        <pt x="316" y="1319" on="1"/>
        <pt x="342" y="1319" on="0"/>
        <pt x="368" y="1352" on="1"/>
        <pt x="520" y="1352" on="1"/>
        <pt x="559" y="1352" on="0"/>
        <pt x="559" y="1305" on="1"/>
        <pt x="559" y="1229" on="1"/>
        <pt x="559" y="1187" on="0"/>
        <pt x="510" y="1187" on="1"/>
      </contour>
    </TTGlyph>
    <TTGlyph name="D" xMin="0" yMin="2" xMax="1289" yMax="1355">
      <contour>
        <pt x="428" y="231" on="1"/>
        <pt x="467" y="225" on="0"/>
        <pt x="479" y="225" on="1"/>
        <pt x="593" y="225" on="0"/>
        <pt x="639" y="236" on="1"/>
        <pt x="818" y="279" on="0"/>
        <pt x="947" y="407" on="1"/>
        <pt x="1032" y="491" on="0"/>
        <pt x="1032" y="759" on="1"/>
        <pt x="1032" y="913" on="0"/>
        <pt x="908" y="1035" on="1"/>
        <pt x="848" y="1094" on="0"/>
        <pt x="688" y="1125" on="1"/>
        <pt x="631" y="1136" on="0"/>
        <pt x="491" y="1137" on="1"/>
        <pt x="411" y="1137" on="0"/>
        <pt x="379" y="1079" on="1"/>
        <pt x="354" y="1035" on="0"/>
        <pt x="354" y="903" on="1"/>
        <pt x="358" y="500" on="1"/>
        <pt x="358" y="328" on="0"/>
        <pt x="370" y="293" on="1"/>
        <pt x="391" y="237" on="0"/>
      </contour>
      <contour>
        <pt x="454" y="2" on="1"/>
        <pt x="422" y="2" on="1"/>
        <pt x="266" y="2" on="0"/>
        <pt x="114" y="18" on="1"/>
        <pt x="0" y="30" on="0"/>
        <pt x="0" y="67" on="1"/>
        <pt x="0" y="139" on="0"/>
        <pt x="65" y="162" on="1"/>
        <pt x="124" y="183" on="0"/>
        <pt x="129" y="238" on="1"/>
        <pt x="129" y="238" on="0"/>
        <pt x="127" y="1108" on="1"/>
        <pt x="86" y="1169" on="1"/>
        <pt x="1" y="1169" on="0"/>
        <pt x="1" y="1263" on="1"/>
        <pt x="1" y="1345" on="0"/>
        <pt x="213" y="1352" on="1"/>
        <pt x="309" y="1355" on="0"/>
        <pt x="393" y="1355" on="1"/>
        <pt x="775" y="1354" on="0"/>
        <pt x="927" y="1296" on="1"/>
        <pt x="1051" y="1249" on="0"/>
        <pt x="1134" y="1169" on="1"/>
        <pt x="1248" y="1059" on="0"/>
        <pt x="1280" y="844" on="1"/>
        <pt x="1289" y="784" on="0"/>
        <pt x="1289" y="725" on="1"/>
        <pt x="1289" y="563" on="0"/>
        <pt x="1224" y="399" on="1"/>
        <pt x="1126" y="151" on="0"/>
        <pt x="784" y="59" on="1"/>
      </contour>
    </TTGlyph>
    <TTGlyph name="Delta-grek" xMin="0" yMin="0" xMax="1325" yMax="1352">
      <contour>
        <pt x="1311" y="70" on="1"/>
        <pt x="1312" y="68" on="0"/>
        <pt x="1316" y="62" on="1"/>
        <pt x="1320" y="54" on="1"/>
        <pt x="1321" y="53" on="0"/>
        <pt x="1323" y="46" on="1"/>
        <pt x="1325" y="40" on="0"/>
        <pt x="1325" y="38" on="1"/>
        <pt x="1325" y="29" on="1"/>
        <pt x="1320" y="0" on="0"/>
        <pt x="1301" y="0" on="1"/>
        <pt x="24" y="0" on="1"/>
        <pt x="6" y="0" on="0"/>
        <pt x="0" y="29" on="1"/>
        <pt x="0" y="40" on="0"/>
        <pt x="15" y="68" on="1"/>
        <pt x="574" y="1307" on="1"/>
        <pt x="583" y="1327" on="0"/>
        <pt x="596" y="1342" on="1"/>
        <pt x="608" y="1352" on="0"/>
        <pt x="632" y="1352" on="1"/>
        <pt x="654" y="1352" on="0"/>
        <pt x="668" y="1341" on="1"/>
        <pt x="679" y="1332" on="0"/>
        <pt x="691" y="1307" on="1"/>
      </contour>
      <contour>
        <pt x="948" y="255" on="1"/>
        <pt x="703" y="797" on="1"/>
        <pt x="678" y="848" on="0"/>
        <pt x="636" y="848" on="1"/>
        <pt x="592" y="848" on="0"/>
        <pt x="569" y="797" on="1"/>
        <pt x="342" y="255" on="1"/>
        <pt x="320" y="210" on="0"/>
        <pt x="320" y="192" on="1"/>
        <pt x="320" y="184" on="0"/>
        <pt x="330" y="180" on="1"/>
        <pt x="339" y="176" on="0"/>
        <pt x="347" y="176" on="1"/>
        <pt x="943" y="176" on="1"/>
        <pt x="971" y="176" on="0"/>
        <pt x="971" y="191" on="1"/>
        <pt x="971" y="201" on="0"/>
      </contour>
    </TTGlyph>
    <TTGlyph name="E" xMin="0" yMin="2" xMax="994" yMax="1352">
      <contour>
        <pt x="931" y="1352" on="1"/>
        <pt x="931" y="1145" on="1"/>
        <pt x="931" y="1095" on="0"/>
        <pt x="898" y="1095" on="1"/>
        <pt x="876" y="1095" on="0"/>
        <pt x="727" y="1188" on="1"/>
        <pt x="708" y="1200" on="0"/>
        <pt x="577" y="1200" on="1"/>
        <pt x="415" y="1200" on="0"/>
        <pt x="374" y="1157" on="1"/>
        <pt x="336" y="1117" on="0"/>
        <pt x="336" y="854" on="1"/>
        <pt x="336" y="790" on="0"/>
        <pt x="391" y="789" on="1"/>
        <pt x="633" y="784" on="1"/>
        <pt x="690" y="784" on="0"/>
        <pt x="732" y="841" on="1"/>
        <pt x="766" y="887" on="0"/>
        <pt x="819" y="887" on="1"/>
        <pt x="862" y="887" on="0"/>
        <pt x="862" y="825" on="1"/>
        <pt x="862" y="553" on="1"/>
        <pt x="862" y="510" on="0"/>
        <pt x="817" y="510" on="1"/>
        <pt x="782" y="510" on="0"/>
        <pt x="731" y="557" on="1"/>
        <pt x="688" y="596" on="0"/>
        <pt x="680" y="596" on="1"/>
        <pt x="395" y="590" on="1"/>
        <pt x="336" y="589" on="0"/>
        <pt x="336" y="398" on="1"/>
        <pt x="337" y="121" on="0"/>
        <pt x="399" y="121" on="1"/>
        <pt x="672" y="123" on="1"/>
        <pt x="754" y="124" on="0"/>
        <pt x="802" y="186" on="1"/>
        <pt x="880" y="287" on="0"/>
        <pt x="929" y="287" on="1"/>
        <pt x="994" y="287" on="0"/>
        <pt x="994" y="236" on="1"/>
        <pt x="994" y="196" on="0"/>
        <pt x="956" y="127" on="1"/>
        <pt x="888" y="2" on="0"/>
        <pt x="749" y="2" on="1"/>
        <pt x="178" y="2" on="1"/>
        <pt x="55" y="2" on="0"/>
        <pt x="55" y="52" on="1"/>
        <pt x="55" y="52" on="0"/>
        <pt x="55" y="54" on="1"/>
        <pt x="57" y="110" on="1"/>
        <pt x="58" y="125" on="0"/>
        <pt x="93" y="131" on="1"/>
        <pt x="117" y="135" on="0"/>
        <pt x="119" y="335" on="1"/>
        <pt x="127" y="1016" on="1"/>
        <pt x="127" y="1102" on="0"/>
        <pt x="34" y="1128" on="1"/>
        <pt x="0" y="1138" on="0"/>
        <pt x="0" y="1214" on="1"/>
        <pt x="0" y="1284" on="0"/>
        <pt x="60" y="1328" on="1"/>
        <pt x="93" y="1352" on="0"/>
        <pt x="395" y="1352" on="1"/>
      </contour>
    </TTGlyph>
    <TTGlyph name="Epsilon-grek" xMin="0" yMin="2" xMax="994" yMax="1352">
      <contour>
        <pt x="931" y="1352" on="1"/>
        <pt x="931" y="1145" on="1"/>
        <pt x="931" y="1095" on="0"/>
        <pt x="898" y="1095" on="1"/>
        <pt x="876" y="1095" on="0"/>
        <pt x="727" y="1188" on="1"/>
        <pt x="708" y="1200" on="0"/>
        <pt x="577" y="1200" on="1"/>
        <pt x="414" y="1200" on="0"/>
        <pt x="374" y="1157" on="1"/>
        <pt x="336" y="1116" on="0"/>
        <pt x="336" y="854" on="1"/>
        <pt x="336" y="790" on="0"/>
        <pt x="391" y="789" on="1"/>
        <pt x="633" y="784" on="1"/>
        <pt x="690" y="784" on="0"/>
        <pt x="732" y="841" on="1"/>
        <pt x="766" y="887" on="0"/>
        <pt x="819" y="887" on="1"/>
        <pt x="862" y="887" on="0"/>
        <pt x="862" y="825" on="1"/>
        <pt x="862" y="553" on="1"/>
        <pt x="862" y="510" on="0"/>
        <pt x="817" y="510" on="1"/>
        <pt x="784" y="510" on="0"/>
        <pt x="731" y="557" on="1"/>
        <pt x="688" y="596" on="0"/>
        <pt x="680" y="596" on="1"/>
        <pt x="395" y="590" on="1"/>
        <pt x="336" y="588" on="0"/>
        <pt x="336" y="398" on="1"/>
        <pt x="337" y="121" on="0"/>
        <pt x="399" y="121" on="1"/>
        <pt x="672" y="123" on="1"/>
        <pt x="754" y="124" on="0"/>
        <pt x="802" y="186" on="1"/>
        <pt x="880" y="287" on="0"/>
        <pt x="929" y="287" on="1"/>
        <pt x="994" y="287" on="0"/>
        <pt x="994" y="236" on="1"/>
        <pt x="994" y="198" on="0"/>
        <pt x="956" y="127" on="1"/>
        <pt x="888" y="2" on="0"/>
        <pt x="749" y="2" on="1"/>
        <pt x="178" y="2" on="1"/>
        <pt x="55" y="2" on="0"/>
        <pt x="55" y="52" on="1"/>
        <pt x="55" y="54" on="1"/>
        <pt x="57" y="110" on="1"/>
        <pt x="58" y="125" on="0"/>
        <pt x="93" y="131" on="1"/>
        <pt x="117" y="135" on="0"/>
        <pt x="119" y="335" on="1"/>
        <pt x="127" y="1016" on="1"/>
        <pt x="127" y="1101" on="0"/>
        <pt x="34" y="1128" on="1"/>
        <pt x="0" y="1138" on="0"/>
        <pt x="0" y="1214" on="1"/>
        <pt x="0" y="1284" on="0"/>
        <pt x="60" y="1328" on="1"/>
        <pt x="93" y="1352" on="0"/>
        <pt x="395" y="1352" on="1"/>
      </contour>
    </TTGlyph>
    <TTGlyph name="Epsilondasia-grek" xMin="0" yMin="2" xMax="1582" yMax="1640">
      <contour>
        <pt x="1519" y="1352" on="1"/>
        <pt x="1519" y="1145" on="1"/>
        <pt x="1519" y="1095" on="0"/>
        <pt x="1486" y="1095" on="1"/>
        <pt x="1464" y="1095" on="0"/>
        <pt x="1315" y="1188" on="1"/>
        <pt x="1296" y="1200" on="0"/>
        <pt x="1165" y="1200" on="1"/>
        <pt x="1002" y="1200" on="0"/>
        <pt x="962" y="1157" on="1"/>
        <pt x="924" y="1116" on="0"/>
        <pt x="924" y="854" on="1"/>
        <pt x="924" y="790" on="0"/>
        <pt x="979" y="789" on="1"/>
        <pt x="1221" y="784" on="1"/>
        <pt x="1278" y="784" on="0"/>
        <pt x="1320" y="841" on="1"/>
        <pt x="1354" y="887" on="0"/>
        <pt x="1407" y="887" on="1"/>
        <pt x="1450" y="887" on="0"/>
        <pt x="1450" y="825" on="1"/>
        <pt x="1450" y="553" on="1"/>
        <pt x="1450" y="510" on="0"/>
        <pt x="1405" y="510" on="1"/>
        <pt x="1371" y="510" on="0"/>
        <pt x="1319" y="557" on="1"/>
        <pt x="1276" y="596" on="0"/>
        <pt x="1268" y="596" on="1"/>
        <pt x="983" y="590" on="1"/>
        <pt x="924" y="588" on="0"/>
        <pt x="924" y="398" on="1"/>
        <pt x="925" y="121" on="0"/>
        <pt x="987" y="121" on="1"/>
        <pt x="1260" y="123" on="1"/>
        <pt x="1342" y="124" on="0"/>
        <pt x="1390" y="186" on="1"/>
        <pt x="1468" y="287" on="0"/>
        <pt x="1517" y="287" on="1"/>
        <pt x="1582" y="287" on="0"/>
        <pt x="1582" y="236" on="1"/>
        <pt x="1582" y="197" on="0"/>
        <pt x="1544" y="127" on="1"/>
        <pt x="1476" y="2" on="0"/>
        <pt x="1337" y="2" on="1"/>
        <pt x="766" y="2" on="1"/>
        <pt x="643" y="2" on="0"/>
        <pt x="643" y="52" on="1"/>
        <pt x="643" y="54" on="1"/>
        <pt x="645" y="110" on="1"/>
        <pt x="646" y="125" on="0"/>
        <pt x="681" y="131" on="1"/>
        <pt x="706" y="135" on="0"/>
        <pt x="707" y="335" on="1"/>
        <pt x="715" y="1016" on="1"/>
        <pt x="715" y="1101" on="0"/>
        <pt x="622" y="1128" on="1"/>
        <pt x="588" y="1138" on="0"/>
        <pt x="588" y="1214" on="1"/>
        <pt x="588" y="1284" on="0"/>
        <pt x="648" y="1328" on="1"/>
        <pt x="681" y="1352" on="0"/>
        <pt x="983" y="1352" on="1"/>
      </contour>
      <contour>
        <pt x="473" y="1466" on="1"/>
        <pt x="427" y="1440" on="0"/>
        <pt x="414" y="1439" on="1"/>
        <pt x="360" y="1427" on="1"/>
        <pt x="318" y="1417" on="0"/>
        <pt x="300" y="1393" on="1"/>
        <pt x="272" y="1356" on="0"/>
        <pt x="272" y="1337" on="1"/>
        <pt x="272" y="1247" on="0"/>
        <pt x="308" y="1195" on="1"/>
        <pt x="326" y="1169" on="0"/>
        <pt x="378" y="1153" on="1"/>
        <pt x="441" y="1133" on="0"/>
        <pt x="525" y="1071" on="1"/>
        <pt x="581" y="1030" on="0"/>
        <pt x="581" y="1004" on="1"/>
        <pt x="581" y="976" on="0"/>
        <pt x="554" y="964" on="1"/>
        <pt x="490" y="936" on="0"/>
        <pt x="436" y="936" on="1"/>
        <pt x="344" y="936" on="0"/>
        <pt x="275" y="963" on="1"/>
        <pt x="196" y="994" on="0"/>
        <pt x="124" y="1052" on="1"/>
        <pt x="63" y="1101" on="0"/>
        <pt x="42" y="1158" on="1"/>
        <pt x="0" y="1272" on="0"/>
        <pt x="0" y="1329" on="1"/>
        <pt x="0" y="1403" on="0"/>
        <pt x="62" y="1536" on="1"/>
        <pt x="89" y="1594" on="0"/>
        <pt x="236" y="1622" on="1"/>
        <pt x="330" y="1640" on="0"/>
        <pt x="429" y="1640" on="1"/>
        <pt x="430" y="1640" on="0"/>
        <pt x="503" y="1629" on="1"/>
        <pt x="587" y="1617" on="0"/>
        <pt x="587" y="1580" on="1"/>
        <pt x="587" y="1531" on="0"/>
      </contour>
    </TTGlyph>
    <TTGlyph name="Epsilondasiaoxia-grek" xMin="0" yMin="2" xMax="2055" yMax="1638">
      <contour>
        <pt x="1992" y="1352" on="1"/>
        <pt x="1992" y="1145" on="1"/>
        <pt x="1992" y="1095" on="0"/>
        <pt x="1959" y="1095" on="1"/>
        <pt x="1937" y="1095" on="0"/>
        <pt x="1788" y="1188" on="1"/>
        <pt x="1769" y="1200" on="0"/>
        <pt x="1638" y="1200" on="1"/>
        <pt x="1475" y="1200" on="0"/>
        <pt x="1435" y="1157" on="1"/>
        <pt x="1397" y="1116" on="0"/>
        <pt x="1397" y="854" on="1"/>
        <pt x="1397" y="790" on="0"/>
        <pt x="1452" y="789" on="1"/>
        <pt x="1694" y="784" on="1"/>
        <pt x="1751" y="784" on="0"/>
        <pt x="1793" y="841" on="1"/>
        <pt x="1827" y="887" on="0"/>
        <pt x="1880" y="887" on="1"/>
        <pt x="1923" y="887" on="0"/>
        <pt x="1923" y="825" on="1"/>
        <pt x="1923" y="553" on="1"/>
        <pt x="1923" y="510" on="0"/>
        <pt x="1878" y="510" on="1"/>
        <pt x="1844" y="510" on="0"/>
        <pt x="1792" y="557" on="1"/>
        <pt x="1749" y="596" on="0"/>
        <pt x="1741" y="596" on="1"/>
        <pt x="1456" y="590" on="1"/>
        <pt x="1397" y="588" on="0"/>
        <pt x="1397" y="398" on="1"/>
        <pt x="1398" y="121" on="0"/>
        <pt x="1460" y="121" on="1"/>
        <pt x="1733" y="123" on="1"/>
        <pt x="1815" y="124" on="0"/>
        <pt x="1863" y="186" on="1"/>
        <pt x="1941" y="287" on="0"/>
        <pt x="1990" y="287" on="1"/>
        <pt x="2055" y="287" on="0"/>
        <pt x="2055" y="236" on="1"/>
        <pt x="2055" y="197" on="0"/>
        <pt x="2017" y="127" on="1"/>
        <pt x="1949" y="2" on="0"/>
        <pt x="1810" y="2" on="1"/>
        <pt x="1239" y="2" on="1"/>
        <pt x="1116" y="2" on="0"/>
        <pt x="1116" y="52" on="1"/>
        <pt x="1116" y="54" on="1"/>
        <pt x="1118" y="110" on="1"/>
        <pt x="1119" y="125" on="0"/>
        <pt x="1154" y="131" on="1"/>
        <pt x="1179" y="135" on="0"/>
        <pt x="1180" y="335" on="1"/>
        <pt x="1188" y="1016" on="1"/>
        <pt x="1188" y="1101" on="0"/>
        <pt x="1095" y="1128" on="1"/>
        <pt x="1061" y="1138" on="0"/>
        <pt x="1061" y="1214" on="1"/>
        <pt x="1061" y="1284" on="0"/>
        <pt x="1121" y="1328" on="1"/>
        <pt x="1154" y="1352" on="0"/>
        <pt x="1456" y="1352" on="1"/>
      </contour>
      <contour>
        <pt x="828" y="1508" on="1"/>
        <pt x="873" y="1610" on="0"/>
        <pt x="981" y="1610" on="1"/>
        <pt x="1126" y="1610" on="0"/>
        <pt x="1126" y="1470" on="0"/>
        <pt x="953" y="1092" on="1"/>
        <pt x="878" y="928" on="0"/>
        <pt x="768" y="928" on="1"/>
        <pt x="730" y="928" on="0"/>
        <pt x="672" y="948" on="1"/>
        <pt x="602" y="972" on="0"/>
        <pt x="602" y="1032" on="0"/>
        <pt x="672" y="1158" on="1"/>
      </contour>
      <contour>
        <pt x="473" y="1464" on="1"/>
        <pt x="427" y="1438" on="0"/>
        <pt x="414" y="1437" on="1"/>
        <pt x="360" y="1425" on="1"/>
        <pt x="318" y="1415" on="0"/>
        <pt x="300" y="1391" on="1"/>
        <pt x="272" y="1354" on="0"/>
        <pt x="272" y="1335" on="1"/>
        <pt x="272" y="1245" on="0"/>
        <pt x="308" y="1193" on="1"/>
        <pt x="326" y="1167" on="0"/>
        <pt x="378" y="1151" on="1"/>
        <pt x="441" y="1131" on="0"/>
        <pt x="525" y="1069" on="1"/>
        <pt x="581" y="1028" on="0"/>
        <pt x="581" y="1002" on="1"/>
        <pt x="581" y="974" on="0"/>
        <pt x="554" y="962" on="1"/>
        <pt x="490" y="934" on="0"/>
        <pt x="436" y="934" on="1"/>
        <pt x="344" y="934" on="0"/>
        <pt x="275" y="961" on="1"/>
        <pt x="196" y="992" on="0"/>
        <pt x="124" y="1050" on="1"/>
        <pt x="63" y="1099" on="0"/>
        <pt x="42" y="1156" on="1"/>
        <pt x="0" y="1270" on="0"/>
        <pt x="0" y="1327" on="1"/>
        <pt x="0" y="1401" on="0"/>
        <pt x="62" y="1534" on="1"/>
        <pt x="89" y="1592" on="0"/>
        <pt x="236" y="1620" on="1"/>
        <pt x="330" y="1638" on="0"/>
        <pt x="429" y="1638" on="1"/>
        <pt x="430" y="1638" on="0"/>
        <pt x="503" y="1627" on="1"/>
        <pt x="587" y="1615" on="0"/>
        <pt x="587" y="1578" on="1"/>
        <pt x="587" y="1529" on="0"/>
      </contour>
    </TTGlyph>
    <TTGlyph name="Epsilondasiavaria-grek" xMin="0" yMin="2" xMax="2090" yMax="1642">
      <contour>
        <pt x="2027" y="1352" on="1"/>
        <pt x="2027" y="1145" on="1"/>
        <pt x="2027" y="1095" on="0"/>
        <pt x="1994" y="1095" on="1"/>
        <pt x="1972" y="1095" on="0"/>
        <pt x="1823" y="1188" on="1"/>
        <pt x="1804" y="1200" on="0"/>
        <pt x="1673" y="1200" on="1"/>
        <pt x="1510" y="1200" on="0"/>
        <pt x="1470" y="1157" on="1"/>
        <pt x="1432" y="1116" on="0"/>
        <pt x="1432" y="854" on="1"/>
        <pt x="1432" y="790" on="0"/>
        <pt x="1487" y="789" on="1"/>
        <pt x="1729" y="784" on="1"/>
        <pt x="1786" y="784" on="0"/>
        <pt x="1828" y="841" on="1"/>
        <pt x="1862" y="887" on="0"/>
        <pt x="1915" y="887" on="1"/>
        <pt x="1958" y="887" on="0"/>
        <pt x="1958" y="825" on="1"/>
        <pt x="1958" y="553" on="1"/>
        <pt x="1958" y="510" on="0"/>
        <pt x="1913" y="510" on="1"/>
        <pt x="1879" y="510" on="0"/>
        <pt x="1827" y="557" on="1"/>
        <pt x="1784" y="596" on="0"/>
        <pt x="1776" y="596" on="1"/>
        <pt x="1491" y="590" on="1"/>
        <pt x="1432" y="588" on="0"/>
        <pt x="1432" y="398" on="1"/>
        <pt x="1433" y="121" on="0"/>
        <pt x="1495" y="121" on="1"/>
        <pt x="1768" y="123" on="1"/>
        <pt x="1850" y="124" on="0"/>
        <pt x="1898" y="186" on="1"/>
        <pt x="1976" y="287" on="0"/>
        <pt x="2025" y="287" on="1"/>
        <pt x="2090" y="287" on="0"/>
        <pt x="2090" y="236" on="1"/>
        <pt x="2090" y="197" on="0"/>
        <pt x="2052" y="127" on="1"/>
        <pt x="1984" y="2" on="0"/>
        <pt x="1845" y="2" on="1"/>
        <pt x="1274" y="2" on="1"/>
        <pt x="1151" y="2" on="0"/>
        <pt x="1151" y="52" on="1"/>
        <pt x="1151" y="54" on="1"/>
        <pt x="1153" y="110" on="1"/>
        <pt x="1154" y="125" on="0"/>
        <pt x="1189" y="131" on="1"/>
        <pt x="1214" y="135" on="0"/>
        <pt x="1215" y="335" on="1"/>
        <pt x="1223" y="1016" on="1"/>
        <pt x="1223" y="1101" on="0"/>
        <pt x="1130" y="1128" on="1"/>
        <pt x="1096" y="1138" on="0"/>
        <pt x="1096" y="1214" on="1"/>
        <pt x="1096" y="1284" on="0"/>
        <pt x="1156" y="1328" on="1"/>
        <pt x="1189" y="1352" on="0"/>
        <pt x="1491" y="1352" on="1"/>
      </contour>
      <contour>
        <pt x="909" y="1536" on="1"/>
        <pt x="909" y="1536" on="0"/>
        <pt x="1065" y="1186" on="1"/>
        <pt x="1135" y="1060" on="0"/>
        <pt x="1135" y="1000" on="0"/>
        <pt x="1065" y="976" on="1"/>
        <pt x="1007" y="956" on="0"/>
        <pt x="969" y="956" on="1"/>
        <pt x="859" y="956" on="0"/>
        <pt x="784" y="1120" on="1"/>
        <pt x="611" y="1498" on="0"/>
        <pt x="611" y="1638" on="0"/>
        <pt x="756" y="1638" on="1"/>
        <pt x="864" y="1638" on="0"/>
      </contour>
      <contour>
        <pt x="473" y="1468" on="1"/>
        <pt x="427" y="1442" on="0"/>
        <pt x="414" y="1441" on="1"/>
        <pt x="360" y="1429" on="1"/>
        <pt x="318" y="1419" on="0"/>
        <pt x="300" y="1395" on="1"/>
        <pt x="272" y="1358" on="0"/>
        <pt x="272" y="1339" on="1"/>
        <pt x="272" y="1249" on="0"/>
        <pt x="308" y="1197" on="1"/>
        <pt x="326" y="1171" on="0"/>
        <pt x="378" y="1155" on="1"/>
        <pt x="441" y="1135" on="0"/>
        <pt x="525" y="1073" on="1"/>
        <pt x="581" y="1032" on="0"/>
        <pt x="581" y="1006" on="1"/>
        <pt x="581" y="978" on="0"/>
        <pt x="554" y="966" on="1"/>
        <pt x="490" y="938" on="0"/>
        <pt x="436" y="938" on="1"/>
        <pt x="344" y="938" on="0"/>
        <pt x="275" y="965" on="1"/>
        <pt x="196" y="996" on="0"/>
        <pt x="124" y="1054" on="1"/>
        <pt x="63" y="1103" on="0"/>
        <pt x="42" y="1160" on="1"/>
        <pt x="0" y="1274" on="0"/>
        <pt x="0" y="1331" on="1"/>
        <pt x="0" y="1405" on="0"/>
        <pt x="62" y="1538" on="1"/>
        <pt x="89" y="1596" on="0"/>
        <pt x="236" y="1624" on="1"/>
        <pt x="330" y="1642" on="0"/>
        <pt x="429" y="1642" on="1"/>
        <pt x="430" y="1642" on="0"/>
        <pt x="503" y="1631" on="1"/>
        <pt x="587" y="1619" on="0"/>
        <pt x="587" y="1582" on="1"/>
        <pt x="587" y="1533" on="0"/>
      </contour>
    </TTGlyph>
    <TTGlyph name="Epsilonoxia-grek" xMin="0" yMin="2" xMax="1434" yMax="1642">
      <contour>
        <pt x="1371" y="1352" on="1"/>
        <pt x="1371" y="1145" on="1"/>
        <pt x="1371" y="1095" on="0"/>
        <pt x="1338" y="1095" on="1"/>
        <pt x="1316" y="1095" on="0"/>
        <pt x="1167" y="1188" on="1"/>
        <pt x="1148" y="1200" on="0"/>
        <pt x="1017" y="1200" on="1"/>
        <pt x="854" y="1200" on="0"/>
        <pt x="814" y="1157" on="1"/>
        <pt x="776" y="1116" on="0"/>
        <pt x="776" y="854" on="1"/>
        <pt x="776" y="790" on="0"/>
        <pt x="831" y="789" on="1"/>
        <pt x="1073" y="784" on="1"/>
        <pt x="1130" y="784" on="0"/>
        <pt x="1172" y="841" on="1"/>
        <pt x="1206" y="887" on="0"/>
        <pt x="1259" y="887" on="1"/>
        <pt x="1302" y="887" on="0"/>
        <pt x="1302" y="825" on="1"/>
        <pt x="1302" y="553" on="1"/>
        <pt x="1302" y="510" on="0"/>
        <pt x="1257" y="510" on="1"/>
        <pt x="1223" y="510" on="0"/>
        <pt x="1171" y="557" on="1"/>
        <pt x="1128" y="596" on="0"/>
        <pt x="1120" y="596" on="1"/>
        <pt x="835" y="590" on="1"/>
        <pt x="776" y="588" on="0"/>
        <pt x="776" y="398" on="1"/>
        <pt x="777" y="121" on="0"/>
        <pt x="839" y="121" on="1"/>
        <pt x="1112" y="123" on="1"/>
        <pt x="1194" y="124" on="0"/>
        <pt x="1242" y="186" on="1"/>
        <pt x="1320" y="287" on="0"/>
        <pt x="1369" y="287" on="1"/>
        <pt x="1434" y="287" on="0"/>
        <pt x="1434" y="236" on="1"/>
        <pt x="1434" y="197" on="0"/>
        <pt x="1396" y="127" on="1"/>
        <pt x="1328" y="2" on="0"/>
        <pt x="1189" y="2" on="1"/>
        <pt x="618" y="2" on="1"/>
        <pt x="495" y="2" on="0"/>
        <pt x="495" y="52" on="1"/>
        <pt x="495" y="54" on="1"/>
        <pt x="497" y="110" on="1"/>
        <pt x="498" y="125" on="0"/>
        <pt x="533" y="131" on="1"/>
        <pt x="558" y="135" on="0"/>
        <pt x="559" y="335" on="1"/>
        <pt x="567" y="1016" on="1"/>
        <pt x="567" y="1101" on="0"/>
        <pt x="474" y="1128" on="1"/>
        <pt x="440" y="1138" on="0"/>
        <pt x="440" y="1214" on="1"/>
        <pt x="440" y="1284" on="0"/>
        <pt x="500" y="1328" on="1"/>
        <pt x="533" y="1352" on="0"/>
        <pt x="835" y="1352" on="1"/>
      </contour>
      <contour>
        <pt x="226" y="1540" on="1"/>
        <pt x="271" y="1642" on="0"/>
        <pt x="379" y="1642" on="1"/>
        <pt x="524" y="1642" on="0"/>
        <pt x="524" y="1502" on="0"/>
        <pt x="351" y="1124" on="1"/>
        <pt x="276" y="960" on="0"/>
        <pt x="166" y="960" on="1"/>
        <pt x="128" y="960" on="0"/>
        <pt x="70" y="980" on="1"/>
        <pt x="0" y="1004" on="0"/>
        <pt x="0" y="1064" on="0"/>
        <pt x="70" y="1190" on="1"/>
      </contour>
    </TTGlyph>
    <TTGlyph name="Epsilonpsili-grek" xMin="0" yMin="2" xMax="1590" yMax="1639">
      <contour>
        <pt x="1527" y="1352" on="1"/>
        <pt x="1527" y="1145" on="1"/>
        <pt x="1527" y="1095" on="0"/>
        <pt x="1494" y="1095" on="1"/>
        <pt x="1472" y="1095" on="0"/>
        <pt x="1323" y="1188" on="1"/>
        <pt x="1304" y="1200" on="0"/>
        <pt x="1173" y="1200" on="1"/>
        <pt x="1010" y="1200" on="0"/>
        <pt x="970" y="1157" on="1"/>
        <pt x="932" y="1116" on="0"/>
        <pt x="932" y="854" on="1"/>
        <pt x="932" y="790" on="0"/>
        <pt x="987" y="789" on="1"/>
        <pt x="1229" y="784" on="1"/>
        <pt x="1286" y="784" on="0"/>
        <pt x="1328" y="841" on="1"/>
        <pt x="1362" y="887" on="0"/>
        <pt x="1415" y="887" on="1"/>
        <pt x="1458" y="887" on="0"/>
        <pt x="1458" y="825" on="1"/>
        <pt x="1458" y="553" on="1"/>
        <pt x="1458" y="510" on="0"/>
        <pt x="1413" y="510" on="1"/>
        <pt x="1379" y="510" on="0"/>
        <pt x="1327" y="557" on="1"/>
        <pt x="1284" y="596" on="0"/>
        <pt x="1276" y="596" on="1"/>
        <pt x="991" y="590" on="1"/>
        <pt x="932" y="588" on="0"/>
        <pt x="932" y="398" on="1"/>
        <pt x="933" y="121" on="0"/>
        <pt x="995" y="121" on="1"/>
        <pt x="1268" y="123" on="1"/>
        <pt x="1350" y="124" on="0"/>
        <pt x="1398" y="186" on="1"/>
        <pt x="1476" y="287" on="0"/>
        <pt x="1525" y="287" on="1"/>
        <pt x="1590" y="287" on="0"/>
        <pt x="1590" y="236" on="1"/>
        <pt x="1590" y="197" on="0"/>
        <pt x="1552" y="127" on="1"/>
        <pt x="1484" y="2" on="0"/>
        <pt x="1345" y="2" on="1"/>
        <pt x="774" y="2" on="1"/>
        <pt x="651" y="2" on="0"/>
        <pt x="651" y="52" on="1"/>
        <pt x="651" y="54" on="1"/>
        <pt x="653" y="110" on="1"/>
        <pt x="654" y="125" on="0"/>
        <pt x="689" y="131" on="1"/>
        <pt x="714" y="135" on="0"/>
        <pt x="715" y="335" on="1"/>
        <pt x="723" y="1016" on="1"/>
        <pt x="723" y="1101" on="0"/>
        <pt x="630" y="1128" on="1"/>
        <pt x="596" y="1138" on="0"/>
        <pt x="596" y="1214" on="1"/>
        <pt x="596" y="1284" on="0"/>
        <pt x="656" y="1328" on="1"/>
        <pt x="689" y="1352" on="0"/>
        <pt x="991" y="1352" on="1"/>
      </contour>
      <contour>
        <pt x="114" y="1465" on="1"/>
        <pt x="0" y="1530" on="0"/>
        <pt x="0" y="1579" on="1"/>
        <pt x="0" y="1616" on="0"/>
        <pt x="84" y="1628" on="1"/>
        <pt x="157" y="1639" on="0"/>
        <pt x="158" y="1639" on="1"/>
        <pt x="257" y="1639" on="0"/>
        <pt x="351" y="1621" on="1"/>
        <pt x="498" y="1593" on="0"/>
        <pt x="525" y="1535" on="1"/>
        <pt x="587" y="1402" on="0"/>
        <pt x="587" y="1328" on="1"/>
        <pt x="587" y="1271" on="0"/>
        <pt x="545" y="1157" on="1"/>
        <pt x="524" y="1100" on="0"/>
        <pt x="463" y="1051" on="1"/>
        <pt x="391" y="993" on="0"/>
        <pt x="312" y="962" on="1"/>
        <pt x="243" y="935" on="0"/>
        <pt x="151" y="935" on="1"/>
        <pt x="97" y="935" on="0"/>
        <pt x="33" y="963" on="1"/>
        <pt x="6" y="975" on="0"/>
        <pt x="6" y="1003" on="1"/>
        <pt x="6" y="1029" on="0"/>
        <pt x="62" y="1070" on="1"/>
        <pt x="146" y="1132" on="0"/>
        <pt x="209" y="1152" on="1"/>
        <pt x="261" y="1168" on="0"/>
        <pt x="279" y="1194" on="1"/>
        <pt x="315" y="1246" on="0"/>
        <pt x="315" y="1336" on="1"/>
        <pt x="315" y="1355" on="0"/>
        <pt x="287" y="1392" on="1"/>
        <pt x="269" y="1416" on="0"/>
        <pt x="227" y="1426" on="1"/>
        <pt x="173" y="1438" on="1"/>
        <pt x="160" y="1439" on="0"/>
      </contour>
    </TTGlyph>
    <TTGlyph name="Epsilonpsilioxia-grek" xMin="0" yMin="2" xMax="1972" yMax="1639">
      <contour>
        <pt x="1909" y="1352" on="1"/>
        <pt x="1909" y="1145" on="1"/>
        <pt x="1909" y="1095" on="0"/>
        <pt x="1876" y="1095" on="1"/>
        <pt x="1854" y="1095" on="0"/>
        <pt x="1705" y="1188" on="1"/>
        <pt x="1686" y="1200" on="0"/>
        <pt x="1555" y="1200" on="1"/>
        <pt x="1392" y="1200" on="0"/>
        <pt x="1352" y="1157" on="1"/>
        <pt x="1314" y="1116" on="0"/>
        <pt x="1314" y="854" on="1"/>
        <pt x="1314" y="790" on="0"/>
        <pt x="1369" y="789" on="1"/>
        <pt x="1611" y="784" on="1"/>
        <pt x="1668" y="784" on="0"/>
        <pt x="1710" y="841" on="1"/>
        <pt x="1744" y="887" on="0"/>
        <pt x="1797" y="887" on="1"/>
        <pt x="1840" y="887" on="0"/>
        <pt x="1840" y="825" on="1"/>
        <pt x="1840" y="553" on="1"/>
        <pt x="1840" y="510" on="0"/>
        <pt x="1795" y="510" on="1"/>
        <pt x="1761" y="510" on="0"/>
        <pt x="1709" y="557" on="1"/>
        <pt x="1666" y="596" on="0"/>
        <pt x="1658" y="596" on="1"/>
        <pt x="1373" y="590" on="1"/>
        <pt x="1314" y="588" on="0"/>
        <pt x="1314" y="398" on="1"/>
        <pt x="1315" y="121" on="0"/>
        <pt x="1377" y="121" on="1"/>
        <pt x="1650" y="123" on="1"/>
        <pt x="1732" y="124" on="0"/>
        <pt x="1780" y="186" on="1"/>
        <pt x="1858" y="287" on="0"/>
        <pt x="1907" y="287" on="1"/>
        <pt x="1972" y="287" on="0"/>
        <pt x="1972" y="236" on="1"/>
        <pt x="1972" y="197" on="0"/>
        <pt x="1934" y="127" on="1"/>
        <pt x="1866" y="2" on="0"/>
        <pt x="1727" y="2" on="1"/>
        <pt x="1156" y="2" on="1"/>
        <pt x="1033" y="2" on="0"/>
        <pt x="1033" y="52" on="1"/>
        <pt x="1033" y="54" on="1"/>
        <pt x="1035" y="110" on="1"/>
        <pt x="1036" y="125" on="0"/>
        <pt x="1071" y="131" on="1"/>
        <pt x="1096" y="135" on="0"/>
        <pt x="1097" y="335" on="1"/>
        <pt x="1105" y="1016" on="1"/>
        <pt x="1105" y="1101" on="0"/>
        <pt x="1012" y="1128" on="1"/>
        <pt x="978" y="1138" on="0"/>
        <pt x="978" y="1214" on="1"/>
        <pt x="978" y="1284" on="0"/>
        <pt x="1038" y="1328" on="1"/>
        <pt x="1071" y="1352" on="0"/>
        <pt x="1373" y="1352" on="1"/>
      </contour>
      <contour>
        <pt x="747" y="1529" on="1"/>
        <pt x="792" y="1631" on="0"/>
        <pt x="900" y="1631" on="1"/>
        <pt x="1045" y="1631" on="0"/>
        <pt x="1045" y="1491" on="0"/>
        <pt x="872" y="1113" on="1"/>
        <pt x="797" y="949" on="0"/>
        <pt x="687" y="949" on="1"/>
        <pt x="649" y="949" on="0"/>
        <pt x="591" y="969" on="1"/>
        <pt x="521" y="993" on="0"/>
        <pt x="521" y="1053" on="0"/>
        <pt x="591" y="1179" on="1"/>
      </contour>
      <contour>
        <pt x="114" y="1465" on="1"/>
        <pt x="0" y="1530" on="0"/>
        <pt x="0" y="1579" on="1"/>
        <pt x="0" y="1616" on="0"/>
        <pt x="84" y="1628" on="1"/>
        <pt x="157" y="1639" on="0"/>
        <pt x="158" y="1639" on="1"/>
        <pt x="257" y="1639" on="0"/>
        <pt x="351" y="1621" on="1"/>
        <pt x="498" y="1593" on="0"/>
        <pt x="525" y="1535" on="1"/>
        <pt x="587" y="1402" on="0"/>
        <pt x="587" y="1328" on="1"/>
        <pt x="587" y="1271" on="0"/>
        <pt x="545" y="1157" on="1"/>
        <pt x="524" y="1100" on="0"/>
        <pt x="463" y="1051" on="1"/>
        <pt x="391" y="993" on="0"/>
        <pt x="312" y="962" on="1"/>
        <pt x="243" y="935" on="0"/>
        <pt x="151" y="935" on="1"/>
        <pt x="97" y="935" on="0"/>
        <pt x="33" y="963" on="1"/>
        <pt x="6" y="975" on="0"/>
        <pt x="6" y="1003" on="1"/>
        <pt x="6" y="1029" on="0"/>
        <pt x="62" y="1070" on="1"/>
        <pt x="146" y="1132" on="0"/>
        <pt x="209" y="1152" on="1"/>
        <pt x="261" y="1168" on="0"/>
        <pt x="279" y="1194" on="1"/>
        <pt x="315" y="1246" on="0"/>
        <pt x="315" y="1336" on="1"/>
        <pt x="315" y="1355" on="0"/>
        <pt x="287" y="1392" on="1"/>
        <pt x="269" y="1416" on="0"/>
        <pt x="227" y="1426" on="1"/>
        <pt x="173" y="1438" on="1"/>
        <pt x="160" y="1439" on="0"/>
      </contour>
    </TTGlyph>
    <TTGlyph name="Epsilonpsilivaria-grek" xMin="0" yMin="2" xMax="2061" yMax="1642">
      <contour>
        <pt x="1998" y="1352" on="1"/>
        <pt x="1998" y="1145" on="1"/>
        <pt x="1998" y="1095" on="0"/>
        <pt x="1965" y="1095" on="1"/>
        <pt x="1943" y="1095" on="0"/>
        <pt x="1794" y="1188" on="1"/>
        <pt x="1775" y="1200" on="0"/>
        <pt x="1644" y="1200" on="1"/>
        <pt x="1481" y="1200" on="0"/>
        <pt x="1441" y="1157" on="1"/>
        <pt x="1403" y="1116" on="0"/>
        <pt x="1403" y="854" on="1"/>
        <pt x="1403" y="790" on="0"/>
        <pt x="1458" y="789" on="1"/>
        <pt x="1700" y="784" on="1"/>
        <pt x="1757" y="784" on="0"/>
        <pt x="1799" y="841" on="1"/>
        <pt x="1833" y="887" on="0"/>
        <pt x="1886" y="887" on="1"/>
        <pt x="1929" y="887" on="0"/>
        <pt x="1929" y="825" on="1"/>
        <pt x="1929" y="553" on="1"/>
        <pt x="1929" y="510" on="0"/>
        <pt x="1884" y="510" on="1"/>
        <pt x="1850" y="510" on="0"/>
        <pt x="1798" y="557" on="1"/>
        <pt x="1755" y="596" on="0"/>
        <pt x="1747" y="596" on="1"/>
        <pt x="1462" y="590" on="1"/>
        <pt x="1403" y="588" on="0"/>
        <pt x="1403" y="398" on="1"/>
        <pt x="1404" y="121" on="0"/>
        <pt x="1466" y="121" on="1"/>
        <pt x="1739" y="123" on="1"/>
        <pt x="1821" y="124" on="0"/>
        <pt x="1869" y="186" on="1"/>
        <pt x="1947" y="287" on="0"/>
        <pt x="1996" y="287" on="1"/>
        <pt x="2061" y="287" on="0"/>
        <pt x="2061" y="236" on="1"/>
        <pt x="2061" y="197" on="0"/>
        <pt x="2023" y="127" on="1"/>
        <pt x="1955" y="2" on="0"/>
        <pt x="1816" y="2" on="1"/>
        <pt x="1245" y="2" on="1"/>
        <pt x="1122" y="2" on="0"/>
        <pt x="1122" y="52" on="1"/>
        <pt x="1122" y="54" on="1"/>
        <pt x="1124" y="110" on="1"/>
        <pt x="1125" y="125" on="0"/>
        <pt x="1160" y="131" on="1"/>
        <pt x="1185" y="135" on="0"/>
        <pt x="1186" y="335" on="1"/>
        <pt x="1194" y="1016" on="1"/>
        <pt x="1194" y="1101" on="0"/>
        <pt x="1101" y="1128" on="1"/>
        <pt x="1067" y="1138" on="0"/>
        <pt x="1067" y="1214" on="1"/>
        <pt x="1067" y="1284" on="0"/>
        <pt x="1127" y="1328" on="1"/>
        <pt x="1160" y="1352" on="0"/>
        <pt x="1462" y="1352" on="1"/>
      </contour>
      <contour>
        <pt x="855" y="1534" on="1"/>
        <pt x="855" y="1534" on="0"/>
        <pt x="1011" y="1184" on="1"/>
        <pt x="1081" y="1058" on="0"/>
        <pt x="1081" y="998" on="0"/>
        <pt x="1011" y="974" on="1"/>
        <pt x="953" y="954" on="0"/>
        <pt x="915" y="954" on="1"/>
        <pt x="805" y="954" on="0"/>
        <pt x="730" y="1118" on="1"/>
        <pt x="557" y="1496" on="0"/>
        <pt x="557" y="1636" on="0"/>
        <pt x="702" y="1636" on="1"/>
        <pt x="810" y="1636" on="0"/>
      </contour>
      <contour>
        <pt x="114" y="1468" on="1"/>
        <pt x="0" y="1533" on="0"/>
        <pt x="0" y="1582" on="1"/>
        <pt x="0" y="1619" on="0"/>
        <pt x="84" y="1631" on="1"/>
        <pt x="157" y="1642" on="0"/>
        <pt x="158" y="1642" on="1"/>
        <pt x="257" y="1642" on="0"/>
        <pt x="351" y="1624" on="1"/>
        <pt x="498" y="1596" on="0"/>
        <pt x="525" y="1538" on="1"/>
        <pt x="587" y="1405" on="0"/>
        <pt x="587" y="1331" on="1"/>
        <pt x="587" y="1274" on="0"/>
        <pt x="545" y="1160" on="1"/>
        <pt x="524" y="1103" on="0"/>
        <pt x="463" y="1054" on="1"/>
        <pt x="391" y="996" on="0"/>
        <pt x="312" y="965" on="1"/>
        <pt x="243" y="938" on="0"/>
        <pt x="151" y="938" on="1"/>
        <pt x="97" y="938" on="0"/>
        <pt x="33" y="966" on="1"/>
        <pt x="6" y="978" on="0"/>
        <pt x="6" y="1006" on="1"/>
        <pt x="6" y="1032" on="0"/>
        <pt x="62" y="1073" on="1"/>
        <pt x="146" y="1135" on="0"/>
        <pt x="209" y="1155" on="1"/>
        <pt x="261" y="1171" on="0"/>
        <pt x="279" y="1197" on="1"/>
        <pt x="315" y="1249" on="0"/>
        <pt x="315" y="1339" on="1"/>
        <pt x="315" y="1358" on="0"/>
        <pt x="287" y="1395" on="1"/>
        <pt x="269" y="1419" on="0"/>
        <pt x="227" y="1429" on="1"/>
        <pt x="173" y="1441" on="1"/>
        <pt x="160" y="1442" on="0"/>
      </contour>
    </TTGlyph>
    <TTGlyph name="Epsilontonos-grek" xMin="0" yMin="2" xMax="1453" yMax="1637">
      <contour>
        <pt x="1390" y="1352" on="1"/>
        <pt x="1390" y="1145" on="1"/>
        <pt x="1390" y="1095" on="0"/>
        <pt x="1357" y="1095" on="1"/>
        <pt x="1334" y="1095" on="0"/>
        <pt x="1186" y="1188" on="1"/>
        <pt x="1167" y="1200" on="0"/>
        <pt x="1036" y="1200" on="1"/>
        <pt x="873" y="1200" on="0"/>
        <pt x="833" y="1157" on="1"/>
        <pt x="795" y="1116" on="0"/>
        <pt x="795" y="854" on="1"/>
        <pt x="795" y="790" on="0"/>
        <pt x="850" y="789" on="1"/>
        <pt x="1092" y="784" on="1"/>
        <pt x="1149" y="784" on="0"/>
        <pt x="1191" y="841" on="1"/>
        <pt x="1225" y="887" on="0"/>
        <pt x="1278" y="887" on="1"/>
        <pt x="1321" y="887" on="0"/>
        <pt x="1321" y="825" on="1"/>
        <pt x="1321" y="553" on="1"/>
        <pt x="1321" y="510" on="0"/>
        <pt x="1276" y="510" on="1"/>
        <pt x="1243" y="510" on="0"/>
        <pt x="1190" y="557" on="1"/>
        <pt x="1146" y="596" on="0"/>
        <pt x="1139" y="596" on="1"/>
        <pt x="854" y="590" on="1"/>
        <pt x="795" y="588" on="0"/>
        <pt x="795" y="398" on="1"/>
        <pt x="796" y="121" on="0"/>
        <pt x="858" y="121" on="1"/>
        <pt x="1131" y="123" on="1"/>
        <pt x="1213" y="124" on="0"/>
        <pt x="1261" y="186" on="1"/>
        <pt x="1339" y="287" on="0"/>
        <pt x="1388" y="287" on="1"/>
        <pt x="1453" y="287" on="0"/>
        <pt x="1453" y="236" on="1"/>
        <pt x="1453" y="198" on="0"/>
        <pt x="1415" y="127" on="1"/>
        <pt x="1347" y="2" on="0"/>
        <pt x="1208" y="2" on="1"/>
        <pt x="637" y="2" on="1"/>
        <pt x="514" y="2" on="0"/>
        <pt x="514" y="52" on="1"/>
        <pt x="514" y="54" on="1"/>
        <pt x="516" y="110" on="1"/>
        <pt x="518" y="125" on="0"/>
        <pt x="552" y="131" on="1"/>
        <pt x="576" y="135" on="0"/>
        <pt x="578" y="335" on="1"/>
        <pt x="586" y="1016" on="1"/>
        <pt x="586" y="1101" on="0"/>
        <pt x="493" y="1128" on="1"/>
        <pt x="459" y="1138" on="0"/>
        <pt x="459" y="1214" on="1"/>
        <pt x="459" y="1284" on="0"/>
        <pt x="519" y="1328" on="1"/>
        <pt x="552" y="1352" on="0"/>
        <pt x="854" y="1352" on="1"/>
      </contour>
      <contour>
        <pt x="226" y="1535" on="1"/>
        <pt x="271" y="1637" on="0"/>
        <pt x="379" y="1637" on="1"/>
        <pt x="524" y="1637" on="0"/>
        <pt x="524" y="1567" on="1"/>
        <pt x="524" y="1498" on="0"/>
        <pt x="351" y="1119" on="1"/>
        <pt x="276" y="955" on="0"/>
        <pt x="166" y="955" on="1"/>
        <pt x="130" y="955" on="0"/>
        <pt x="70" y="975" on="1"/>
        <pt x="0" y="999" on="0"/>
        <pt x="0" y="1029" on="1"/>
        <pt x="0" y="1060" on="0"/>
        <pt x="70" y="1185" on="1"/>
      </contour>
    </TTGlyph>
    <TTGlyph name="Epsilonvaria-grek" xMin="0" yMin="2" xMax="1518" yMax="1638">
      <contour>
        <pt x="1455" y="1352" on="1"/>
        <pt x="1455" y="1145" on="1"/>
        <pt x="1455" y="1095" on="0"/>
        <pt x="1422" y="1095" on="1"/>
        <pt x="1400" y="1095" on="0"/>
        <pt x="1251" y="1188" on="1"/>
        <pt x="1232" y="1200" on="0"/>
        <pt x="1101" y="1200" on="1"/>
        <pt x="938" y="1200" on="0"/>
        <pt x="898" y="1157" on="1"/>
        <pt x="860" y="1116" on="0"/>
        <pt x="860" y="854" on="1"/>
        <pt x="860" y="790" on="0"/>
        <pt x="915" y="789" on="1"/>
        <pt x="1157" y="784" on="1"/>
        <pt x="1214" y="784" on="0"/>
        <pt x="1256" y="841" on="1"/>
        <pt x="1290" y="887" on="0"/>
        <pt x="1343" y="887" on="1"/>
        <pt x="1386" y="887" on="0"/>
        <pt x="1386" y="825" on="1"/>
        <pt x="1386" y="553" on="1"/>
        <pt x="1386" y="510" on="0"/>
        <pt x="1341" y="510" on="1"/>
        <pt x="1307" y="510" on="0"/>
        <pt x="1255" y="557" on="1"/>
        <pt x="1212" y="596" on="0"/>
        <pt x="1204" y="596" on="1"/>
        <pt x="919" y="590" on="1"/>
        <pt x="860" y="588" on="0"/>
        <pt x="860" y="398" on="1"/>
        <pt x="861" y="121" on="0"/>
        <pt x="923" y="121" on="1"/>
        <pt x="1196" y="123" on="1"/>
        <pt x="1278" y="124" on="0"/>
        <pt x="1326" y="186" on="1"/>
        <pt x="1404" y="287" on="0"/>
        <pt x="1453" y="287" on="1"/>
        <pt x="1518" y="287" on="0"/>
        <pt x="1518" y="236" on="1"/>
        <pt x="1518" y="197" on="0"/>
        <pt x="1480" y="127" on="1"/>
        <pt x="1412" y="2" on="0"/>
        <pt x="1273" y="2" on="1"/>
        <pt x="702" y="2" on="1"/>
        <pt x="579" y="2" on="0"/>
        <pt x="579" y="52" on="1"/>
        <pt x="579" y="54" on="1"/>
        <pt x="581" y="110" on="1"/>
        <pt x="582" y="125" on="0"/>
        <pt x="617" y="131" on="1"/>
        <pt x="642" y="135" on="0"/>
        <pt x="643" y="335" on="1"/>
        <pt x="651" y="1016" on="1"/>
        <pt x="651" y="1101" on="0"/>
        <pt x="558" y="1128" on="1"/>
        <pt x="524" y="1138" on="0"/>
        <pt x="524" y="1214" on="1"/>
        <pt x="524" y="1284" on="0"/>
        <pt x="584" y="1328" on="1"/>
        <pt x="617" y="1352" on="0"/>
        <pt x="919" y="1352" on="1"/>
      </contour>
      <contour>
        <pt x="298" y="1536" on="1"/>
        <pt x="298" y="1536" on="0"/>
        <pt x="454" y="1186" on="1"/>
        <pt x="524" y="1060" on="0"/>
        <pt x="524" y="1000" on="0"/>
        <pt x="454" y="976" on="1"/>
        <pt x="396" y="956" on="0"/>
        <pt x="358" y="956" on="1"/>
        <pt x="248" y="956" on="0"/>
        <pt x="173" y="1120" on="1"/>
        <pt x="0" y="1498" on="0"/>
        <pt x="0" y="1638" on="0"/>
        <pt x="145" y="1638" on="1"/>
        <pt x="253" y="1638" on="0"/>
      </contour>
    </TTGlyph>
    <TTGlyph name="Eta-grek" xMin="0" yMin="0" xMax="1331" yMax="1346">
      <contour>
        <pt x="315" y="803" on="1"/>
        <pt x="1024" y="803" on="1"/>
        <pt x="1024" y="1169" on="1"/>
        <pt x="938" y="1169" on="0"/>
        <pt x="938" y="1211" on="1"/>
        <pt x="938" y="1294" on="1"/>
        <pt x="938" y="1343" on="0"/>
        <pt x="1003" y="1343" on="1"/>
        <pt x="1073" y="1343" on="1"/>
        <pt x="1099" y="1309" on="0"/>
        <pt x="1126" y="1311" on="1"/>
        <pt x="1155" y="1311" on="0"/>
        <pt x="1181" y="1343" on="1"/>
        <pt x="1261" y="1343" on="1"/>
        <pt x="1302" y="1343" on="0"/>
        <pt x="1302" y="1307" on="1"/>
        <pt x="1302" y="1214" on="1"/>
        <pt x="1302" y="1194" on="0"/>
        <pt x="1293" y="1184" on="1"/>
        <pt x="1284" y="1175" on="0"/>
        <pt x="1265" y="1176" on="1"/>
        <pt x="1265" y="178" on="1"/>
        <pt x="1331" y="178" on="0"/>
        <pt x="1331" y="135" on="1"/>
        <pt x="1331" y="53" on="1"/>
        <pt x="1331" y="0" on="0"/>
        <pt x="1282" y="0" on="1"/>
        <pt x="1196" y="0" on="1"/>
        <pt x="1165" y="37" on="0"/>
        <pt x="1142" y="37" on="1"/>
        <pt x="1117" y="37" on="0"/>
        <pt x="1087" y="0" on="1"/>
        <pt x="999" y="0" on="1"/>
        <pt x="958" y="0" on="0"/>
        <pt x="958" y="41" on="1"/>
        <pt x="958" y="133" on="1"/>
        <pt x="958" y="172" on="0"/>
        <pt x="1018" y="172" on="1"/>
        <pt x="1018" y="580" on="1"/>
        <pt x="307" y="580" on="1"/>
        <pt x="307" y="176" on="1"/>
        <pt x="389" y="176" on="0"/>
        <pt x="389" y="133" on="1"/>
        <pt x="389" y="51" on="1"/>
        <pt x="389" y="0" on="0"/>
        <pt x="323" y="0" on="1"/>
        <pt x="254" y="0" on="1"/>
        <pt x="227" y="34" on="0"/>
        <pt x="173" y="34" on="0"/>
        <pt x="145" y="0" on="1"/>
        <pt x="65" y="0" on="1"/>
        <pt x="24" y="0" on="0"/>
        <pt x="24" y="39" on="1"/>
        <pt x="24" y="131" on="1"/>
        <pt x="24" y="170" on="0"/>
        <pt x="57" y="170" on="1"/>
        <pt x="57" y="1178" on="1"/>
        <pt x="0" y="1178" on="0"/>
        <pt x="0" y="1217" on="1"/>
        <pt x="0" y="1309" on="1"/>
        <pt x="0" y="1346" on="0"/>
        <pt x="41" y="1346" on="1"/>
        <pt x="135" y="1346" on="1"/>
        <pt x="162" y="1313" on="0"/>
        <pt x="218" y="1313" on="0"/>
        <pt x="243" y="1346" on="1"/>
        <pt x="336" y="1346" on="1"/>
        <pt x="385" y="1346" on="0"/>
        <pt x="385" y="1296" on="1"/>
        <pt x="385" y="1214" on="1"/>
        <pt x="385" y="1171" on="0"/>
        <pt x="315" y="1171" on="1"/>
      </contour>
    </TTGlyph>
    <TTGlyph name="Etadasia-grek" xMin="0" yMin="0" xMax="1919" yMax="1639">
      <contour>
        <pt x="903" y="803" on="1"/>
        <pt x="1612" y="803" on="1"/>
        <pt x="1612" y="1169" on="1"/>
        <pt x="1526" y="1169" on="0"/>
        <pt x="1526" y="1211" on="1"/>
        <pt x="1526" y="1294" on="1"/>
        <pt x="1526" y="1343" on="0"/>
        <pt x="1591" y="1343" on="1"/>
        <pt x="1661" y="1343" on="1"/>
        <pt x="1688" y="1309" on="0"/>
        <pt x="1714" y="1311" on="1"/>
        <pt x="1743" y="1311" on="0"/>
        <pt x="1769" y="1343" on="1"/>
        <pt x="1849" y="1343" on="1"/>
        <pt x="1890" y="1343" on="0"/>
        <pt x="1890" y="1307" on="1"/>
        <pt x="1890" y="1214" on="1"/>
        <pt x="1890" y="1194" on="0"/>
        <pt x="1872" y="1175" on="0"/>
        <pt x="1853" y="1176" on="1"/>
        <pt x="1853" y="178" on="1"/>
        <pt x="1919" y="178" on="0"/>
        <pt x="1919" y="135" on="1"/>
        <pt x="1919" y="53" on="1"/>
        <pt x="1919" y="0" on="0"/>
        <pt x="1870" y="0" on="1"/>
        <pt x="1784" y="0" on="1"/>
        <pt x="1753" y="37" on="0"/>
        <pt x="1730" y="37" on="1"/>
        <pt x="1705" y="37" on="0"/>
        <pt x="1675" y="0" on="1"/>
        <pt x="1587" y="0" on="1"/>
        <pt x="1546" y="0" on="0"/>
        <pt x="1546" y="41" on="1"/>
        <pt x="1546" y="133" on="1"/>
        <pt x="1546" y="172" on="0"/>
        <pt x="1606" y="172" on="1"/>
        <pt x="1606" y="580" on="1"/>
        <pt x="895" y="580" on="1"/>
        <pt x="895" y="176" on="1"/>
        <pt x="977" y="176" on="0"/>
        <pt x="977" y="133" on="1"/>
        <pt x="977" y="51" on="1"/>
        <pt x="977" y="0" on="0"/>
        <pt x="911" y="0" on="1"/>
        <pt x="842" y="0" on="1"/>
        <pt x="815" y="34" on="0"/>
        <pt x="761" y="34" on="0"/>
        <pt x="733" y="0" on="1"/>
        <pt x="653" y="0" on="1"/>
        <pt x="612" y="0" on="0"/>
        <pt x="612" y="39" on="1"/>
        <pt x="612" y="131" on="1"/>
        <pt x="612" y="170" on="0"/>
        <pt x="645" y="170" on="1"/>
        <pt x="645" y="1178" on="1"/>
        <pt x="588" y="1178" on="0"/>
        <pt x="588" y="1217" on="1"/>
        <pt x="588" y="1309" on="1"/>
        <pt x="588" y="1346" on="0"/>
        <pt x="629" y="1346" on="1"/>
        <pt x="723" y="1346" on="1"/>
        <pt x="750" y="1313" on="0"/>
        <pt x="806" y="1313" on="0"/>
        <pt x="831" y="1346" on="1"/>
        <pt x="924" y="1346" on="1"/>
        <pt x="973" y="1346" on="0"/>
        <pt x="973" y="1296" on="1"/>
        <pt x="973" y="1214" on="1"/>
        <pt x="973" y="1171" on="0"/>
        <pt x="903" y="1171" on="1"/>
      </contour>
      <contour>
        <pt x="473" y="1465" on="1"/>
        <pt x="427" y="1439" on="0"/>
        <pt x="414" y="1438" on="1"/>
        <pt x="360" y="1426" on="1"/>
        <pt x="318" y="1416" on="0"/>
        <pt x="300" y="1392" on="1"/>
        <pt x="272" y="1355" on="0"/>
        <pt x="272" y="1336" on="1"/>
        <pt x="272" y="1246" on="0"/>
        <pt x="308" y="1194" on="1"/>
        <pt x="326" y="1168" on="0"/>
        <pt x="378" y="1152" on="1"/>
        <pt x="441" y="1132" on="0"/>
        <pt x="525" y="1070" on="1"/>
        <pt x="581" y="1029" on="0"/>
        <pt x="581" y="1003" on="1"/>
        <pt x="581" y="975" on="0"/>
        <pt x="554" y="963" on="1"/>
        <pt x="490" y="935" on="0"/>
        <pt x="436" y="935" on="1"/>
        <pt x="344" y="935" on="0"/>
        <pt x="275" y="962" on="1"/>
        <pt x="196" y="993" on="0"/>
        <pt x="124" y="1051" on="1"/>
        <pt x="63" y="1100" on="0"/>
        <pt x="42" y="1157" on="1"/>
        <pt x="0" y="1271" on="0"/>
        <pt x="0" y="1328" on="1"/>
        <pt x="0" y="1402" on="0"/>
        <pt x="62" y="1535" on="1"/>
        <pt x="89" y="1593" on="0"/>
        <pt x="236" y="1621" on="1"/>
        <pt x="330" y="1639" on="0"/>
        <pt x="429" y="1639" on="1"/>
        <pt x="430" y="1639" on="0"/>
        <pt x="503" y="1628" on="1"/>
        <pt x="587" y="1616" on="0"/>
        <pt x="587" y="1579" on="1"/>
        <pt x="587" y="1530" on="0"/>
      </contour>
    </TTGlyph>
    <TTGlyph name="Etadasiaoxia-grek" xMin="0" yMin="0" xMax="2455" yMax="1639">
      <contour>
        <pt x="1439" y="803" on="1"/>
        <pt x="2148" y="803" on="1"/>
        <pt x="2148" y="1169" on="1"/>
        <pt x="2062" y="1169" on="0"/>
        <pt x="2062" y="1211" on="1"/>
        <pt x="2062" y="1294" on="1"/>
        <pt x="2062" y="1343" on="0"/>
        <pt x="2127" y="1343" on="1"/>
        <pt x="2197" y="1343" on="1"/>
        <pt x="2224" y="1309" on="0"/>
        <pt x="2250" y="1311" on="1"/>
        <pt x="2279" y="1311" on="0"/>
        <pt x="2305" y="1343" on="1"/>
        <pt x="2385" y="1343" on="1"/>
        <pt x="2426" y="1343" on="0"/>
        <pt x="2426" y="1307" on="1"/>
        <pt x="2426" y="1214" on="1"/>
        <pt x="2426" y="1194" on="0"/>
        <pt x="2408" y="1175" on="0"/>
        <pt x="2389" y="1176" on="1"/>
        <pt x="2389" y="178" on="1"/>
        <pt x="2455" y="178" on="0"/>
        <pt x="2455" y="135" on="1"/>
        <pt x="2455" y="53" on="1"/>
        <pt x="2455" y="0" on="0"/>
        <pt x="2406" y="0" on="1"/>
        <pt x="2320" y="0" on="1"/>
        <pt x="2289" y="37" on="0"/>
        <pt x="2266" y="37" on="1"/>
        <pt x="2241" y="37" on="0"/>
        <pt x="2211" y="0" on="1"/>
        <pt x="2123" y="0" on="1"/>
        <pt x="2082" y="0" on="0"/>
        <pt x="2082" y="41" on="1"/>
        <pt x="2082" y="133" on="1"/>
        <pt x="2082" y="172" on="0"/>
        <pt x="2142" y="172" on="1"/>
        <pt x="2142" y="580" on="1"/>
        <pt x="1431" y="580" on="1"/>
        <pt x="1431" y="176" on="1"/>
        <pt x="1513" y="176" on="0"/>
        <pt x="1513" y="133" on="1"/>
        <pt x="1513" y="51" on="1"/>
        <pt x="1513" y="0" on="0"/>
        <pt x="1447" y="0" on="1"/>
        <pt x="1378" y="0" on="1"/>
        <pt x="1351" y="34" on="0"/>
        <pt x="1297" y="34" on="0"/>
        <pt x="1269" y="0" on="1"/>
        <pt x="1189" y="0" on="1"/>
        <pt x="1148" y="0" on="0"/>
        <pt x="1148" y="39" on="1"/>
        <pt x="1148" y="131" on="1"/>
        <pt x="1148" y="170" on="0"/>
        <pt x="1181" y="170" on="1"/>
        <pt x="1181" y="1178" on="1"/>
        <pt x="1124" y="1178" on="0"/>
        <pt x="1124" y="1217" on="1"/>
        <pt x="1124" y="1309" on="1"/>
        <pt x="1124" y="1346" on="0"/>
        <pt x="1165" y="1346" on="1"/>
        <pt x="1259" y="1346" on="1"/>
        <pt x="1286" y="1313" on="0"/>
        <pt x="1342" y="1313" on="0"/>
        <pt x="1367" y="1346" on="1"/>
        <pt x="1460" y="1346" on="1"/>
        <pt x="1509" y="1346" on="0"/>
        <pt x="1509" y="1296" on="1"/>
        <pt x="1509" y="1214" on="1"/>
        <pt x="1509" y="1171" on="0"/>
        <pt x="1439" y="1171" on="1"/>
      </contour>
      <contour>
        <pt x="828" y="1509" on="1"/>
        <pt x="873" y="1611" on="0"/>
        <pt x="981" y="1611" on="1"/>
        <pt x="1126" y="1611" on="0"/>
        <pt x="1126" y="1471" on="0"/>
        <pt x="953" y="1093" on="1"/>
        <pt x="878" y="929" on="0"/>
        <pt x="768" y="929" on="1"/>
        <pt x="730" y="929" on="0"/>
        <pt x="672" y="949" on="1"/>
        <pt x="602" y="973" on="0"/>
        <pt x="602" y="1033" on="0"/>
        <pt x="672" y="1159" on="1"/>
      </contour>
      <contour>
        <pt x="473" y="1465" on="1"/>
        <pt x="427" y="1439" on="0"/>
        <pt x="414" y="1438" on="1"/>
        <pt x="360" y="1426" on="1"/>
        <pt x="318" y="1416" on="0"/>
        <pt x="300" y="1392" on="1"/>
        <pt x="272" y="1355" on="0"/>
        <pt x="272" y="1336" on="1"/>
        <pt x="272" y="1246" on="0"/>
        <pt x="308" y="1194" on="1"/>
        <pt x="326" y="1168" on="0"/>
        <pt x="378" y="1152" on="1"/>
        <pt x="441" y="1132" on="0"/>
        <pt x="525" y="1070" on="1"/>
        <pt x="581" y="1029" on="0"/>
        <pt x="581" y="1003" on="1"/>
        <pt x="581" y="975" on="0"/>
        <pt x="554" y="963" on="1"/>
        <pt x="490" y="935" on="0"/>
        <pt x="436" y="935" on="1"/>
        <pt x="344" y="935" on="0"/>
        <pt x="275" y="962" on="1"/>
        <pt x="196" y="993" on="0"/>
        <pt x="124" y="1051" on="1"/>
        <pt x="63" y="1100" on="0"/>
        <pt x="42" y="1157" on="1"/>
        <pt x="0" y="1271" on="0"/>
        <pt x="0" y="1328" on="1"/>
        <pt x="0" y="1402" on="0"/>
        <pt x="62" y="1535" on="1"/>
        <pt x="89" y="1593" on="0"/>
        <pt x="236" y="1621" on="1"/>
        <pt x="330" y="1639" on="0"/>
        <pt x="429" y="1639" on="1"/>
        <pt x="430" y="1639" on="0"/>
        <pt x="503" y="1628" on="1"/>
        <pt x="587" y="1616" on="0"/>
        <pt x="587" y="1579" on="1"/>
        <pt x="587" y="1530" on="0"/>
      </contour>
    </TTGlyph>
    <TTGlyph name="Etadasiaoxiaprosgegrammeni-grek" xMin="0" yMin="-406" xMax="2455" yMax="1639">
      <contour>
        <pt x="1883" y="-177" on="1"/>
        <pt x="1921" y="-217" on="0"/>
        <pt x="1921" y="-272" on="1"/>
        <pt x="1921" y="-325" on="0"/>
        <pt x="1883" y="-365" on="1"/>
        <pt x="1845" y="-406" on="0"/>
        <pt x="1788" y="-406" on="1"/>
        <pt x="1738" y="-406" on="0"/>
        <pt x="1698" y="-365" on="1"/>
        <pt x="1659" y="-325" on="0"/>
        <pt x="1659" y="-270" on="1"/>
        <pt x="1659" y="-217" on="0"/>
        <pt x="1698" y="-177" on="1"/>
        <pt x="1738" y="-136" on="0"/>
        <pt x="1788" y="-136" on="1"/>
        <pt x="1845" y="-136" on="0"/>
      </contour>
      <contour>
        <pt x="1439" y="803" on="1"/>
        <pt x="2148" y="803" on="1"/>
        <pt x="2148" y="1169" on="1"/>
        <pt x="2062" y="1169" on="0"/>
        <pt x="2062" y="1211" on="1"/>
        <pt x="2062" y="1294" on="1"/>
        <pt x="2062" y="1343" on="0"/>
        <pt x="2127" y="1343" on="1"/>
        <pt x="2197" y="1343" on="1"/>
        <pt x="2224" y="1309" on="0"/>
        <pt x="2250" y="1311" on="1"/>
        <pt x="2279" y="1311" on="0"/>
        <pt x="2305" y="1343" on="1"/>
        <pt x="2385" y="1343" on="1"/>
        <pt x="2426" y="1343" on="0"/>
        <pt x="2426" y="1307" on="1"/>
        <pt x="2426" y="1214" on="1"/>
        <pt x="2426" y="1194" on="0"/>
        <pt x="2408" y="1175" on="0"/>
        <pt x="2389" y="1176" on="1"/>
        <pt x="2389" y="178" on="1"/>
        <pt x="2455" y="178" on="0"/>
        <pt x="2455" y="135" on="1"/>
        <pt x="2455" y="53" on="1"/>
        <pt x="2455" y="0" on="0"/>
        <pt x="2406" y="0" on="1"/>
        <pt x="2320" y="0" on="1"/>
        <pt x="2289" y="37" on="0"/>
        <pt x="2266" y="37" on="1"/>
        <pt x="2241" y="37" on="0"/>
        <pt x="2211" y="0" on="1"/>
        <pt x="2123" y="0" on="1"/>
        <pt x="2082" y="0" on="0"/>
        <pt x="2082" y="41" on="1"/>
        <pt x="2082" y="133" on="1"/>
        <pt x="2082" y="172" on="0"/>
        <pt x="2142" y="172" on="1"/>
        <pt x="2142" y="580" on="1"/>
        <pt x="1431" y="580" on="1"/>
        <pt x="1431" y="176" on="1"/>
        <pt x="1513" y="176" on="0"/>
        <pt x="1513" y="133" on="1"/>
        <pt x="1513" y="51" on="1"/>
        <pt x="1513" y="0" on="0"/>
        <pt x="1447" y="0" on="1"/>
        <pt x="1378" y="0" on="1"/>
        <pt x="1351" y="34" on="0"/>
        <pt x="1297" y="34" on="0"/>
        <pt x="1269" y="0" on="1"/>
        <pt x="1189" y="0" on="1"/>
        <pt x="1148" y="0" on="0"/>
        <pt x="1148" y="39" on="1"/>
        <pt x="1148" y="131" on="1"/>
        <pt x="1148" y="170" on="0"/>
        <pt x="1181" y="170" on="1"/>
        <pt x="1181" y="1178" on="1"/>
        <pt x="1124" y="1178" on="0"/>
        <pt x="1124" y="1217" on="1"/>
        <pt x="1124" y="1309" on="1"/>
        <pt x="1124" y="1346" on="0"/>
        <pt x="1165" y="1346" on="1"/>
        <pt x="1259" y="1346" on="1"/>
        <pt x="1286" y="1313" on="0"/>
        <pt x="1342" y="1313" on="0"/>
        <pt x="1367" y="1346" on="1"/>
        <pt x="1460" y="1346" on="1"/>
        <pt x="1509" y="1346" on="0"/>
        <pt x="1509" y="1296" on="1"/>
        <pt x="1509" y="1214" on="1"/>
        <pt x="1509" y="1171" on="0"/>
        <pt x="1439" y="1171" on="1"/>
      </contour>
      <contour>
        <pt x="828" y="1509" on="1"/>
        <pt x="873" y="1611" on="0"/>
        <pt x="981" y="1611" on="1"/>
        <pt x="1126" y="1611" on="0"/>
        <pt x="1126" y="1471" on="0"/>
        <pt x="953" y="1093" on="1"/>
        <pt x="878" y="929" on="0"/>
        <pt x="768" y="929" on="1"/>
        <pt x="730" y="929" on="0"/>
        <pt x="672" y="949" on="1"/>
        <pt x="602" y="973" on="0"/>
        <pt x="602" y="1033" on="0"/>
        <pt x="672" y="1159" on="1"/>
      </contour>
      <contour>
        <pt x="473" y="1465" on="1"/>
        <pt x="427" y="1439" on="0"/>
        <pt x="414" y="1438" on="1"/>
        <pt x="360" y="1426" on="1"/>
        <pt x="318" y="1416" on="0"/>
        <pt x="300" y="1392" on="1"/>
        <pt x="272" y="1355" on="0"/>
        <pt x="272" y="1336" on="1"/>
        <pt x="272" y="1246" on="0"/>
        <pt x="308" y="1194" on="1"/>
        <pt x="326" y="1168" on="0"/>
        <pt x="378" y="1152" on="1"/>
        <pt x="441" y="1132" on="0"/>
        <pt x="525" y="1070" on="1"/>
        <pt x="581" y="1029" on="0"/>
        <pt x="581" y="1003" on="1"/>
        <pt x="581" y="975" on="0"/>
        <pt x="554" y="963" on="1"/>
        <pt x="490" y="935" on="0"/>
        <pt x="436" y="935" on="1"/>
        <pt x="344" y="935" on="0"/>
        <pt x="275" y="962" on="1"/>
        <pt x="196" y="993" on="0"/>
        <pt x="124" y="1051" on="1"/>
        <pt x="63" y="1100" on="0"/>
        <pt x="42" y="1157" on="1"/>
        <pt x="0" y="1271" on="0"/>
        <pt x="0" y="1328" on="1"/>
        <pt x="0" y="1402" on="0"/>
        <pt x="62" y="1535" on="1"/>
        <pt x="89" y="1593" on="0"/>
        <pt x="236" y="1621" on="1"/>
        <pt x="330" y="1639" on="0"/>
        <pt x="429" y="1639" on="1"/>
        <pt x="430" y="1639" on="0"/>
        <pt x="503" y="1628" on="1"/>
        <pt x="587" y="1616" on="0"/>
        <pt x="587" y="1579" on="1"/>
        <pt x="587" y="1530" on="0"/>
      </contour>
    </TTGlyph>
    <TTGlyph name="Etadasiaperispomeni-grek" xMin="0" yMin="0" xMax="2096" yMax="2224">
      <contour>
        <pt x="1080" y="803" on="1"/>
        <pt x="1789" y="803" on="1"/>
        <pt x="1789" y="1169" on="1"/>
        <pt x="1703" y="1169" on="0"/>
        <pt x="1703" y="1211" on="1"/>
        <pt x="1703" y="1294" on="1"/>
        <pt x="1703" y="1343" on="0"/>
        <pt x="1768" y="1343" on="1"/>
        <pt x="1838" y="1343" on="1"/>
        <pt x="1865" y="1309" on="0"/>
        <pt x="1891" y="1311" on="1"/>
        <pt x="1920" y="1311" on="0"/>
        <pt x="1946" y="1343" on="1"/>
        <pt x="2026" y="1343" on="1"/>
        <pt x="2067" y="1343" on="0"/>
        <pt x="2067" y="1307" on="1"/>
        <pt x="2067" y="1214" on="1"/>
        <pt x="2067" y="1194" on="0"/>
        <pt x="2049" y="1175" on="0"/>
        <pt x="2030" y="1176" on="1"/>
        <pt x="2030" y="178" on="1"/>
        <pt x="2096" y="178" on="0"/>
        <pt x="2096" y="135" on="1"/>
        <pt x="2096" y="53" on="1"/>
        <pt x="2096" y="0" on="0"/>
        <pt x="2047" y="0" on="1"/>
        <pt x="1961" y="0" on="1"/>
        <pt x="1930" y="37" on="0"/>
        <pt x="1907" y="37" on="1"/>
        <pt x="1882" y="37" on="0"/>
        <pt x="1852" y="0" on="1"/>
        <pt x="1764" y="0" on="1"/>
        <pt x="1723" y="0" on="0"/>
        <pt x="1723" y="41" on="1"/>
        <pt x="1723" y="133" on="1"/>
        <pt x="1723" y="172" on="0"/>
        <pt x="1783" y="172" on="1"/>
        <pt x="1783" y="580" on="1"/>
        <pt x="1072" y="580" on="1"/>
        <pt x="1072" y="176" on="1"/>
        <pt x="1154" y="176" on="0"/>
        <pt x="1154" y="133" on="1"/>
        <pt x="1154" y="51" on="1"/>
        <pt x="1154" y="0" on="0"/>
        <pt x="1088" y="0" on="1"/>
        <pt x="1019" y="0" on="1"/>
        <pt x="992" y="34" on="0"/>
        <pt x="938" y="34" on="0"/>
        <pt x="910" y="0" on="1"/>
        <pt x="830" y="0" on="1"/>
        <pt x="789" y="0" on="0"/>
        <pt x="789" y="39" on="1"/>
        <pt x="789" y="131" on="1"/>
        <pt x="789" y="170" on="0"/>
        <pt x="822" y="170" on="1"/>
        <pt x="822" y="1178" on="1"/>
        <pt x="765" y="1178" on="0"/>
        <pt x="765" y="1217" on="1"/>
        <pt x="765" y="1309" on="1"/>
        <pt x="765" y="1346" on="0"/>
        <pt x="806" y="1346" on="1"/>
        <pt x="900" y="1346" on="1"/>
        <pt x="927" y="1313" on="0"/>
        <pt x="983" y="1313" on="0"/>
        <pt x="1008" y="1346" on="1"/>
        <pt x="1101" y="1346" on="1"/>
        <pt x="1150" y="1346" on="0"/>
        <pt x="1150" y="1296" on="1"/>
        <pt x="1150" y="1214" on="1"/>
        <pt x="1150" y="1171" on="0"/>
        <pt x="1080" y="1171" on="1"/>
      </contour>
      <contour>
        <pt x="16" y="1991" on="1"/>
        <pt x="85" y="2095" on="0"/>
        <pt x="233" y="2191" on="1"/>
        <pt x="284" y="2224" on="0"/>
        <pt x="353" y="2224" on="1"/>
        <pt x="499" y="2224" on="0"/>
        <pt x="561" y="2117" on="1"/>
        <pt x="614" y="2026" on="0"/>
        <pt x="674" y="2026" on="1"/>
        <pt x="721" y="2026" on="0"/>
        <pt x="742" y="2065" on="1"/>
        <pt x="780" y="2137" on="0"/>
        <pt x="834" y="2137" on="1"/>
        <pt x="942" y="2137" on="0"/>
        <pt x="942" y="2017" on="1"/>
        <pt x="942" y="1968" on="0"/>
        <pt x="913" y="1913" on="1"/>
        <pt x="881" y="1852" on="0"/>
        <pt x="773" y="1808" on="1"/>
        <pt x="682" y="1771" on="0"/>
        <pt x="603" y="1771" on="1"/>
        <pt x="520" y="1771" on="0"/>
        <pt x="450" y="1879" on="1"/>
        <pt x="388" y="1974" on="0"/>
        <pt x="343" y="1974" on="1"/>
        <pt x="322" y="1974" on="0"/>
        <pt x="309" y="1954" on="1"/>
        <pt x="265" y="1889" on="0"/>
        <pt x="260" y="1884" on="1"/>
        <pt x="145" y="1785" on="0"/>
        <pt x="112" y="1785" on="1"/>
        <pt x="72" y="1785" on="0"/>
        <pt x="36" y="1841" on="1"/>
        <pt x="0" y="1898" on="0"/>
        <pt x="0" y="1967" on="0"/>
      </contour>
      <contour>
        <pt x="642" y="1467" on="1"/>
        <pt x="596" y="1441" on="0"/>
        <pt x="583" y="1440" on="1"/>
        <pt x="529" y="1428" on="1"/>
        <pt x="487" y="1418" on="0"/>
        <pt x="469" y="1394" on="1"/>
        <pt x="441" y="1357" on="0"/>
        <pt x="441" y="1338" on="1"/>
        <pt x="441" y="1248" on="0"/>
        <pt x="477" y="1196" on="1"/>
        <pt x="495" y="1170" on="0"/>
        <pt x="547" y="1154" on="1"/>
        <pt x="610" y="1134" on="0"/>
        <pt x="694" y="1072" on="1"/>
        <pt x="750" y="1031" on="0"/>
        <pt x="750" y="1005" on="1"/>
        <pt x="750" y="977" on="0"/>
        <pt x="723" y="965" on="1"/>
        <pt x="659" y="937" on="0"/>
        <pt x="605" y="937" on="1"/>
        <pt x="513" y="937" on="0"/>
        <pt x="444" y="964" on="1"/>
        <pt x="365" y="995" on="0"/>
        <pt x="293" y="1053" on="1"/>
        <pt x="232" y="1102" on="0"/>
        <pt x="211" y="1159" on="1"/>
        <pt x="169" y="1273" on="0"/>
        <pt x="169" y="1330" on="1"/>
        <pt x="169" y="1404" on="0"/>
        <pt x="231" y="1537" on="1"/>
        <pt x="258" y="1595" on="0"/>
        <pt x="405" y="1623" on="1"/>
        <pt x="499" y="1641" on="0"/>
        <pt x="598" y="1641" on="1"/>
        <pt x="599" y="1641" on="0"/>
        <pt x="672" y="1630" on="1"/>
        <pt x="756" y="1618" on="0"/>
        <pt x="756" y="1581" on="1"/>
        <pt x="756" y="1532" on="0"/>
      </contour>
    </TTGlyph>
    <TTGlyph name="Etadasiaperispomeniprosgegrammeni-grek" xMin="0" yMin="-404" xMax="2096" yMax="2224">
      <contour>
        <pt x="1521" y="-175" on="1"/>
        <pt x="1559" y="-215" on="0"/>
        <pt x="1559" y="-270" on="1"/>
        <pt x="1559" y="-323" on="0"/>
        <pt x="1521" y="-363" on="1"/>
        <pt x="1483" y="-404" on="0"/>
        <pt x="1426" y="-404" on="1"/>
        <pt x="1376" y="-404" on="0"/>
        <pt x="1336" y="-363" on="1"/>
        <pt x="1297" y="-323" on="0"/>
        <pt x="1297" y="-268" on="1"/>
        <pt x="1297" y="-215" on="0"/>
        <pt x="1336" y="-175" on="1"/>
        <pt x="1376" y="-134" on="0"/>
        <pt x="1426" y="-134" on="1"/>
        <pt x="1483" y="-134" on="0"/>
      </contour>
      <contour>
        <pt x="1080" y="803" on="1"/>
        <pt x="1789" y="803" on="1"/>
        <pt x="1789" y="1169" on="1"/>
        <pt x="1703" y="1169" on="0"/>
        <pt x="1703" y="1211" on="1"/>
        <pt x="1703" y="1294" on="1"/>
        <pt x="1703" y="1343" on="0"/>
        <pt x="1768" y="1343" on="1"/>
        <pt x="1838" y="1343" on="1"/>
        <pt x="1865" y="1309" on="0"/>
        <pt x="1891" y="1311" on="1"/>
        <pt x="1920" y="1311" on="0"/>
        <pt x="1946" y="1343" on="1"/>
        <pt x="2026" y="1343" on="1"/>
        <pt x="2067" y="1343" on="0"/>
        <pt x="2067" y="1307" on="1"/>
        <pt x="2067" y="1214" on="1"/>
        <pt x="2067" y="1194" on="0"/>
        <pt x="2049" y="1175" on="0"/>
        <pt x="2030" y="1176" on="1"/>
        <pt x="2030" y="178" on="1"/>
        <pt x="2096" y="178" on="0"/>
        <pt x="2096" y="135" on="1"/>
        <pt x="2096" y="53" on="1"/>
        <pt x="2096" y="0" on="0"/>
        <pt x="2047" y="0" on="1"/>
        <pt x="1961" y="0" on="1"/>
        <pt x="1930" y="37" on="0"/>
        <pt x="1907" y="37" on="1"/>
        <pt x="1882" y="37" on="0"/>
        <pt x="1852" y="0" on="1"/>
        <pt x="1764" y="0" on="1"/>
        <pt x="1723" y="0" on="0"/>
        <pt x="1723" y="41" on="1"/>
        <pt x="1723" y="133" on="1"/>
        <pt x="1723" y="172" on="0"/>
        <pt x="1783" y="172" on="1"/>
        <pt x="1783" y="580" on="1"/>
        <pt x="1072" y="580" on="1"/>
        <pt x="1072" y="176" on="1"/>
        <pt x="1154" y="176" on="0"/>
        <pt x="1154" y="133" on="1"/>
        <pt x="1154" y="51" on="1"/>
        <pt x="1154" y="0" on="0"/>
        <pt x="1088" y="0" on="1"/>
        <pt x="1019" y="0" on="1"/>
        <pt x="992" y="34" on="0"/>
        <pt x="938" y="34" on="0"/>
        <pt x="910" y="0" on="1"/>
        <pt x="830" y="0" on="1"/>
        <pt x="789" y="0" on="0"/>
        <pt x="789" y="39" on="1"/>
        <pt x="789" y="131" on="1"/>
        <pt x="789" y="170" on="0"/>
        <pt x="822" y="170" on="1"/>
        <pt x="822" y="1178" on="1"/>
        <pt x="765" y="1178" on="0"/>
        <pt x="765" y="1217" on="1"/>
        <pt x="765" y="1309" on="1"/>
        <pt x="765" y="1346" on="0"/>
        <pt x="806" y="1346" on="1"/>
        <pt x="900" y="1346" on="1"/>
        <pt x="927" y="1313" on="0"/>
        <pt x="983" y="1313" on="0"/>
        <pt x="1008" y="1346" on="1"/>
        <pt x="1101" y="1346" on="1"/>
        <pt x="1150" y="1346" on="0"/>
        <pt x="1150" y="1296" on="1"/>
        <pt x="1150" y="1214" on="1"/>
        <pt x="1150" y="1171" on="0"/>
        <pt x="1080" y="1171" on="1"/>
      </contour>
      <contour>
        <pt x="16" y="1991" on="1"/>
        <pt x="85" y="2095" on="0"/>
        <pt x="233" y="2191" on="1"/>
        <pt x="284" y="2224" on="0"/>
        <pt x="353" y="2224" on="1"/>
        <pt x="499" y="2224" on="0"/>
        <pt x="561" y="2117" on="1"/>
        <pt x="614" y="2026" on="0"/>
        <pt x="674" y="2026" on="1"/>
        <pt x="721" y="2026" on="0"/>
        <pt x="742" y="2065" on="1"/>
        <pt x="780" y="2137" on="0"/>
        <pt x="834" y="2137" on="1"/>
        <pt x="942" y="2137" on="0"/>
        <pt x="942" y="2017" on="1"/>
        <pt x="942" y="1968" on="0"/>
        <pt x="913" y="1913" on="1"/>
        <pt x="881" y="1852" on="0"/>
        <pt x="773" y="1808" on="1"/>
        <pt x="682" y="1771" on="0"/>
        <pt x="603" y="1771" on="1"/>
        <pt x="520" y="1771" on="0"/>
        <pt x="450" y="1879" on="1"/>
        <pt x="388" y="1974" on="0"/>
        <pt x="343" y="1974" on="1"/>
        <pt x="322" y="1974" on="0"/>
        <pt x="309" y="1954" on="1"/>
        <pt x="265" y="1889" on="0"/>
        <pt x="260" y="1884" on="1"/>
        <pt x="145" y="1785" on="0"/>
        <pt x="112" y="1785" on="1"/>
        <pt x="72" y="1785" on="0"/>
        <pt x="36" y="1841" on="1"/>
        <pt x="0" y="1898" on="0"/>
        <pt x="0" y="1967" on="0"/>
      </contour>
      <contour>
        <pt x="642" y="1467" on="1"/>
        <pt x="596" y="1441" on="0"/>
        <pt x="583" y="1440" on="1"/>
        <pt x="529" y="1428" on="1"/>
        <pt x="487" y="1418" on="0"/>
        <pt x="469" y="1394" on="1"/>
        <pt x="441" y="1357" on="0"/>
        <pt x="441" y="1338" on="1"/>
        <pt x="441" y="1248" on="0"/>
        <pt x="477" y="1196" on="1"/>
        <pt x="495" y="1170" on="0"/>
        <pt x="547" y="1154" on="1"/>
        <pt x="610" y="1134" on="0"/>
        <pt x="694" y="1072" on="1"/>
        <pt x="750" y="1031" on="0"/>
        <pt x="750" y="1005" on="1"/>
        <pt x="750" y="977" on="0"/>
        <pt x="723" y="965" on="1"/>
        <pt x="659" y="937" on="0"/>
        <pt x="605" y="937" on="1"/>
        <pt x="513" y="937" on="0"/>
        <pt x="444" y="964" on="1"/>
        <pt x="365" y="995" on="0"/>
        <pt x="293" y="1053" on="1"/>
        <pt x="232" y="1102" on="0"/>
        <pt x="211" y="1159" on="1"/>
        <pt x="169" y="1273" on="0"/>
        <pt x="169" y="1330" on="1"/>
        <pt x="169" y="1404" on="0"/>
        <pt x="231" y="1537" on="1"/>
        <pt x="258" y="1595" on="0"/>
        <pt x="405" y="1623" on="1"/>
        <pt x="499" y="1641" on="0"/>
        <pt x="598" y="1641" on="1"/>
        <pt x="599" y="1641" on="0"/>
        <pt x="672" y="1630" on="1"/>
        <pt x="756" y="1618" on="0"/>
        <pt x="756" y="1581" on="1"/>
        <pt x="756" y="1532" on="0"/>
      </contour>
    </TTGlyph>
    <TTGlyph name="Etadasiaprosgegrammeni-grek" xMin="0" yMin="-405" xMax="1919" yMax="1639">
      <contour>
        <pt x="1334" y="-176" on="1"/>
        <pt x="1372" y="-216" on="0"/>
        <pt x="1372" y="-271" on="1"/>
        <pt x="1372" y="-324" on="0"/>
        <pt x="1334" y="-364" on="1"/>
        <pt x="1296" y="-405" on="0"/>
        <pt x="1239" y="-405" on="1"/>
        <pt x="1189" y="-405" on="0"/>
        <pt x="1149" y="-364" on="1"/>
        <pt x="1110" y="-324" on="0"/>
        <pt x="1110" y="-269" on="1"/>
        <pt x="1110" y="-216" on="0"/>
        <pt x="1149" y="-176" on="1"/>
        <pt x="1189" y="-135" on="0"/>
        <pt x="1239" y="-135" on="1"/>
        <pt x="1296" y="-135" on="0"/>
      </contour>
      <contour>
        <pt x="903" y="803" on="1"/>
        <pt x="1612" y="803" on="1"/>
        <pt x="1612" y="1169" on="1"/>
        <pt x="1526" y="1169" on="0"/>
        <pt x="1526" y="1211" on="1"/>
        <pt x="1526" y="1294" on="1"/>
        <pt x="1526" y="1343" on="0"/>
        <pt x="1591" y="1343" on="1"/>
        <pt x="1661" y="1343" on="1"/>
        <pt x="1688" y="1309" on="0"/>
        <pt x="1714" y="1311" on="1"/>
        <pt x="1743" y="1311" on="0"/>
        <pt x="1769" y="1343" on="1"/>
        <pt x="1849" y="1343" on="1"/>
        <pt x="1890" y="1343" on="0"/>
        <pt x="1890" y="1307" on="1"/>
        <pt x="1890" y="1214" on="1"/>
        <pt x="1890" y="1194" on="0"/>
        <pt x="1872" y="1175" on="0"/>
        <pt x="1853" y="1176" on="1"/>
        <pt x="1853" y="178" on="1"/>
        <pt x="1919" y="178" on="0"/>
        <pt x="1919" y="135" on="1"/>
        <pt x="1919" y="53" on="1"/>
        <pt x="1919" y="0" on="0"/>
        <pt x="1870" y="0" on="1"/>
        <pt x="1784" y="0" on="1"/>
        <pt x="1753" y="37" on="0"/>
        <pt x="1730" y="37" on="1"/>
        <pt x="1705" y="37" on="0"/>
        <pt x="1675" y="0" on="1"/>
        <pt x="1587" y="0" on="1"/>
        <pt x="1546" y="0" on="0"/>
        <pt x="1546" y="41" on="1"/>
        <pt x="1546" y="133" on="1"/>
        <pt x="1546" y="172" on="0"/>
        <pt x="1606" y="172" on="1"/>
        <pt x="1606" y="580" on="1"/>
        <pt x="895" y="580" on="1"/>
        <pt x="895" y="176" on="1"/>
        <pt x="977" y="176" on="0"/>
        <pt x="977" y="133" on="1"/>
        <pt x="977" y="51" on="1"/>
        <pt x="977" y="0" on="0"/>
        <pt x="911" y="0" on="1"/>
        <pt x="842" y="0" on="1"/>
        <pt x="815" y="34" on="0"/>
        <pt x="761" y="34" on="0"/>
        <pt x="733" y="0" on="1"/>
        <pt x="653" y="0" on="1"/>
        <pt x="612" y="0" on="0"/>
        <pt x="612" y="39" on="1"/>
        <pt x="612" y="131" on="1"/>
        <pt x="612" y="170" on="0"/>
        <pt x="645" y="170" on="1"/>
        <pt x="645" y="1178" on="1"/>
        <pt x="588" y="1178" on="0"/>
        <pt x="588" y="1217" on="1"/>
        <pt x="588" y="1309" on="1"/>
        <pt x="588" y="1346" on="0"/>
        <pt x="629" y="1346" on="1"/>
        <pt x="723" y="1346" on="1"/>
        <pt x="750" y="1313" on="0"/>
        <pt x="806" y="1313" on="0"/>
        <pt x="831" y="1346" on="1"/>
        <pt x="924" y="1346" on="1"/>
        <pt x="973" y="1346" on="0"/>
        <pt x="973" y="1296" on="1"/>
        <pt x="973" y="1214" on="1"/>
        <pt x="973" y="1171" on="0"/>
        <pt x="903" y="1171" on="1"/>
      </contour>
      <contour>
        <pt x="473" y="1465" on="1"/>
        <pt x="427" y="1439" on="0"/>
        <pt x="414" y="1438" on="1"/>
        <pt x="360" y="1426" on="1"/>
        <pt x="318" y="1416" on="0"/>
        <pt x="300" y="1392" on="1"/>
        <pt x="272" y="1355" on="0"/>
        <pt x="272" y="1336" on="1"/>
        <pt x="272" y="1246" on="0"/>
        <pt x="308" y="1194" on="1"/>
        <pt x="326" y="1168" on="0"/>
        <pt x="378" y="1152" on="1"/>
        <pt x="441" y="1132" on="0"/>
        <pt x="525" y="1070" on="1"/>
        <pt x="581" y="1029" on="0"/>
        <pt x="581" y="1003" on="1"/>
        <pt x="581" y="975" on="0"/>
        <pt x="554" y="963" on="1"/>
        <pt x="490" y="935" on="0"/>
        <pt x="436" y="935" on="1"/>
        <pt x="344" y="935" on="0"/>
        <pt x="275" y="962" on="1"/>
        <pt x="196" y="993" on="0"/>
        <pt x="124" y="1051" on="1"/>
        <pt x="63" y="1100" on="0"/>
        <pt x="42" y="1157" on="1"/>
        <pt x="0" y="1271" on="0"/>
        <pt x="0" y="1328" on="1"/>
        <pt x="0" y="1402" on="0"/>
        <pt x="62" y="1535" on="1"/>
        <pt x="89" y="1593" on="0"/>
        <pt x="236" y="1621" on="1"/>
        <pt x="330" y="1639" on="0"/>
        <pt x="429" y="1639" on="1"/>
        <pt x="430" y="1639" on="0"/>
        <pt x="503" y="1628" on="1"/>
        <pt x="587" y="1616" on="0"/>
        <pt x="587" y="1579" on="1"/>
        <pt x="587" y="1530" on="0"/>
      </contour>
    </TTGlyph>
    <TTGlyph name="Etadasiavaria-grek" xMin="0" yMin="0" xMax="2465" yMax="1639">
      <contour>
        <pt x="1449" y="803" on="1"/>
        <pt x="2158" y="803" on="1"/>
        <pt x="2158" y="1169" on="1"/>
        <pt x="2072" y="1169" on="0"/>
        <pt x="2072" y="1211" on="1"/>
        <pt x="2072" y="1294" on="1"/>
        <pt x="2072" y="1343" on="0"/>
        <pt x="2137" y="1343" on="1"/>
        <pt x="2207" y="1343" on="1"/>
        <pt x="2234" y="1309" on="0"/>
        <pt x="2260" y="1311" on="1"/>
        <pt x="2289" y="1311" on="0"/>
        <pt x="2315" y="1343" on="1"/>
        <pt x="2395" y="1343" on="1"/>
        <pt x="2436" y="1343" on="0"/>
        <pt x="2436" y="1307" on="1"/>
        <pt x="2436" y="1214" on="1"/>
        <pt x="2436" y="1194" on="0"/>
        <pt x="2418" y="1175" on="0"/>
        <pt x="2399" y="1176" on="1"/>
        <pt x="2399" y="178" on="1"/>
        <pt x="2465" y="178" on="0"/>
        <pt x="2465" y="135" on="1"/>
        <pt x="2465" y="53" on="1"/>
        <pt x="2465" y="0" on="0"/>
        <pt x="2416" y="0" on="1"/>
        <pt x="2330" y="0" on="1"/>
        <pt x="2299" y="37" on="0"/>
        <pt x="2276" y="37" on="1"/>
        <pt x="2251" y="37" on="0"/>
        <pt x="2221" y="0" on="1"/>
        <pt x="2133" y="0" on="1"/>
        <pt x="2092" y="0" on="0"/>
        <pt x="2092" y="41" on="1"/>
        <pt x="2092" y="133" on="1"/>
        <pt x="2092" y="172" on="0"/>
        <pt x="2152" y="172" on="1"/>
        <pt x="2152" y="580" on="1"/>
        <pt x="1441" y="580" on="1"/>
        <pt x="1441" y="176" on="1"/>
        <pt x="1523" y="176" on="0"/>
        <pt x="1523" y="133" on="1"/>
        <pt x="1523" y="51" on="1"/>
        <pt x="1523" y="0" on="0"/>
        <pt x="1457" y="0" on="1"/>
        <pt x="1388" y="0" on="1"/>
        <pt x="1361" y="34" on="0"/>
        <pt x="1307" y="34" on="0"/>
        <pt x="1279" y="0" on="1"/>
        <pt x="1199" y="0" on="1"/>
        <pt x="1158" y="0" on="0"/>
        <pt x="1158" y="39" on="1"/>
        <pt x="1158" y="131" on="1"/>
        <pt x="1158" y="170" on="0"/>
        <pt x="1191" y="170" on="1"/>
        <pt x="1191" y="1178" on="1"/>
        <pt x="1134" y="1178" on="0"/>
        <pt x="1134" y="1217" on="1"/>
        <pt x="1134" y="1309" on="1"/>
        <pt x="1134" y="1346" on="0"/>
        <pt x="1175" y="1346" on="1"/>
        <pt x="1269" y="1346" on="1"/>
        <pt x="1296" y="1313" on="0"/>
        <pt x="1352" y="1313" on="0"/>
        <pt x="1377" y="1346" on="1"/>
        <pt x="1470" y="1346" on="1"/>
        <pt x="1519" y="1346" on="0"/>
        <pt x="1519" y="1296" on="1"/>
        <pt x="1519" y="1214" on="1"/>
        <pt x="1519" y="1171" on="0"/>
        <pt x="1449" y="1171" on="1"/>
      </contour>
      <contour>
        <pt x="909" y="1533" on="1"/>
        <pt x="909" y="1533" on="0"/>
        <pt x="1065" y="1183" on="1"/>
        <pt x="1135" y="1057" on="0"/>
        <pt x="1135" y="997" on="0"/>
        <pt x="1065" y="973" on="1"/>
        <pt x="1007" y="953" on="0"/>
        <pt x="969" y="953" on="1"/>
        <pt x="859" y="953" on="0"/>
        <pt x="784" y="1117" on="1"/>
        <pt x="611" y="1495" on="0"/>
        <pt x="611" y="1635" on="0"/>
        <pt x="756" y="1635" on="1"/>
        <pt x="864" y="1635" on="0"/>
      </contour>
      <contour>
        <pt x="473" y="1465" on="1"/>
        <pt x="427" y="1439" on="0"/>
        <pt x="414" y="1438" on="1"/>
        <pt x="360" y="1426" on="1"/>
        <pt x="318" y="1416" on="0"/>
        <pt x="300" y="1392" on="1"/>
        <pt x="272" y="1355" on="0"/>
        <pt x="272" y="1336" on="1"/>
        <pt x="272" y="1246" on="0"/>
        <pt x="308" y="1194" on="1"/>
        <pt x="326" y="1168" on="0"/>
        <pt x="378" y="1152" on="1"/>
        <pt x="441" y="1132" on="0"/>
        <pt x="525" y="1070" on="1"/>
        <pt x="581" y="1029" on="0"/>
        <pt x="581" y="1003" on="1"/>
        <pt x="581" y="975" on="0"/>
        <pt x="554" y="963" on="1"/>
        <pt x="490" y="935" on="0"/>
        <pt x="436" y="935" on="1"/>
        <pt x="344" y="935" on="0"/>
        <pt x="275" y="962" on="1"/>
        <pt x="196" y="993" on="0"/>
        <pt x="124" y="1051" on="1"/>
        <pt x="63" y="1100" on="0"/>
        <pt x="42" y="1157" on="1"/>
        <pt x="0" y="1271" on="0"/>
        <pt x="0" y="1328" on="1"/>
        <pt x="0" y="1402" on="0"/>
        <pt x="62" y="1535" on="1"/>
        <pt x="89" y="1593" on="0"/>
        <pt x="236" y="1621" on="1"/>
        <pt x="330" y="1639" on="0"/>
        <pt x="429" y="1639" on="1"/>
        <pt x="430" y="1639" on="0"/>
        <pt x="503" y="1628" on="1"/>
        <pt x="587" y="1616" on="0"/>
        <pt x="587" y="1579" on="1"/>
        <pt x="587" y="1530" on="0"/>
      </contour>
    </TTGlyph>
    <TTGlyph name="Etadasiavariaprosgegrammeni-grek" xMin="0" yMin="-408" xMax="2465" yMax="1639">
      <contour>
        <pt x="1895" y="-179" on="1"/>
        <pt x="1933" y="-219" on="0"/>
        <pt x="1933" y="-274" on="1"/>
        <pt x="1933" y="-327" on="0"/>
        <pt x="1895" y="-367" on="1"/>
        <pt x="1857" y="-408" on="0"/>
        <pt x="1800" y="-408" on="1"/>
        <pt x="1750" y="-408" on="0"/>
        <pt x="1710" y="-367" on="1"/>
        <pt x="1671" y="-327" on="0"/>
        <pt x="1671" y="-272" on="1"/>
        <pt x="1671" y="-219" on="0"/>
        <pt x="1710" y="-179" on="1"/>
        <pt x="1750" y="-138" on="0"/>
        <pt x="1800" y="-138" on="1"/>
        <pt x="1857" y="-138" on="0"/>
      </contour>
      <contour>
        <pt x="1449" y="803" on="1"/>
        <pt x="2158" y="803" on="1"/>
        <pt x="2158" y="1169" on="1"/>
        <pt x="2072" y="1169" on="0"/>
        <pt x="2072" y="1211" on="1"/>
        <pt x="2072" y="1294" on="1"/>
        <pt x="2072" y="1343" on="0"/>
        <pt x="2137" y="1343" on="1"/>
        <pt x="2207" y="1343" on="1"/>
        <pt x="2234" y="1309" on="0"/>
        <pt x="2260" y="1311" on="1"/>
        <pt x="2289" y="1311" on="0"/>
        <pt x="2315" y="1343" on="1"/>
        <pt x="2395" y="1343" on="1"/>
        <pt x="2436" y="1343" on="0"/>
        <pt x="2436" y="1307" on="1"/>
        <pt x="2436" y="1214" on="1"/>
        <pt x="2436" y="1194" on="0"/>
        <pt x="2418" y="1175" on="0"/>
        <pt x="2399" y="1176" on="1"/>
        <pt x="2399" y="178" on="1"/>
        <pt x="2465" y="178" on="0"/>
        <pt x="2465" y="135" on="1"/>
        <pt x="2465" y="53" on="1"/>
        <pt x="2465" y="0" on="0"/>
        <pt x="2416" y="0" on="1"/>
        <pt x="2330" y="0" on="1"/>
        <pt x="2299" y="37" on="0"/>
        <pt x="2276" y="37" on="1"/>
        <pt x="2251" y="37" on="0"/>
        <pt x="2221" y="0" on="1"/>
        <pt x="2133" y="0" on="1"/>
        <pt x="2092" y="0" on="0"/>
        <pt x="2092" y="41" on="1"/>
        <pt x="2092" y="133" on="1"/>
        <pt x="2092" y="172" on="0"/>
        <pt x="2152" y="172" on="1"/>
        <pt x="2152" y="580" on="1"/>
        <pt x="1441" y="580" on="1"/>
        <pt x="1441" y="176" on="1"/>
        <pt x="1523" y="176" on="0"/>
        <pt x="1523" y="133" on="1"/>
        <pt x="1523" y="51" on="1"/>
        <pt x="1523" y="0" on="0"/>
        <pt x="1457" y="0" on="1"/>
        <pt x="1388" y="0" on="1"/>
        <pt x="1361" y="34" on="0"/>
        <pt x="1307" y="34" on="0"/>
        <pt x="1279" y="0" on="1"/>
        <pt x="1199" y="0" on="1"/>
        <pt x="1158" y="0" on="0"/>
        <pt x="1158" y="39" on="1"/>
        <pt x="1158" y="131" on="1"/>
        <pt x="1158" y="170" on="0"/>
        <pt x="1191" y="170" on="1"/>
        <pt x="1191" y="1178" on="1"/>
        <pt x="1134" y="1178" on="0"/>
        <pt x="1134" y="1217" on="1"/>
        <pt x="1134" y="1309" on="1"/>
        <pt x="1134" y="1346" on="0"/>
        <pt x="1175" y="1346" on="1"/>
        <pt x="1269" y="1346" on="1"/>
        <pt x="1296" y="1313" on="0"/>
        <pt x="1352" y="1313" on="0"/>
        <pt x="1377" y="1346" on="1"/>
        <pt x="1470" y="1346" on="1"/>
        <pt x="1519" y="1346" on="0"/>
        <pt x="1519" y="1296" on="1"/>
        <pt x="1519" y="1214" on="1"/>
        <pt x="1519" y="1171" on="0"/>
        <pt x="1449" y="1171" on="1"/>
      </contour>
      <contour>
        <pt x="909" y="1533" on="1"/>
        <pt x="909" y="1533" on="0"/>
        <pt x="1065" y="1183" on="1"/>
        <pt x="1135" y="1057" on="0"/>
        <pt x="1135" y="997" on="0"/>
        <pt x="1065" y="973" on="1"/>
        <pt x="1007" y="953" on="0"/>
        <pt x="969" y="953" on="1"/>
        <pt x="859" y="953" on="0"/>
        <pt x="784" y="1117" on="1"/>
        <pt x="611" y="1495" on="0"/>
        <pt x="611" y="1635" on="0"/>
        <pt x="756" y="1635" on="1"/>
        <pt x="864" y="1635" on="0"/>
      </contour>
      <contour>
        <pt x="473" y="1465" on="1"/>
        <pt x="427" y="1439" on="0"/>
        <pt x="414" y="1438" on="1"/>
        <pt x="360" y="1426" on="1"/>
        <pt x="318" y="1416" on="0"/>
        <pt x="300" y="1392" on="1"/>
        <pt x="272" y="1355" on="0"/>
        <pt x="272" y="1336" on="1"/>
        <pt x="272" y="1246" on="0"/>
        <pt x="308" y="1194" on="1"/>
        <pt x="326" y="1168" on="0"/>
        <pt x="378" y="1152" on="1"/>
        <pt x="441" y="1132" on="0"/>
        <pt x="525" y="1070" on="1"/>
        <pt x="581" y="1029" on="0"/>
        <pt x="581" y="1003" on="1"/>
        <pt x="581" y="975" on="0"/>
        <pt x="554" y="963" on="1"/>
        <pt x="490" y="935" on="0"/>
        <pt x="436" y="935" on="1"/>
        <pt x="344" y="935" on="0"/>
        <pt x="275" y="962" on="1"/>
        <pt x="196" y="993" on="0"/>
        <pt x="124" y="1051" on="1"/>
        <pt x="63" y="1100" on="0"/>
        <pt x="42" y="1157" on="1"/>
        <pt x="0" y="1271" on="0"/>
        <pt x="0" y="1328" on="1"/>
        <pt x="0" y="1402" on="0"/>
        <pt x="62" y="1535" on="1"/>
        <pt x="89" y="1593" on="0"/>
        <pt x="236" y="1621" on="1"/>
        <pt x="330" y="1639" on="0"/>
        <pt x="429" y="1639" on="1"/>
        <pt x="430" y="1639" on="0"/>
        <pt x="503" y="1628" on="1"/>
        <pt x="587" y="1616" on="0"/>
        <pt x="587" y="1579" on="1"/>
        <pt x="587" y="1530" on="0"/>
      </contour>
    </TTGlyph>
    <TTGlyph name="Etaoxia-grek" xMin="0" yMin="0" xMax="1859" yMax="1638">
      <contour>
        <pt x="843" y="803" on="1"/>
        <pt x="1552" y="803" on="1"/>
        <pt x="1552" y="1169" on="1"/>
        <pt x="1466" y="1169" on="0"/>
        <pt x="1466" y="1211" on="1"/>
        <pt x="1466" y="1294" on="1"/>
        <pt x="1466" y="1343" on="0"/>
        <pt x="1531" y="1343" on="1"/>
        <pt x="1601" y="1343" on="1"/>
        <pt x="1628" y="1309" on="0"/>
        <pt x="1654" y="1311" on="1"/>
        <pt x="1683" y="1311" on="0"/>
        <pt x="1709" y="1343" on="1"/>
        <pt x="1789" y="1343" on="1"/>
        <pt x="1830" y="1343" on="0"/>
        <pt x="1830" y="1307" on="1"/>
        <pt x="1830" y="1214" on="1"/>
        <pt x="1830" y="1194" on="0"/>
        <pt x="1812" y="1175" on="0"/>
        <pt x="1793" y="1176" on="1"/>
        <pt x="1793" y="178" on="1"/>
        <pt x="1859" y="178" on="0"/>
        <pt x="1859" y="135" on="1"/>
        <pt x="1859" y="53" on="1"/>
        <pt x="1859" y="0" on="0"/>
        <pt x="1810" y="0" on="1"/>
        <pt x="1724" y="0" on="1"/>
        <pt x="1693" y="37" on="0"/>
        <pt x="1670" y="37" on="1"/>
        <pt x="1645" y="37" on="0"/>
        <pt x="1615" y="0" on="1"/>
        <pt x="1527" y="0" on="1"/>
        <pt x="1486" y="0" on="0"/>
        <pt x="1486" y="41" on="1"/>
        <pt x="1486" y="133" on="1"/>
        <pt x="1486" y="172" on="0"/>
        <pt x="1546" y="172" on="1"/>
        <pt x="1546" y="580" on="1"/>
        <pt x="835" y="580" on="1"/>
        <pt x="835" y="176" on="1"/>
        <pt x="917" y="176" on="0"/>
        <pt x="917" y="133" on="1"/>
        <pt x="917" y="51" on="1"/>
        <pt x="917" y="0" on="0"/>
        <pt x="851" y="0" on="1"/>
        <pt x="782" y="0" on="1"/>
        <pt x="755" y="34" on="0"/>
        <pt x="701" y="34" on="0"/>
        <pt x="673" y="0" on="1"/>
        <pt x="593" y="0" on="1"/>
        <pt x="552" y="0" on="0"/>
        <pt x="552" y="39" on="1"/>
        <pt x="552" y="131" on="1"/>
        <pt x="552" y="170" on="0"/>
        <pt x="585" y="170" on="1"/>
        <pt x="585" y="1178" on="1"/>
        <pt x="528" y="1178" on="0"/>
        <pt x="528" y="1217" on="1"/>
        <pt x="528" y="1309" on="1"/>
        <pt x="528" y="1346" on="0"/>
        <pt x="569" y="1346" on="1"/>
        <pt x="663" y="1346" on="1"/>
        <pt x="690" y="1313" on="0"/>
        <pt x="746" y="1313" on="0"/>
        <pt x="771" y="1346" on="1"/>
        <pt x="864" y="1346" on="1"/>
        <pt x="913" y="1346" on="0"/>
        <pt x="913" y="1296" on="1"/>
        <pt x="913" y="1214" on="1"/>
        <pt x="913" y="1171" on="0"/>
        <pt x="843" y="1171" on="1"/>
      </contour>
      <contour>
        <pt x="226" y="1536" on="1"/>
        <pt x="271" y="1638" on="0"/>
        <pt x="379" y="1638" on="1"/>
        <pt x="524" y="1638" on="0"/>
        <pt x="524" y="1498" on="0"/>
        <pt x="351" y="1120" on="1"/>
        <pt x="276" y="956" on="0"/>
        <pt x="166" y="956" on="1"/>
        <pt x="128" y="956" on="0"/>
        <pt x="70" y="976" on="1"/>
        <pt x="0" y="1000" on="0"/>
        <pt x="0" y="1060" on="0"/>
        <pt x="70" y="1186" on="1"/>
      </contour>
    </TTGlyph>
</ttFont>
